<svg xmlns="http://www.w3.org/2000/svg" xmlns:xlink="http://www.w3.org/1999/xlink" contentStyleType="text/css" height="1817px" preserveAspectRatio="none" style="width:618px;height:1817px;background:#FFFFFF;" version="1.1" viewBox="0 0 618 1817" width="618px" zoomAndPan="magnify"><title>Remote Command Injection Data Flow (WiFi ESP32 to Main ESP32)</title><defs/><g><text fill="#000000" font-family="Arial" font-size="14" font-weight="bold" lengthAdjust="spacing" textLength="445.7305" x="79.592" y="23.1318">Remote Command Injection Data Flow (WiFi ESP32 to Main ESP32)</text><!--cluster WiFi ESP32--><g id="cluster_WiFi ESP32"><rect fill="#FFFFE0" height="524" rx="2.5" ry="2.5" style="stroke:#181818;stroke-width:1.0;" width="431" x="7" y="328.0986"/><text fill="#000000" font-family="Arial" font-size="11" font-weight="bold" lengthAdjust="spacing" textLength="60.5161" x="192.2419" y="340.4165">WiFi ESP32</text></g><!--cluster GPIOCMD--><g id="cluster_GPIOCMD"><rect fill="none" height="131" rx="2.5" ry="2.5" style="stroke:#181818;stroke-width:1.0;" width="367" x="39" y="689.0986"/><text fill="#000000" font-family="Arial" font-size="11" font-weight="bold" lengthAdjust="spacing" textLength="84.3423" x="180.3289" y="701.4165">GPIO Command</text><text fill="#000000" font-family="Arial" font-size="11" font-weight="bold" lengthAdjust="spacing" textLength="45.2246" x="199.8877" y="714.0654">Injection</text></g><!--cluster Main ESP32--><g id="cluster_Main ESP32"><rect fill="#E6E6FA" height="635" rx="2.5" ry="2.5" style="stroke:#181818;stroke-width:1.0;" width="277" x="29" y="979.0986"/><text fill="#000000" font-family="Arial" font-size="11" font-weight="bold" lengthAdjust="spacing" textLength="62.3584" x="136.3208" y="991.4165">Main ESP32</text></g><!--cluster TTI--><g id="cluster_TTI"><rect fill="none" height="115" rx="2.5" ry="2.5" style="stroke:#181818;stroke-width:1.0;" width="229" x="53" y="1018.0986"/><text fill="#000000" font-family="Arial" font-size="11" font-weight="bold" lengthAdjust="spacing" textLength="62.3262" x="136.3369" y="1030.4165">Touch/Tone</text><text fill="#000000" font-family="Arial" font-size="11" font-weight="bold" lengthAdjust="spacing" textLength="45.853" x="144.5735" y="1043.0654">Interface</text></g><!--entity AP--><g id="elem_AP"><rect fill="#F1F1F1" height="67.9468" rx="2.5" ry="2.5" style="stroke:#181818;stroke-width:0.5;" width="100.5" x="23" y="359.0986"/><rect fill="#F1F1F1" height="10" style="stroke:#181818;stroke-width:0.5;" width="15" x="103.5" y="364.0986"/><rect fill="#F1F1F1" height="2" style="stroke:#181818;stroke-width:0.5;" width="4" x="101.5" y="366.0986"/><rect fill="#F1F1F1" height="2" style="stroke:#181818;stroke-width:0.5;" width="4" x="101.5" y="370.0986"/><text fill="#000000" font-family="Arial" font-size="11" lengthAdjust="spacing" textLength="60.5" x="38" y="389.4165">WiFi Access</text><text fill="#000000" font-family="Arial" font-size="11" lengthAdjust="spacing" textLength="25.0723" x="38" y="402.0654">Point</text><text fill="#000000" font-family="Arial" font-size="11" lengthAdjust="spacing" textLength="55.623" x="38" y="414.7144">ERD-Byron</text></g><!--entity WEB--><g id="elem_WEB"><rect fill="#F1F1F1" height="55.2979" rx="2.5" ry="2.5" style="stroke:#181818;stroke-width:0.5;" width="94.3931" x="24" y="514.0986"/><rect fill="#F1F1F1" height="10" style="stroke:#181818;stroke-width:0.5;" width="15" x="98.3931" y="519.0986"/><rect fill="#F1F1F1" height="2" style="stroke:#181818;stroke-width:0.5;" width="4" x="96.3931" y="521.0986"/><rect fill="#F1F1F1" height="2" style="stroke:#181818;stroke-width:0.5;" width="4" x="96.3931" y="525.0986"/><text fill="#000000" font-family="Arial" font-size="11" lengthAdjust="spacing" textLength="54.3931" x="39" y="544.4165">HTTP Web</text><text fill="#000000" font-family="Arial" font-size="11" lengthAdjust="spacing" textLength="32.3984" x="39" y="557.0654">Server</text></g><!--entity TI--><g id="elem_TI"><rect fill="#F1F1F1" height="55.2979" rx="2.5" ry="2.5" style="stroke:#181818;stroke-width:0.5;" width="70.5723" x="82.5" y="741.0986"/><rect fill="#F1F1F1" height="10" style="stroke:#181818;stroke-width:0.5;" width="15" x="133.0723" y="746.0986"/><rect fill="#F1F1F1" height="2" style="stroke:#181818;stroke-width:0.5;" width="4" x="131.0723" y="748.0986"/><rect fill="#F1F1F1" height="2" style="stroke:#181818;stroke-width:0.5;" width="4" x="131.0723" y="752.0986"/><text fill="#000000" font-family="Arial" font-size="11" lengthAdjust="spacing" textLength="30.5723" x="97.5" y="771.4165">Touch</text><text fill="#000000" font-family="Arial" font-size="11" lengthAdjust="spacing" textLength="26.2915" x="97.5" y="784.0654">Inject</text></g><!--entity TNI--><g id="elem_TNI"><rect fill="#F1F1F1" height="55.2979" rx="2.5" ry="2.5" style="stroke:#181818;stroke-width:0.5;" width="66.2915" x="189" y="741.0986"/><rect fill="#F1F1F1" height="10" style="stroke:#181818;stroke-width:0.5;" width="15" x="235.2915" y="746.0986"/><rect fill="#F1F1F1" height="2" style="stroke:#181818;stroke-width:0.5;" width="4" x="233.2915" y="748.0986"/><rect fill="#F1F1F1" height="2" style="stroke:#181818;stroke-width:0.5;" width="4" x="233.2915" y="752.0986"/><text fill="#000000" font-family="Arial" font-size="11" lengthAdjust="spacing" textLength="25.0723" x="204" y="771.4165">Tone</text><text fill="#000000" font-family="Arial" font-size="11" lengthAdjust="spacing" textLength="26.2915" x="204" y="784.0654">Inject</text></g><!--entity SEND--><g id="elem_SEND"><rect fill="#F1F1F1" height="55.2979" rx="2.5" ry="2.5" style="stroke:#181818;stroke-width:0.5;" width="90.7407" x="290.5" y="741.0986"/><rect fill="#F1F1F1" height="10" style="stroke:#181818;stroke-width:0.5;" width="15" x="361.2407" y="746.0986"/><rect fill="#F1F1F1" height="2" style="stroke:#181818;stroke-width:0.5;" width="4" x="359.2407" y="748.0986"/><rect fill="#F1F1F1" height="2" style="stroke:#181818;stroke-width:0.5;" width="4" x="359.2407" y="752.0986"/><text fill="#000000" font-family="Arial" font-size="11" lengthAdjust="spacing" textLength="25.6899" x="305.5" y="771.4165">Send</text><text fill="#000000" font-family="Arial" font-size="11" lengthAdjust="spacing" textLength="50.7407" x="305.5" y="784.0654">Command</text></g><!--entity GE--><g id="elem_GE"><rect fill="#F1F1F1" height="55.2979" rx="2.5" ry="2.5" style="stroke:#181818;stroke-width:0.5;" width="86.4707" x="182" y="1316.0986"/><rect fill="#F1F1F1" height="10" style="stroke:#181818;stroke-width:0.5;" width="15" x="248.4707" y="1321.0986"/><rect fill="#F1F1F1" height="2" style="stroke:#181818;stroke-width:0.5;" width="4" x="246.4707" y="1323.0986"/><rect fill="#F1F1F1" height="2" style="stroke:#181818;stroke-width:0.5;" width="4" x="246.4707" y="1327.0986"/><text fill="#000000" font-family="Arial" font-size="11" lengthAdjust="spacing" textLength="30.5723" x="197" y="1346.4165">Guard</text><text fill="#000000" font-family="Arial" font-size="11" lengthAdjust="spacing" textLength="46.4707" x="197" y="1359.0654">Evaluator</text></g><!--entity FSM--><g id="elem_FSM"><rect fill="#F1F1F1" height="55.2979" rx="2.5" ry="2.5" style="stroke:#181818;stroke-width:0.5;" width="87.6846" x="124" y="1543.0986"/><rect fill="#F1F1F1" height="10" style="stroke:#181818;stroke-width:0.5;" width="15" x="191.6846" y="1548.0986"/><rect fill="#F1F1F1" height="2" style="stroke:#181818;stroke-width:0.5;" width="4" x="189.6846" y="1550.0986"/><rect fill="#F1F1F1" height="2" style="stroke:#181818;stroke-width:0.5;" width="4" x="189.6846" y="1554.0986"/><text fill="#000000" font-family="Arial" font-size="11" lengthAdjust="spacing" textLength="23.2192" x="139" y="1573.4165">FSM</text><text fill="#000000" font-family="Arial" font-size="11" lengthAdjust="spacing" textLength="47.6846" x="139" y="1586.0654">Controller</text></g><!--entity TH--><g id="elem_TH"><rect fill="#F1F1F1" height="55.2979" rx="2.5" ry="2.5" style="stroke:#181818;stroke-width:0.5;" width="78.5215" x="69.5" y="1062.0986"/><rect fill="#F1F1F1" height="10" style="stroke:#181818;stroke-width:0.5;" width="15" x="128.0215" y="1067.0986"/><rect fill="#F1F1F1" height="2" style="stroke:#181818;stroke-width:0.5;" width="4" x="126.0215" y="1069.0986"/><rect fill="#F1F1F1" height="2" style="stroke:#181818;stroke-width:0.5;" width="4" x="126.0215" y="1073.0986"/><text fill="#000000" font-family="Arial" font-size="11" lengthAdjust="spacing" textLength="30.5723" x="84.5" y="1092.4165">Touch</text><text fill="#000000" font-family="Arial" font-size="11" lengthAdjust="spacing" textLength="38.5215" x="84.5" y="1105.0654">Handler</text></g><!--entity TD--><g id="elem_TD"><rect fill="#F1F1F1" height="55.2979" rx="2.5" ry="2.5" style="stroke:#181818;stroke-width:0.5;" width="81.5723" x="184" y="1062.0986"/><rect fill="#F1F1F1" height="10" style="stroke:#181818;stroke-width:0.5;" width="15" x="245.5723" y="1067.0986"/><rect fill="#F1F1F1" height="2" style="stroke:#181818;stroke-width:0.5;" width="4" x="243.5723" y="1069.0986"/><rect fill="#F1F1F1" height="2" style="stroke:#181818;stroke-width:0.5;" width="4" x="243.5723" y="1073.0986"/><text fill="#000000" font-family="Arial" font-size="11" lengthAdjust="spacing" textLength="25.0723" x="199" y="1092.4165">Tone</text><text fill="#000000" font-family="Arial" font-size="11" lengthAdjust="spacing" textLength="41.5723" x="199" y="1105.0654">Detector</text></g><!--entity OP--><g id="elem_OP"><ellipse cx="72.8342" cy="109.0986" fill="#F1F1F1" rx="8" ry="8" style="stroke:#181818;stroke-width:0.5;"/><path d="M72.8342,117.0986 L72.8342,144.0986 M59.8342,125.0986 L85.8342,125.0986 M72.8342,144.0986 L59.8342,159.0986 M72.8342,144.0986 L85.8342,159.0986 " fill="none" style="stroke:#181818;stroke-width:0.5;"/><text fill="#000000" font-family="Arial" font-size="11" lengthAdjust="spacing" textLength="43.4092" x="49" y="170.9165">Operator</text><text fill="#000000" font-family="Arial" font-size="11" lengthAdjust="spacing" textLength="47.6685" x="49" y="183.5654">(Browser)</text></g><g id="elem_GMN26"><path d="M132.5,43.0986 L132.5,139.0986 L97.26,143.0986 L132.5,147.0986 L132.5,242.8325 A0,0 0 0 0 132.5,242.8325 L289.1685,242.8325 A0,0 0 0 0 289.1685,242.8325 L289.1685,53.0986 L279.1685,43.0986 L132.5,43.0986 A0,0 0 0 0 132.5,43.0986 " fill="#FEFFDD" style="stroke:#181818;stroke-width:0.5;"/><path d="M279.1685,43.0986 L279.1685,53.0986 L289.1685,53.0986 L279.1685,43.0986 " fill="#FEFFDD" style="stroke:#181818;stroke-width:0.5;"/><text fill="#000000" font-family="Arial" font-size="11" font-weight="bold" lengthAdjust="spacing" textLength="135.6685" x="138.5" y="58.4165">Web Dashboard Controls:</text><text fill="#000000" font-family="Arial" font-size="11" lengthAdjust="spacing" textLength="3.0562" x="138.5" y="71.0654">&#160;</text><text fill="#000000" font-family="Arial" font-size="11" lengthAdjust="spacing" textLength="88.0537" x="138.5" y="83.7144">Available Buttons:</text><text fill="#000000" font-family="Arial" font-size="11" lengthAdjust="spacing" textLength="66.8271" x="138.5" y="96.3633">&#8226; Inject Touch</text><text fill="#000000" font-family="Arial" font-size="11" lengthAdjust="spacing" textLength="117.9814" x="144.6123" y="109.0122">(IDLE &#8594; CAL transition)</text><text fill="#000000" font-family="Arial" font-size="11" lengthAdjust="spacing" textLength="3.0562" x="138.5" y="121.6611">&#160;</text><text fill="#000000" font-family="Arial" font-size="11" lengthAdjust="spacing" textLength="61.3271" x="138.5" y="134.3101">&#8226; Inject Tone</text><text fill="#000000" font-family="Arial" font-size="11" lengthAdjust="spacing" textLength="108.5015" x="144.6123" y="146.959">(MAZE &#8644; SOS toggle)</text><text fill="#000000" font-family="Arial" font-size="11" lengthAdjust="spacing" textLength="3.0562" x="138.5" y="159.6079">&#160;</text><text fill="#000000" font-family="Arial" font-size="11" lengthAdjust="spacing" textLength="110.8433" x="138.5" y="172.2568">&#8226; Send Test Command</text><text fill="#000000" font-family="Arial" font-size="11" lengthAdjust="spacing" textLength="117.9868" x="144.6123" y="184.9058">(QTP scenario injection)</text><text fill="#000000" font-family="Arial" font-size="11" lengthAdjust="spacing" textLength="3.0562" x="138.5" y="197.5547">&#160;</text><text fill="#000000" font-family="Arial" font-size="11" lengthAdjust="spacing" textLength="112.5083" x="138.5" y="210.2036">Enables remote testing</text><text fill="#000000" font-family="Arial" font-size="11" lengthAdjust="spacing" textLength="114.9414" x="138.5" y="222.8525">without physical access</text><text fill="#000000" font-family="Arial" font-size="11" lengthAdjust="spacing" textLength="86.2168" x="138.5" y="235.5015">to robot hardware</text></g><g id="elem_GMN29"><path d="M454,656.0986 L454,881.1304 L611.9146,881.1304 L611.9146,666.0986 L601.9146,656.0986 L454,656.0986 " fill="#FEFFDD" style="stroke:#181818;stroke-width:0.5;"/><path d="M601.9146,656.0986 L601.9146,666.0986 L611.9146,666.0986 L601.9146,656.0986 " fill="#FEFFDD" style="stroke:#181818;stroke-width:1.0;"/><text fill="#000000" font-family="Arial" font-size="11" font-weight="bold" lengthAdjust="spacing" textLength="136.9146" x="460" y="671.4165">GPIO Command Interface:</text><text fill="#000000" font-family="Arial" font-size="11" lengthAdjust="spacing" textLength="3.0562" x="460" y="684.0654">&#160;</text><text fill="#000000" font-family="Arial" font-size="11" lengthAdjust="spacing" textLength="91.0776" x="460" y="696.7144">3-wire control from</text><text fill="#000000" font-family="Arial" font-size="11" lengthAdjust="spacing" textLength="135.7222" x="460" y="709.3633">WiFi ESP32 to Main ESP32</text><text fill="#000000" font-family="Arial" font-size="11" lengthAdjust="spacing" textLength="3.0562" x="460" y="722.0122">&#160;</text><text fill="#000000" font-family="Arial" font-size="11" lengthAdjust="spacing" textLength="90.4922" x="460" y="734.6611">Pin 4: Touch inject</text><text fill="#000000" font-family="Arial" font-size="11" lengthAdjust="spacing" textLength="84.9922" x="460" y="747.3101">Pin 2: Tone inject</text><text fill="#000000" font-family="Arial" font-size="11" lengthAdjust="spacing" textLength="114.3452" x="460" y="759.959">Pin 15: Send command</text><text fill="#000000" font-family="Arial" font-size="11" lengthAdjust="spacing" textLength="3.0562" x="460" y="772.6079">&#160;</text><text fill="#000000" font-family="Arial" font-size="11" lengthAdjust="spacing" textLength="100.8906" x="460" y="785.2568">Active-high signaling</text><text fill="#000000" font-family="Arial" font-size="11" lengthAdjust="spacing" textLength="112.5137" x="460" y="797.9058">Debounced in software</text><text fill="#000000" font-family="Arial" font-size="11" lengthAdjust="spacing" textLength="3.0562" x="460" y="810.5547">&#160;</text><text fill="#000000" font-family="Arial" font-size="11" lengthAdjust="spacing" textLength="56.853" x="460" y="823.2036">Use Cases:</text><text fill="#000000" font-family="Arial" font-size="11" lengthAdjust="spacing" textLength="94.3486" x="460" y="835.8525">&#8226; Remote operation</text><text fill="#000000" font-family="Arial" font-size="11" lengthAdjust="spacing" textLength="95.5732" x="460" y="848.5015">&#8226; Automated testing</text><text fill="#000000" font-family="Arial" font-size="11" lengthAdjust="spacing" textLength="107.1694" x="460" y="861.1504">&#8226; QTP scenario replay</text><text fill="#000000" font-family="Arial" font-size="11" lengthAdjust="spacing" textLength="109.0117" x="460" y="873.7993">&#8226; Demonstration mode</text></g><g id="elem_GMN32"><path d="M322.5,1231.0986 L322.5,1339.5986 L268.13,1343.5986 L322.5,1347.5986 L322.5,1456.1304 A0,0 0 0 0 322.5,1456.1304 L489.6421,1456.1304 A0,0 0 0 0 489.6421,1456.1304 L489.6421,1241.0986 L479.6421,1231.0986 L322.5,1231.0986 A0,0 0 0 0 322.5,1231.0986 " fill="#FEFFDD" style="stroke:#181818;stroke-width:0.5;"/><path d="M479.6421,1231.0986 L479.6421,1241.0986 L489.6421,1241.0986 L479.6421,1231.0986 " fill="#FEFFDD" style="stroke:#181818;stroke-width:0.5;"/><text fill="#000000" font-family="Arial" font-size="11" font-weight="bold" lengthAdjust="spacing" textLength="127.123" x="328.5" y="1246.4165">Transparent Integration:</text><text fill="#000000" font-family="Arial" font-size="11" lengthAdjust="spacing" textLength="3.0562" x="328.5" y="1259.0654">&#160;</text><text fill="#000000" font-family="Arial" font-size="11" lengthAdjust="spacing" textLength="144.2998" x="328.5" y="1271.7144">Main ESP32 Guard Evaluator</text><text fill="#000000" font-family="Arial" font-size="11" lengthAdjust="spacing" textLength="77.6553" x="328.5" y="1284.3633">processes both:</text><text fill="#000000" font-family="Arial" font-size="11" lengthAdjust="spacing" textLength="3.0562" x="328.5" y="1297.0122">&#160;</text><text fill="#000000" font-family="Arial" font-size="11" lengthAdjust="spacing" textLength="85.5991" x="328.5" y="1309.6611">1. Physical inputs</text><text fill="#000000" font-family="Arial" font-size="11" lengthAdjust="spacing" textLength="133.896" x="337.6685" y="1322.3101">(touch sensor, microphone)</text><text fill="#000000" font-family="Arial" font-size="11" lengthAdjust="spacing" textLength="3.0562" x="328.5" y="1334.959">&#160;</text><text fill="#000000" font-family="Arial" font-size="11" lengthAdjust="spacing" textLength="83.1553" x="328.5" y="1347.6079">2. Remote inputs</text><text fill="#000000" font-family="Arial" font-size="11" lengthAdjust="spacing" textLength="122.2354" x="337.6685" y="1360.2568">(GPIO from WiFi ESP32)</text><text fill="#000000" font-family="Arial" font-size="11" lengthAdjust="spacing" textLength="3.0562" x="328.5" y="1372.9058">&#160;</text><text fill="#000000" font-family="Arial" font-size="11" lengthAdjust="spacing" textLength="146.1421" x="328.5" y="1385.5547">No special handling required -</text><text fill="#000000" font-family="Arial" font-size="11" lengthAdjust="spacing" textLength="128.396" x="328.5" y="1398.2036">remote commands appear</text><text fill="#000000" font-family="Arial" font-size="11" lengthAdjust="spacing" textLength="127.7944" x="328.5" y="1410.8525">identical to physical inputs</text><text fill="#000000" font-family="Arial" font-size="11" lengthAdjust="spacing" textLength="3.0562" x="328.5" y="1423.5015">&#160;</text><text fill="#000000" font-family="Arial" font-size="11" lengthAdjust="spacing" textLength="118.6152" x="328.5" y="1436.1504">Maintains state machine</text><text fill="#000000" font-family="Arial" font-size="11" lengthAdjust="spacing" textLength="118.0083" x="328.5" y="1448.7993">integrity and safety logic</text></g><g id="elem_GMN35"><path d="M90.5,1661.0986 L90.5,1810.2368 A0,0 0 0 0 90.5,1810.2368 L245.3799,1810.2368 A0,0 0 0 0 245.3799,1810.2368 L245.3799,1671.0986 L235.3799,1661.0986 L172,1661.0986 L168,1598.1486 L164,1661.0986 L90.5,1661.0986 A0,0 0 0 0 90.5,1661.0986 " fill="#FEFFDD" style="stroke:#181818;stroke-width:0.5;"/><path d="M235.3799,1661.0986 L235.3799,1671.0986 L245.3799,1671.0986 L235.3799,1661.0986 " fill="#FEFFDD" style="stroke:#181818;stroke-width:0.5;"/><text fill="#000000" font-family="Arial" font-size="11" font-weight="bold" lengthAdjust="spacing" textLength="92.9038" x="96.5" y="1676.4165">State Transitions:</text><text fill="#000000" font-family="Arial" font-size="11" lengthAdjust="spacing" textLength="3.0562" x="96.5" y="1689.0654">&#160;</text><text fill="#000000" font-family="Arial" font-size="11" lengthAdjust="spacing" textLength="133.8799" x="96.5" y="1701.7144">Touch (physical or remote):</text><text fill="#000000" font-family="Arial" font-size="11" lengthAdjust="spacing" textLength="62.9653" x="102.6123" y="1714.3633">IDLE &#8594; CAL</text><text fill="#000000" font-family="Arial" font-size="11" lengthAdjust="spacing" textLength="3.0562" x="96.5" y="1727.0122">&#160;</text><text fill="#000000" font-family="Arial" font-size="11" lengthAdjust="spacing" textLength="128.3799" x="96.5" y="1739.6611">Tone (physical or remote):</text><text fill="#000000" font-family="Arial" font-size="11" lengthAdjust="spacing" textLength="68.1484" x="102.6123" y="1752.3101">MAZE &#8644; SOS</text><text fill="#000000" font-family="Arial" font-size="11" lengthAdjust="spacing" textLength="3.0562" x="96.5" y="1764.959">&#160;</text><text fill="#000000" font-family="Arial" font-size="11" lengthAdjust="spacing" textLength="112.5137" x="96.5" y="1777.6079">Same guard conditions</text><text fill="#000000" font-family="Arial" font-size="11" lengthAdjust="spacing" textLength="92.9414" x="96.5" y="1790.2568">apply regardless of</text><text fill="#000000" font-family="Arial" font-size="11" lengthAdjust="spacing" textLength="59.9253" x="96.5" y="1802.9058">input source</text></g><!--link OP to AP--><g id="link_OP_AP"><path d="M73,185.6086 C73,234.2786 73,307.9986 73,352.8086 " fill="none" id="OP-to-AP" style="stroke:#181818;stroke-width:1.0;"/><polygon fill="#181818" points="73,358.8086,77,349.8086,73,353.8086,69,349.8086,73,358.8086" style="stroke:#181818;stroke-width:1.0;"/><text fill="#000000" font-family="Arial" font-size="11" font-weight="bold" lengthAdjust="spacing" textLength="23.2139" x="91.738" y="284.4165">WiFi</text><text fill="#000000" font-family="Arial" font-size="11" lengthAdjust="spacing" textLength="53.813" x="76.4385" y="297.0654">Dashboard</text><text fill="#000000" font-family="Arial" font-size="11" lengthAdjust="spacing" textLength="58.6899" x="74" y="309.7144">Button Click</text></g><!--link AP to WEB--><g id="link_AP_WEB"><path d="M72.55,427.3386 C72.19,453.5086 71.7814,483.5092 71.4514,507.8392 " fill="none" id="AP-to-WEB" style="stroke:#181818;stroke-width:1.0;"/><polygon fill="#181818" points="71.37,513.8386,75.4917,504.8937,71.4378,508.8391,67.4924,504.7852,71.37,513.8386" style="stroke:#181818;stroke-width:1.0;"/><text fill="#000000" font-family="Arial" font-size="11" lengthAdjust="spacing" textLength="28.7192" x="80.1257" y="468.4165">HTTP</text><text fill="#000000" font-family="Arial" font-size="11" lengthAdjust="spacing" textLength="40.9707" x="74" y="481.0654">Request</text></g><!--link WEB to GPIOCMD--><g id="link_WEB_GPIOCMD"><path d="M68.15,569.2886 C65.02,598.6236 60.4838,641.155 56.0375,682.8462 " fill="none" id="WEB-to-GPIOCMD" style="stroke:#181818;stroke-width:1.0;"/><polygon fill="#181818" points="55.4013,688.8124,60.3331,680.2873,55.9315,683.8406,52.3782,679.4389,55.4013,688.8124" style="stroke:#181818;stroke-width:1.0;"/><text fill="#000000" font-family="Arial" font-size="11" lengthAdjust="spacing" textLength="50.7407" x="66" y="610.4165">Command</text><text fill="#000000" font-family="Arial" font-size="11" lengthAdjust="spacing" textLength="30.5776" x="76.0815" y="623.0654">Signal</text></g><!--link TI to TH--><g id="link_TI_TH"><path d="M117.25,796.2486 C115.55,856.2986 111.6184,995.621 109.9284,1055.801 " fill="none" id="TI-to-TH" style="stroke:#181818;stroke-width:1.0;stroke-dasharray:7.0,7.0;"/><polygon fill="#181818" points="109.76,1061.7986,114.0111,1052.9145,109.9004,1056.8006,106.0142,1052.6899,109.76,1061.7986" style="stroke:#181818;stroke-width:1.0;"/><text fill="#000000" font-family="Arial" font-size="11" font-weight="bold" lengthAdjust="spacing" textLength="56.8477" x="123.2607" y="922.4165">GPIO Pin 4</text><text fill="#000000" font-family="Arial" font-size="11" lengthAdjust="spacing" textLength="59.9199" x="121.7246" y="935.0654">Touch Inject</text><text fill="#000000" font-family="Arial" font-size="11" lengthAdjust="spacing" textLength="51.96" x="125.7046" y="947.7144">(Simulates</text><text fill="#000000" font-family="Arial" font-size="11" lengthAdjust="spacing" textLength="73.3691" x="115" y="960.3633">physical touch)</text></g><!--link TNI to TD--><g id="link_TNI_TD"><path d="M222.25,796.2486 C222.82,856.2986 224.1232,995.6189 224.6932,1055.7989 " fill="none" id="TNI-to-TD" style="stroke:#181818;stroke-width:1.0;stroke-dasharray:7.0,7.0;"/><polygon fill="#181818" points="224.75,1061.7986,228.6646,1052.7612,224.7026,1056.7989,220.6649,1052.8369,224.75,1061.7986" style="stroke:#181818;stroke-width:1.0;"/><text fill="#000000" font-family="Arial" font-size="11" font-weight="bold" lengthAdjust="spacing" textLength="56.8477" x="230.1257" y="922.4165">GPIO Pin 2</text><text fill="#000000" font-family="Arial" font-size="11" lengthAdjust="spacing" textLength="54.4199" x="231.3396" y="935.0654">Tone Inject</text><text fill="#000000" font-family="Arial" font-size="11" lengthAdjust="spacing" textLength="51.96" x="232.5696" y="947.7144">(Simulates</text><text fill="#000000" font-family="Arial" font-size="11" lengthAdjust="spacing" textLength="69.0991" x="224" y="960.3633">2800 Hz tone)</text></g><!--link SEND to GE--><g id="link_SEND_GE"><path d="M336.13,796.1686 C335.83,864.6086 331.01,1052.0086 290,1201.0986 C278.46,1243.0686 258.6157,1282.9536 243.3357,1310.6836 " fill="none" id="SEND-to-GE" style="stroke:#181818;stroke-width:1.0;stroke-dasharray:7.0,7.0;"/><polygon fill="#181818" points="240.44,1315.9386,248.2868,1309.9866,242.853,1311.5595,241.2801,1306.1257,240.44,1315.9386" style="stroke:#181818;stroke-width:1.0;"/><text fill="#000000" font-family="Arial" font-size="11" font-weight="bold" lengthAdjust="spacing" textLength="62.9653" x="336.2607" y="1081.4165">GPIO Pin 15</text><text fill="#000000" font-family="Arial" font-size="11" lengthAdjust="spacing" textLength="79.4868" x="328" y="1094.0654">Send Command</text><text fill="#000000" font-family="Arial" font-size="11" lengthAdjust="spacing" textLength="74.5776" x="330.4546" y="1106.7144">(Trigger action)</text></g><!--link TH to GE--><g id="link_TH_GE"><path d="M121.41,1117.5686 C143.74,1166.0686 187.9007,1262.0085 210.1707,1310.3785 " fill="none" id="TH-to-GE" style="stroke:#181818;stroke-width:1.0;"/><polygon fill="#181818" points="212.68,1315.8286,212.5495,1305.9806,210.5889,1311.2869,205.2827,1309.3263,212.68,1315.8286" style="stroke:#181818;stroke-width:1.0;"/><text fill="#000000" font-family="Arial" font-size="11" lengthAdjust="spacing" textLength="30.5723" x="170.2219" y="1160.4165">Touch</text><text fill="#000000" font-family="Arial" font-size="11" lengthAdjust="spacing" textLength="28.1284" x="171.4438" y="1173.0654">Event</text><text fill="#000000" font-family="Arial" font-size="11" lengthAdjust="spacing" textLength="44.623" x="163.1965" y="1185.7144">(Physical</text><text fill="#000000" font-family="Arial" font-size="11" lengthAdjust="spacing" textLength="55.0161" x="158" y="1198.3633">or Remote)</text></g><!--link TD to GE--><g id="link_TD_GE"><path d="M225,1117.5686 C225,1166.0686 225,1261.4586 225,1309.8286 " fill="none" id="TD-to-GE" style="stroke:#181818;stroke-width:1.0;"/><polygon fill="#181818" points="225,1315.8286,229,1306.8286,225,1310.8286,221,1306.8286,225,1315.8286" style="stroke:#181818;stroke-width:1.0;"/><text fill="#000000" font-family="Arial" font-size="11" lengthAdjust="spacing" textLength="25.0723" x="240.9719" y="1160.4165">Tone</text><text fill="#000000" font-family="Arial" font-size="11" lengthAdjust="spacing" textLength="28.1284" x="239.4438" y="1173.0654">Event</text><text fill="#000000" font-family="Arial" font-size="11" lengthAdjust="spacing" textLength="44.623" x="231.1965" y="1185.7144">(Physical</text><text fill="#000000" font-family="Arial" font-size="11" lengthAdjust="spacing" textLength="55.0161" x="226" y="1198.3633">or Remote)</text></g><!--link GE to FSM--><g id="link_GE_FSM"><path d="M218.24,1371.2886 C207.27,1414.5986 187.1942,1493.8426 176.2242,1537.1226 " fill="none" id="GE-to-FSM" style="stroke:#181818;stroke-width:1.0;"/><polygon fill="#181818" points="174.75,1542.9386,180.8387,1535.1973,175.9785,1538.0919,173.0839,1533.2317,174.75,1542.9386" style="stroke:#181818;stroke-width:1.0;"/><text fill="#000000" font-family="Arial" font-size="11" lengthAdjust="spacing" textLength="30.5723" x="200.3984" y="1497.4165">Guard</text><text fill="#000000" font-family="Arial" font-size="11" lengthAdjust="spacing" textLength="51.3691" x="190" y="1510.0654">Evaluation</text></g><!--link FSM to FSM--><g id="link_FSM_FSM"><path d="M212.27,1559.4686 C231.02,1558.6286 247,1562.3386 247,1570.5986 C247,1578.8586 237.014,1582.8372 218.264,1581.9972 " fill="none" id="FSM-to-FSM" style="stroke:#181818;stroke-width:1.0;"/><polygon fill="#181818" points="212.27,1581.7286,221.082,1586.1274,217.265,1581.9524,221.44,1578.1354,212.27,1581.7286" style="stroke:#181818;stroke-width:1.0;"/><text fill="#000000" font-family="Arial" font-size="11" lengthAdjust="spacing" textLength="25.6846" x="264.3062" y="1568.4165">State</text><text fill="#000000" font-family="Arial" font-size="11" lengthAdjust="spacing" textLength="48.2969" x="253" y="1581.0654">Transition</text></g><!--link GPIOCMD to GMN29--><g id="link_GPIOCMD_GMN29"><path d="M44.5632,689.083 C44.5961,688.8224 44.6295,688.5618 44.6634,688.3011 C45.2063,684.1301 45.8845,679.9451 46.7201,675.7867 C48.3911,667.47 50.6915,659.2597 53.797,651.4814 C60.0081,635.9249 69.44,622.0961 83.5,612.5986 C138.19,575.6486 319.67,586.9986 380.5,612.5986 C407.73,624.0586 432.52,643.0186 453.84,663.8386 " fill="none" id="GPIOCMD-GMN29" style="stroke:#181818;stroke-width:1.0;stroke-dasharray:7.0,7.0;"/></g><!--SRC=[VLPDR-Cs4BtpLmpIGnsZJfDiTr7ui80Joqc0JU96BWAqxe6MQObTYLH9AaQsMA27ehtt9_IdxI_f34dBKZuQ881DFWvdthmtjFqeLSqDhs35iu-vqOrQd-jI6_Xgvl-ORH6su6kzbIg73I-jwEoinOOtfPjfvMvu9M1Y92zVta_b9m4d9umvwKe1TwBIJi2vhYgkrd2bVXMParh1b3iEir9lON0lPnAITFxc59o6QovL-7R86CySfdfmMml3yTDI3SwCtbfX3W-0MxYTC_OrxCypWz6vol7YW_tgGQWrEORV6K2cgreheHpyx26JB1FMBjLSI-MMAhcRZiuUZLQ_q0MJUV_4vM8nXtknMgfKc0TXFEW-EMC8wznzCR-wtTMyL6tHFcVQEx-U-bnwiHUwoOeTsWTUN3t7AD67t3p3f88kZRTxK9hSJ17rcNqcklO4T-dQho9ToRlatMpYK-n0V8BVxb9mmcnu9dnDYyNLg_LSOXPbP6fn-N91K-44TJg0GgvzuYyQRh2gv86N3TyXBv8-Q9PUK-7A6LtkhiIrK7PKOXQLk47fiTivZ4RliSimXk6Gv30SOZRS5Yljxpjhd4EndfSo-yZO9C2ntuWdAIpLdVYj4TOnHekqkMllUD__LEOAxO8vU5t8rWCzjJFayEZeFNBaa_7GEMv-HobvBgDxq0Ifh9gIEu6ohOj7ApDUOZ24e6LG4I7Ej1_dDCHHuiKmfzyV7yFb9uoY10OXnVWe5qa_oibR2aCIszStM1YPvy80zsKTzaK6jT7aC9mh36lp757GA8_aGP3j1lDOnrAXuKElg9Xfzm19vV_n22GyDXqFz3M3cJ566tj0wh1u9CLmPMK0AD88bbCuq1kQBq3242jeHG5HO7Oy79989mzSbdo51WbYiMDS_FB7lv7cKAUN_U1g-Y61Bt_z0-UJ3-3QMm_PqnDAX0FNav_mmDz_GdgROcjoj64BzZrOeFPsZGX7Vi01PJEXk95wBpL_Ab6KfaLBUoTWtnqr1M0hNQ4R1wsMk9-9k8CADNgb7HHO-PORmUXM8kafLL7tdg_k-8DsKaI-teosqf0FFOkmCRh2rTVU03hXNH054qkAgwT15Vt5axVZG4wqkcyIil0WHWLc2zRRCLG-5Ijy4JEnnX1WzSRv6d7ZHukF5hUYxMOS7zg_H2ILi3nfdAvGHUiEdRJUQuCHTSaVuyuK0odhGXIezFePfwNO14eJpwQN9xwpDEA8p3mSZNHsZERr3ks8nCreFUmvzh0O4_xa27RMmPhhnbcl6nZu-G5MAAlDDr39pEYw2DC0uFHeHq3lZ6yqTR3JFu-_qM1haU6l15GEpd_wKM5mL6Bdrp3opqft6blWTIqufIpNM6SSQ7j1nbjZlGx_BLXoBrGyAwJtY_JSIFS893lBDm8_bZgNsLE2aGpi6b5ChmDnx2S1x0V1pjn1SuCs3vmr8VF3iQUWw-Y0HpM-3k_wcU0f_PZAVTlG3-jmDQuZ6-KZ7irn1nrhCLLV89A0AcrCrj7CVm00]--></g></svg>