<svg xmlns="http://www.w3.org/2000/svg" xmlns:xlink="http://www.w3.org/1999/xlink" contentStyleType="text/css" height="1735px" preserveAspectRatio="none" style="width:780px;height:1735px;background:#FFFFFF;" version="1.1" viewBox="0 0 780 1735" width="780px" zoomAndPan="magnify"><title>Telemetry Data Flow (Main ESP32 to WiFi ESP32 to Operator)</title><defs/><g><text fill="#000000" font-family="Arial" font-size="14" font-weight="bold" lengthAdjust="spacing" textLength="406.8613" x="179.635" y="23.1318">Telemetry Data Flow (Main ESP32 to WiFi ESP32 to Operator)</text><!--cluster Main ESP32--><g id="cluster_Main ESP32"><rect fill="#E6E6FA" height="595.5" rx="2.5" ry="2.5" style="stroke:#181818;stroke-width:1.0;" width="599" x="7" y="44.0986"/><text fill="#000000" font-family="Arial" font-size="11" font-weight="bold" lengthAdjust="spacing" textLength="62.3584" x="275.3208" y="56.4165">Main ESP32</text></g><!--cluster SPITX--><g id="cluster_SPITX"><rect fill="#FFE0F0" height="376.5" rx="2.5" ry="2.5" style="stroke:#181818;stroke-width:1.0;" width="116" x="366" y="239.0986"/><text fill="#000000" font-family="Arial" font-size="11" font-weight="bold" lengthAdjust="spacing" textLength="72.7568" x="387.6216" y="251.4165">SPI Telemetry</text><text fill="#000000" font-family="Arial" font-size="11" font-weight="bold" lengthAdjust="spacing" textLength="44.0107" x="401.9946" y="264.0654">Encoder</text></g><!--cluster WiFi ESP32--><g id="cluster_WiFi ESP32"><rect fill="#FFFFE0" height="756" rx="2.5" ry="2.5" style="stroke:#181818;stroke-width:1.0;" width="170" x="339" y="738.0986"/><text fill="#000000" font-family="Arial" font-size="11" font-weight="bold" lengthAdjust="spacing" textLength="60.5161" x="393.7419" y="750.4165">WiFi ESP32</text></g><!--cluster SPIRX--><g id="cluster_SPIRX"><rect fill="none" height="257" rx="2.5" ry="2.5" style="stroke:#181818;stroke-width:1.0;" width="116" x="366" y="777.0986"/><text fill="#000000" font-family="Arial" font-size="11" font-weight="bold" lengthAdjust="spacing" textLength="49.5322" x="399.2339" y="789.4165">SPI Slave</text><text fill="#000000" font-family="Arial" font-size="11" font-weight="bold" lengthAdjust="spacing" textLength="45.853" x="401.0735" y="802.0654">Interface</text></g><!--cluster WEB--><g id="cluster_WEB"><rect fill="none" height="244" rx="2.5" ry="2.5" style="stroke:#181818;stroke-width:1.0;" width="122" x="363" y="1093.0986"/><text fill="#000000" font-family="Arial" font-size="11" font-weight="bold" lengthAdjust="spacing" textLength="60.5269" x="393.7366" y="1105.4165">Web Server</text></g><!--entity FSM--><g id="elem_FSM"><rect fill="#F1F1F1" height="55.2979" rx="2.5" ry="2.5" style="stroke:#181818;stroke-width:0.5;" width="91.96" x="498" y="75.0986"/><rect fill="#F1F1F1" height="10" style="stroke:#181818;stroke-width:0.5;" width="15" x="569.96" y="80.0986"/><rect fill="#F1F1F1" height="2" style="stroke:#181818;stroke-width:0.5;" width="4" x="567.96" y="82.0986"/><rect fill="#F1F1F1" height="2" style="stroke:#181818;stroke-width:0.5;" width="4" x="567.96" y="86.0986"/><text fill="#000000" font-family="Arial" font-size="11" lengthAdjust="spacing" textLength="51.96" x="513" y="105.4165">FSM State</text><text fill="#000000" font-family="Arial" font-size="11" lengthAdjust="spacing" textLength="43.4146" x="513" y="118.0654">Manager</text></g><!--entity NAV--><g id="elem_NAV"><rect fill="#F1F1F1" height="55.2979" rx="2.5" ry="2.5" style="stroke:#181818;stroke-width:0.5;" width="87.0615" x="375.5" y="75.0986"/><rect fill="#F1F1F1" height="10" style="stroke:#181818;stroke-width:0.5;" width="15" x="442.5615" y="80.0986"/><rect fill="#F1F1F1" height="2" style="stroke:#181818;stroke-width:0.5;" width="4" x="440.5615" y="82.0986"/><rect fill="#F1F1F1" height="2" style="stroke:#181818;stroke-width:0.5;" width="4" x="440.5615" y="86.0986"/><text fill="#000000" font-family="Arial" font-size="11" lengthAdjust="spacing" textLength="47.0615" x="390.5" y="105.4165">NAVCON</text><text fill="#000000" font-family="Arial" font-size="11" lengthAdjust="spacing" textLength="34.2515" x="390.5" y="118.0654">Engine</text></g><!--entity FD--><g id="elem_FD"><rect fill="#F1F1F1" height="55.2979" rx="2.5" ry="2.5" style="stroke:#181818;stroke-width:0.5;" width="97.4546" x="243.5" y="75.0986"/><rect fill="#F1F1F1" height="10" style="stroke:#181818;stroke-width:0.5;" width="15" x="320.9546" y="80.0986"/><rect fill="#F1F1F1" height="2" style="stroke:#181818;stroke-width:0.5;" width="4" x="318.9546" y="82.0986"/><rect fill="#F1F1F1" height="2" style="stroke:#181818;stroke-width:0.5;" width="4" x="318.9546" y="86.0986"/><text fill="#000000" font-family="Arial" font-size="11" lengthAdjust="spacing" textLength="57.4546" x="258.5" y="105.4165">SCS Frame</text><text fill="#000000" font-family="Arial" font-size="11" lengthAdjust="spacing" textLength="41.5776" x="258.5" y="118.0654">Decoder</text></g><!--entity MG--><g id="elem_MG"><rect fill="#F1F1F1" height="55.2979" rx="2.5" ry="2.5" style="stroke:#181818;stroke-width:0.5;" width="89.5269" x="118" y="75.0986"/><rect fill="#F1F1F1" height="10" style="stroke:#181818;stroke-width:0.5;" width="15" x="187.5269" y="80.0986"/><rect fill="#F1F1F1" height="2" style="stroke:#181818;stroke-width:0.5;" width="4" x="185.5269" y="82.0986"/><rect fill="#F1F1F1" height="2" style="stroke:#181818;stroke-width:0.5;" width="4" x="185.5269" y="86.0986"/><text fill="#000000" font-family="Arial" font-size="11" lengthAdjust="spacing" textLength="33.0161" x="133" y="105.4165">Motion</text><text fill="#000000" font-family="Arial" font-size="11" lengthAdjust="spacing" textLength="49.5269" x="133" y="118.0654">Generator</text></g><!--entity ES--><g id="elem_ES"><path d="M23,85.5986 C23,75.5986 52.8757,75.5986 52.8757,75.5986 C52.8757,75.5986 82.7515,75.5986 82.7515,85.5986 L82.7515,119.8965 C82.7515,129.8965 52.8757,129.8965 52.8757,129.8965 C52.8757,129.8965 23,129.8965 23,119.8965 L23,85.5986 " fill="#F1F1F1" style="stroke:#181818;stroke-width:0.5;"/><path d="M23,85.5986 C23,95.5986 52.8757,95.5986 52.8757,95.5986 C52.8757,95.5986 82.7515,95.5986 82.7515,85.5986 " fill="none" style="stroke:#181818;stroke-width:0.5;"/><text fill="#000000" font-family="Arial" font-size="11" lengthAdjust="spacing" textLength="39.7515" x="33" y="109.9165">Episode</text><text fill="#000000" font-family="Arial" font-size="11" lengthAdjust="spacing" textLength="25.6846" x="33" y="122.5654">State</text></g><!--entity PB--><g id="elem_PB"><rect fill="#F1F1F1" height="55.2979" rx="2.5" ry="2.5" style="stroke:#181818;stroke-width:0.5;" width="74.2407" x="382" y="283.0986"/><rect fill="#F1F1F1" height="10" style="stroke:#181818;stroke-width:0.5;" width="15" x="436.2407" y="288.0986"/><rect fill="#F1F1F1" height="2" style="stroke:#181818;stroke-width:0.5;" width="4" x="434.2407" y="290.0986"/><rect fill="#F1F1F1" height="2" style="stroke:#181818;stroke-width:0.5;" width="4" x="434.2407" y="294.0986"/><text fill="#000000" font-family="Arial" font-size="11" lengthAdjust="spacing" textLength="33.6284" x="397" y="313.4165">Packet</text><text fill="#000000" font-family="Arial" font-size="11" lengthAdjust="spacing" textLength="34.2407" x="397" y="326.0654">Builder</text></g><!--entity RL--><g id="elem_RL"><rect fill="#F1F1F1" height="67.9468" rx="2.5" ry="2.5" style="stroke:#181818;stroke-width:0.5;" width="74.853" x="386.5" y="531.5986"/><rect fill="#F1F1F1" height="10" style="stroke:#181818;stroke-width:0.5;" width="15" x="441.353" y="536.5986"/><rect fill="#F1F1F1" height="2" style="stroke:#181818;stroke-width:0.5;" width="4" x="439.353" y="538.5986"/><rect fill="#F1F1F1" height="2" style="stroke:#181818;stroke-width:0.5;" width="4" x="439.353" y="542.5986"/><text fill="#000000" font-family="Arial" font-size="11" lengthAdjust="spacing" textLength="23.2354" x="401.5" y="561.9165">Rate</text><text fill="#000000" font-family="Arial" font-size="11" lengthAdjust="spacing" textLength="33.0054" x="401.5" y="574.5654">Limiter</text><text fill="#000000" font-family="Arial" font-size="11" lengthAdjust="spacing" textLength="34.853" x="401.5" y="587.2144">200 Hz</text></g><!--entity AP--><g id="elem_AP"><rect fill="#F1F1F1" height="67.9468" rx="2.5" ry="2.5" style="stroke:#181818;stroke-width:0.5;" width="100.5" x="374" y="1410.0986"/><rect fill="#F1F1F1" height="10" style="stroke:#181818;stroke-width:0.5;" width="15" x="454.5" y="1415.0986"/><rect fill="#F1F1F1" height="2" style="stroke:#181818;stroke-width:0.5;" width="4" x="452.5" y="1417.0986"/><rect fill="#F1F1F1" height="2" style="stroke:#181818;stroke-width:0.5;" width="4" x="452.5" y="1421.0986"/><text fill="#000000" font-family="Arial" font-size="11" lengthAdjust="spacing" textLength="60.5" x="389" y="1440.4165">WiFi Access</text><text fill="#000000" font-family="Arial" font-size="11" lengthAdjust="spacing" textLength="25.0723" x="389" y="1453.0654">Point</text><text fill="#000000" font-family="Arial" font-size="11" lengthAdjust="spacing" textLength="55.623" x="389" y="1465.7144">ERD-Byron</text></g><!--entity PR--><g id="elem_PR"><rect fill="#F1F1F1" height="55.2979" rx="2.5" ry="2.5" style="stroke:#181818;stroke-width:0.5;" width="83.4038" x="382.5" y="821.0986"/><rect fill="#F1F1F1" height="10" style="stroke:#181818;stroke-width:0.5;" width="15" x="445.9038" y="826.0986"/><rect fill="#F1F1F1" height="2" style="stroke:#181818;stroke-width:0.5;" width="4" x="443.9038" y="828.0986"/><rect fill="#F1F1F1" height="2" style="stroke:#181818;stroke-width:0.5;" width="4" x="443.9038" y="832.0986"/><text fill="#000000" font-family="Arial" font-size="11" lengthAdjust="spacing" textLength="33.6284" x="397.5" y="851.4165">Packet</text><text fill="#000000" font-family="Arial" font-size="11" lengthAdjust="spacing" textLength="43.4038" x="397.5" y="864.0654">Receiver</text></g><!--entity PD--><g id="elem_PD"><rect fill="#F1F1F1" height="55.2979" rx="2.5" ry="2.5" style="stroke:#181818;stroke-width:0.5;" width="81.5776" x="383" y="963.0986"/><rect fill="#F1F1F1" height="10" style="stroke:#181818;stroke-width:0.5;" width="15" x="444.5776" y="968.0986"/><rect fill="#F1F1F1" height="2" style="stroke:#181818;stroke-width:0.5;" width="4" x="442.5776" y="970.0986"/><rect fill="#F1F1F1" height="2" style="stroke:#181818;stroke-width:0.5;" width="4" x="442.5776" y="974.0986"/><text fill="#000000" font-family="Arial" font-size="11" lengthAdjust="spacing" textLength="33.6284" x="398" y="993.4165">Packet</text><text fill="#000000" font-family="Arial" font-size="11" lengthAdjust="spacing" textLength="41.5776" x="398" y="1006.0654">Decoder</text></g><!--entity HTTP--><g id="elem_HTTP"><rect fill="#F1F1F1" height="55.2979" rx="2.5" ry="2.5" style="stroke:#181818;stroke-width:0.5;" width="72.3984" x="388" y="1266.0986"/><rect fill="#F1F1F1" height="10" style="stroke:#181818;stroke-width:0.5;" width="15" x="440.3984" y="1271.0986"/><rect fill="#F1F1F1" height="2" style="stroke:#181818;stroke-width:0.5;" width="4" x="438.3984" y="1273.0986"/><rect fill="#F1F1F1" height="2" style="stroke:#181818;stroke-width:0.5;" width="4" x="438.3984" y="1277.0986"/><text fill="#000000" font-family="Arial" font-size="11" lengthAdjust="spacing" textLength="28.7192" x="403" y="1296.4165">HTTP</text><text fill="#000000" font-family="Arial" font-size="11" lengthAdjust="spacing" textLength="32.3984" x="403" y="1309.0654">Server</text></g><!--entity JSON--><g id="elem_JSON"><rect fill="#F1F1F1" height="55.2979" rx="2.5" ry="2.5" style="stroke:#181818;stroke-width:0.5;" width="90.123" x="379" y="1124.0986"/><rect fill="#F1F1F1" height="10" style="stroke:#181818;stroke-width:0.5;" width="15" x="449.123" y="1129.0986"/><rect fill="#F1F1F1" height="2" style="stroke:#181818;stroke-width:0.5;" width="4" x="447.123" y="1131.0986"/><rect fill="#F1F1F1" height="2" style="stroke:#181818;stroke-width:0.5;" width="4" x="447.123" y="1135.0986"/><text fill="#000000" font-family="Arial" font-size="11" lengthAdjust="spacing" textLength="50.123" x="394" y="1154.4165">JSON API</text><text fill="#000000" font-family="Arial" font-size="11" lengthAdjust="spacing" textLength="28.7354" x="394" y="1167.0654">10 Hz</text></g><!--entity OP--><g id="elem_OP"><ellipse cx="199.8342" cy="1619.5986" fill="#F1F1F1" rx="8" ry="8" style="stroke:#181818;stroke-width:0.5;"/><path d="M199.8342,1627.5986 L199.8342,1654.5986 M186.8342,1635.5986 L212.8342,1635.5986 M199.8342,1654.5986 L186.8342,1669.5986 M199.8342,1654.5986 L212.8342,1669.5986 " fill="none" style="stroke:#181818;stroke-width:0.5;"/><text fill="#000000" font-family="Arial" font-size="11" lengthAdjust="spacing" textLength="43.4092" x="176" y="1681.4165">Operator</text><text fill="#000000" font-family="Arial" font-size="11" lengthAdjust="spacing" textLength="47.6685" x="176" y="1694.0654">(Browser)</text></g><g id="elem_GMN32"><path d="M622,217.0986 L622,306.5986 L456.03,310.5986 L622,314.5986 L622,404.1836 A0,0 0 0 0 622,404.1836 L749.9976,404.1836 A0,0 0 0 0 749.9976,404.1836 L749.9976,227.0986 L739.9976,217.0986 L622,217.0986 A0,0 0 0 0 622,217.0986 " fill="#FEFFDD" style="stroke:#181818;stroke-width:0.5;"/><path d="M739.9976,217.0986 L739.9976,227.0986 L749.9976,227.0986 L739.9976,217.0986 " fill="#FEFFDD" style="stroke:#181818;stroke-width:0.5;"/><text fill="#000000" font-family="Arial" font-size="11" font-weight="bold" lengthAdjust="spacing" textLength="95.6968" x="628" y="232.4165">13+ Packet Types:</text><text fill="#000000" font-family="Arial" font-size="11" lengthAdjust="spacing" textLength="77.6445" x="628" y="245.0654">1. System State</text><text fill="#000000" font-family="Arial" font-size="11" lengthAdjust="spacing" textLength="103.9253" x="628" y="257.7144">2. Sensor Colors (3x)</text><text fill="#000000" font-family="Arial" font-size="11" lengthAdjust="spacing" textLength="90.5083" x="628" y="270.3633">3. Incidence Angle</text><text fill="#000000" font-family="Arial" font-size="11" lengthAdjust="spacing" textLength="83.7729" x="628" y="283.0122">4. Wheel Speeds</text><text fill="#000000" font-family="Arial" font-size="11" lengthAdjust="spacing" textLength="106.9976" x="628" y="295.6611">5. Rotation Command</text><text fill="#000000" font-family="Arial" font-size="11" lengthAdjust="spacing" textLength="100.8799" x="628" y="308.3101">6. Distance Traveled</text><text fill="#000000" font-family="Arial" font-size="11" lengthAdjust="spacing" textLength="88.0322" x="628" y="320.959">7. NAVCON State</text><text fill="#000000" font-family="Arial" font-size="11" lengthAdjust="spacing" textLength="82.5537" x="628" y="333.6079">8. Line Detection</text><text fill="#000000" font-family="Arial" font-size="11" lengthAdjust="spacing" textLength="59.3022" x="628" y="346.2568">9. EoM Flag</text><text fill="#000000" font-family="Arial" font-size="11" lengthAdjust="spacing" textLength="84.9761" x="628" y="358.9058">10. Comm Status</text><text fill="#000000" font-family="Arial" font-size="11" lengthAdjust="spacing" textLength="75.2061" x="628" y="371.5547">11. Diagnostics</text><text fill="#000000" font-family="Arial" font-size="11" lengthAdjust="spacing" textLength="97.8452" x="628" y="384.2036">12. Announcements</text><text fill="#000000" font-family="Arial" font-size="11" lengthAdjust="spacing" textLength="77.6445" x="628" y="396.8525">13. Timing Data</text></g><g id="elem_GMN35"><path d="M622.5,491.0986 L622.5,561.5986 L461.73,565.5986 L622.5,569.5986 L622.5,640.2368 A0,0 0 0 0 622.5,640.2368 L773.1313,640.2368 A0,0 0 0 0 773.1313,640.2368 L773.1313,501.0986 L763.1313,491.0986 L622.5,491.0986 A0,0 0 0 0 622.5,491.0986 " fill="#FEFFDD" style="stroke:#181818;stroke-width:0.5;"/><path d="M763.1313,491.0986 L763.1313,501.0986 L773.1313,501.0986 L763.1313,491.0986 " fill="#FEFFDD" style="stroke:#181818;stroke-width:0.5;"/><text fill="#000000" font-family="Arial" font-size="11" font-weight="bold" lengthAdjust="spacing" textLength="73.3315" x="628.5" y="506.4165">Rate Limiting:</text><text fill="#000000" font-family="Arial" font-size="11" lengthAdjust="spacing" textLength="3.0562" x="628.5" y="519.0654">&#160;</text><text fill="#000000" font-family="Arial" font-size="11" lengthAdjust="spacing" textLength="126.543" x="628.5" y="531.7144">Max: 200 Hz transmission</text><text fill="#000000" font-family="Arial" font-size="11" lengthAdjust="spacing" textLength="117.9976" x="628.5" y="544.3633">System load monitoring:</text><text fill="#000000" font-family="Arial" font-size="11" lengthAdjust="spacing" textLength="63.1587" x="628.5" y="557.0122">&#8226; CPU usage</text><text fill="#000000" font-family="Arial" font-size="11" lengthAdjust="spacing" textLength="57.0518" x="628.5" y="569.6611">&#8226; Free heap</text><text fill="#000000" font-family="Arial" font-size="11" lengthAdjust="spacing" textLength="94.3433" x="628.5" y="582.3101">&#8226; SPI bus utilization</text><text fill="#000000" font-family="Arial" font-size="11" lengthAdjust="spacing" textLength="3.0562" x="628.5" y="594.959">&#160;</text><text fill="#000000" font-family="Arial" font-size="11" lengthAdjust="spacing" textLength="105.7568" x="628.5" y="607.6079">Prevents WiFi ESP32</text><text fill="#000000" font-family="Arial" font-size="11" lengthAdjust="spacing" textLength="129.6313" x="628.5" y="620.2568">overload while maintaining</text><text fill="#000000" font-family="Arial" font-size="11" lengthAdjust="spacing" textLength="83.7354" x="628.5" y="632.9058">real-time visibility</text></g><g id="elem_GMN38"><path d="M468,1598.0986 L468,1709.29 A0,0 0 0 0 468,1709.29 L599.6875,1709.29 A0,0 0 0 0 599.6875,1709.29 L599.6875,1608.0986 L589.6875,1598.0986 L509,1598.0986 L441.67,1478.4386 L501,1598.0986 L468,1598.0986 A0,0 0 0 0 468,1598.0986 " fill="#FEFFDD" style="stroke:#181818;stroke-width:0.5;"/><path d="M589.6875,1598.0986 L589.6875,1608.0986 L599.6875,1608.0986 L589.6875,1598.0986 " fill="#FEFFDD" style="stroke:#181818;stroke-width:0.5;"/><text fill="#000000" font-family="Arial" font-size="11" font-weight="bold" lengthAdjust="spacing" textLength="102.0293" x="474" y="1613.4165">WiFi Configuration:</text><text fill="#000000" font-family="Arial" font-size="11" lengthAdjust="spacing" textLength="95.2188" x="474" y="1626.0654">SSID: "ERD-Byron"</text><text fill="#000000" font-family="Arial" font-size="11" lengthAdjust="spacing" textLength="74.6152" x="474" y="1638.7144">IP: 192.168.4.1</text><text fill="#000000" font-family="Arial" font-size="11" lengthAdjust="spacing" textLength="97.2114" x="474" y="1651.3633">Mode: Access Point</text><text fill="#000000" font-family="Arial" font-size="11" lengthAdjust="spacing" textLength="3.0562" x="474" y="1664.0122">&#160;</text><text fill="#000000" font-family="Arial" font-size="11" lengthAdjust="spacing" textLength="92.9307" x="474" y="1676.6611">Multiple concurrent</text><text fill="#000000" font-family="Arial" font-size="11" lengthAdjust="spacing" textLength="110.6875" x="474" y="1689.3101">connections supported</text><text fill="#000000" font-family="Arial" font-size="11" lengthAdjust="spacing" textLength="94.7622" x="474" y="1701.959">for team monitoring</text></g><g id="elem_GMN41"><path d="M259.5,1579.0986 L259.5,1649.5986 L224.24,1653.5986 L259.5,1657.5986 L259.5,1728.2368 A0,0 0 0 0 259.5,1728.2368 L432.2817,1728.2368 A0,0 0 0 0 432.2817,1728.2368 L432.2817,1589.0986 L422.2817,1579.0986 L259.5,1579.0986 A0,0 0 0 0 259.5,1579.0986 " fill="#FEFFDD" style="stroke:#181818;stroke-width:0.5;"/><path d="M422.2817,1579.0986 L422.2817,1589.0986 L432.2817,1589.0986 L422.2817,1579.0986 " fill="#FEFFDD" style="stroke:#181818;stroke-width:0.5;"/><text fill="#000000" font-family="Arial" font-size="11" font-weight="bold" lengthAdjust="spacing" textLength="109.4199" x="265.5" y="1594.4165">Dashboard Displays:</text><text fill="#000000" font-family="Arial" font-size="11" lengthAdjust="spacing" textLength="151.7817" x="265.5" y="1607.0654">&#8226; State (IDLE/CAL/MAZE/SOS)</text><text fill="#000000" font-family="Arial" font-size="11" lengthAdjust="spacing" textLength="114.5225" x="265.5" y="1619.7144">&#8226; Sensor colors &amp; angle</text><text fill="#000000" font-family="Arial" font-size="11" lengthAdjust="spacing" textLength="123.0786" x="265.5" y="1632.3633">&#8226; Wheel speeds v_L, v_R</text><text fill="#000000" font-family="Arial" font-size="11" lengthAdjust="spacing" textLength="102.2871" x="265.5" y="1645.0122">&#8226; Distance since stop</text><text fill="#000000" font-family="Arial" font-size="11" lengthAdjust="spacing" textLength="102.8833" x="265.5" y="1657.6611">&#8226; NAVCON decisions</text><text fill="#000000" font-family="Arial" font-size="11" lengthAdjust="spacing" textLength="115.731" x="265.5" y="1670.3101">&#8226; Communication status</text><text fill="#000000" font-family="Arial" font-size="11" lengthAdjust="spacing" textLength="110.2417" x="265.5" y="1682.959">&#8226; Loop timing &amp; uptime</text><text fill="#000000" font-family="Arial" font-size="11" lengthAdjust="spacing" textLength="3.0562" x="265.5" y="1695.6079">&#160;</text><text fill="#000000" font-family="Arial" font-size="11" lengthAdjust="spacing" textLength="70.3184" x="265.5" y="1708.2568">Update: 10 Hz</text><text fill="#000000" font-family="Arial" font-size="11" lengthAdjust="spacing" textLength="87.1353" x="265.5" y="1720.9058">Latency: ~150 ms</text></g><!--link FSM to PB--><g id="link_FSM_PB"><path d="M527.91,130.1086 C503.98,169.5586 462.3529,238.1593 438.3329,277.7393 " fill="none" id="FSM-to-PB" style="stroke:#181818;stroke-width:1.0;"/><polygon fill="#181818" points="435.22,282.8686,443.3088,277.2499,437.814,278.5942,436.4697,273.0994,435.22,282.8686" style="stroke:#181818;stroke-width:1.0;"/><text fill="#000000" font-family="Arial" font-size="11" lengthAdjust="spacing" textLength="36.6792" x="508" y="171.4165">Current</text><text fill="#000000" font-family="Arial" font-size="11" lengthAdjust="spacing" textLength="25.6846" x="513.4973" y="184.0654">State</text></g><!--link NAV to PB--><g id="link_NAV_PB"><path d="M419,130.1086 C419,169.5586 419,237.2886 419,276.8686 " fill="none" id="NAV-to-PB" style="stroke:#181818;stroke-width:1.0;"/><polygon fill="#181818" points="419,282.8686,423,273.8686,419,277.8686,415,273.8686,419,282.8686" style="stroke:#181818;stroke-width:1.0;"/><text fill="#000000" font-family="Arial" font-size="11" lengthAdjust="spacing" textLength="47.0615" x="420" y="171.4165">NAVCON</text><text fill="#000000" font-family="Arial" font-size="11" lengthAdjust="spacing" textLength="25.6846" x="430.6885" y="184.0654">State</text></g><!--link ES to PB--><g id="link_ES_PB"><path d="M83.24,124.1486 C109.28,141.5686 148.06,166.8686 183,187.0986 C251.71,226.8886 329.2418,265.869 376.2518,288.899 " fill="none" id="ES-to-PB" style="stroke:#181818;stroke-width:1.0;"/><polygon fill="#181818" points="381.64,291.5386,375.3175,283.9871,377.1499,289.3389,371.798,291.1713,381.64,291.5386" style="stroke:#181818;stroke-width:1.0;"/><text fill="#000000" font-family="Arial" font-size="11" lengthAdjust="spacing" textLength="39.7515" x="184" y="171.4165">Episode</text><text fill="#000000" font-family="Arial" font-size="11" lengthAdjust="spacing" textLength="23.2354" x="192.2581" y="184.0654">Data</text></g><!--link FD to PB--><g id="link_FD_PB"><path d="M308.34,130.1086 C332.66,169.5586 374.9714,238.1812 399.3714,277.7612 " fill="none" id="FD-to-PB" style="stroke:#181818;stroke-width:1.0;"/><polygon fill="#181818" points="402.52,282.8686,401.2021,273.1084,399.8962,278.6124,394.3921,277.3065,402.52,282.8686" style="stroke:#181818;stroke-width:1.0;"/><text fill="#000000" font-family="Arial" font-size="11" lengthAdjust="spacing" textLength="34.853" x="341" y="171.4165">Sensor</text><text fill="#000000" font-family="Arial" font-size="11" lengthAdjust="spacing" textLength="23.2354" x="346.8088" y="184.0654">Data</text></g><!--link MG to PB--><g id="link_MG_PB"><path d="M194.33,130.1686 C213.94,146.6986 239.8,168.3086 263,187.0986 C304.35,220.5786 347.8674,254.5934 379.6374,279.2134 " fill="none" id="MG-to-PB" style="stroke:#181818;stroke-width:1.0;"/><polygon fill="#181818" points="384.38,282.8886,379.7163,274.214,380.4278,279.8259,374.8159,280.5375,384.38,282.8886" style="stroke:#181818;stroke-width:1.0;"/><text fill="#000000" font-family="Arial" font-size="11" lengthAdjust="spacing" textLength="33.0161" x="275.6123" y="171.4165">Motion</text><text fill="#000000" font-family="Arial" font-size="11" lengthAdjust="spacing" textLength="56.2407" x="264" y="184.0654">Commands</text></g><!--link PB to RL--><g id="link_PB_RL"><path d="M419.53,338.1986 C420.44,384.6286 422.222,474.3698 423.222,525.1998 " fill="none" id="PB-to-RL" style="stroke:#181818;stroke-width:1.0;"/><polygon fill="#181818" points="423.34,531.1986,427.1622,522.1217,423.2417,526.1996,419.1637,522.2791,423.34,531.1986" style="stroke:#181818;stroke-width:1.0;"/><text fill="#000000" font-family="Arial" font-size="11" lengthAdjust="spacing" textLength="47.0776" x="422" y="445.4165">Complete</text><text fill="#000000" font-family="Arial" font-size="11" lengthAdjust="spacing" textLength="39.1284" x="425.9746" y="458.0654">Packets</text></g><!--link RL to PR--><g id="link_RL_PR"><path d="M424,599.6586 C424,655.9486 424,763.3086 424,814.9186 " fill="none" id="RL-to-PR" style="stroke:#181818;stroke-width:1.0;"/><polygon fill="#181818" points="424,820.9186,428,811.9186,424,815.9186,420,811.9186,424,820.9186" style="stroke:#181818;stroke-width:1.0;"/><text fill="#000000" font-family="Arial" font-size="11" font-weight="bold" lengthAdjust="spacing" textLength="52.5669" x="425" y="681.4165">SPI 2 MHz</text><text fill="#000000" font-family="Arial" font-size="11" lengthAdjust="spacing" textLength="34.853" x="433.8569" y="694.0654">200 Hz</text><text fill="#000000" font-family="Arial" font-size="11" lengthAdjust="spacing" textLength="42.8076" x="429.8796" y="706.7144">257-byte</text><text fill="#000000" font-family="Arial" font-size="11" lengthAdjust="spacing" textLength="37.9092" x="432.3289" y="719.3633">packets</text></g><!--link PR to PD--><g id="link_PR_PD"><path d="M424,876.2586 C424,901.1686 424,932.1586 424,957.0386 " fill="none" id="PR-to-PD" style="stroke:#181818;stroke-width:1.0;"/><polygon fill="#181818" points="424,963.0386,428,954.0386,424,958.0386,420,954.0386,424,963.0386" style="stroke:#181818;stroke-width:1.0;"/><text fill="#000000" font-family="Arial" font-size="11" lengthAdjust="spacing" textLength="22.0054" x="433.5615" y="917.4165">Raw</text><text fill="#000000" font-family="Arial" font-size="11" lengthAdjust="spacing" textLength="39.1284" x="425" y="930.0654">Packets</text></g><!--link PD to JSON--><g id="link_PD_JSON"><path d="M424,1018.2086 C424,1047.5586 424,1088.5186 424,1117.8986 " fill="none" id="PD-to-JSON" style="stroke:#181818;stroke-width:1.0;"/><polygon fill="#181818" points="424,1123.8986,428,1114.8986,424,1118.8986,420,1114.8986,424,1123.8986" style="stroke:#181818;stroke-width:1.0;"/><text fill="#000000" font-family="Arial" font-size="11" lengthAdjust="spacing" textLength="44.0322" x="427.4331" y="1061.4165">Decoded</text><text fill="#000000" font-family="Arial" font-size="11" lengthAdjust="spacing" textLength="48.8984" x="425" y="1074.0654">Telemetry</text></g><!--link JSON to HTTP--><g id="link_JSON_HTTP"><path d="M424,1179.2586 C424,1204.1686 424,1235.1586 424,1260.0386 " fill="none" id="JSON-to-HTTP" style="stroke:#181818;stroke-width:1.0;"/><polygon fill="#181818" points="424,1266.0386,428,1257.0386,424,1261.0386,420,1257.0386,424,1266.0386" style="stroke:#181818;stroke-width:1.0;"/><text fill="#000000" font-family="Arial" font-size="11" lengthAdjust="spacing" textLength="29.3369" x="430.8169" y="1220.4165">JSON</text><text fill="#000000" font-family="Arial" font-size="11" lengthAdjust="spacing" textLength="40.9707" x="425" y="1233.0654">Updates</text></g><!--link HTTP to AP--><g id="link_HTTP_AP"><path d="M424,1321.1486 C424,1346.0086 424,1377.2386 424,1404.0186 " fill="none" id="HTTP-to-AP" style="stroke:#181818;stroke-width:1.0;"/><polygon fill="#181818" points="424,1410.0186,428,1401.0186,424,1405.0186,420,1401.0186,424,1410.0186" style="stroke:#181818;stroke-width:1.0;"/><text fill="#000000" font-family="Arial" font-size="11" lengthAdjust="spacing" textLength="28.7192" x="438.1565" y="1364.4165">HTTP</text><text fill="#000000" font-family="Arial" font-size="11" lengthAdjust="spacing" textLength="55.0322" x="425" y="1377.0654">Responses</text></g><!--link AP to OP--><g id="link_AP_OP"><path d="M373.98,1473.8686 C334.68,1498.2386 280.36,1536.0286 242,1579.0986 C233.59,1588.5386 229.0738,1594.7174 222.8138,1605.6874 " fill="none" id="AP-to-OP" style="stroke:#181818;stroke-width:1.0;"/><polygon fill="#181818" points="219.84,1610.8986,227.7748,1605.0643,222.3181,1606.556,220.8265,1601.0993,219.84,1610.8986" style="stroke:#181818;stroke-width:1.0;"/><text fill="#000000" font-family="Arial" font-size="11" font-weight="bold" lengthAdjust="spacing" textLength="54.9893" x="328.2488" y="1521.4165">WiFi/HTTP</text><text fill="#000000" font-family="Arial" font-size="11" lengthAdjust="spacing" textLength="79.4868" x="316" y="1534.0654">Web Dashboard</text><text fill="#000000" font-family="Arial" font-size="11" lengthAdjust="spacing" textLength="70.936" x="320.2754" y="1546.7144">10 Hz updates</text></g><!--SRC=[TLNlRY8t4F- -Jp7Yf6j2cqr8BhaxFbGYi2HK45OirvnQgiei1gpRjLUsDpbINTLdwQFrIJfZxx8aRL0Wyinu_lpcDsFpHSY2QPR3agLVDbgLSjLNcTBmPkW-WTbRc2rRgKSXDx1ccU47cXLVipApGoNj7SivzBHWsV_h4_74eTC90Yjinc7ECvvpgtSmO9R1C5EFS3HXGaAKn1VdO1NSYw5eJjE2QsQLFWw2x-3GSE_8g5Adt0IQfvR93GPfDNOjU1DTHLV37lmH0AGgBvJaqiAlmsG2YMMMB-I4IRRX-ZTW1b3ytEwkztD_UhUGaTm8oPqDYfxR9Fq4XbWt-XhmLArgNuFdPXDbXP8BUSEbhybPJMu2D5iX6ajcCFUe40PTBAJBhaKcKK8c1_KbyQX1ad9pGPqjgkQVgPdHsV3C5VqiXnYxpkr2NfSYg_EChrzQpHmkOv4Bo_L2df-TmUsJivsDqVPRy8swqJJg4Fj6slASYdmQBz9FClQ0CKOI8wnPoklaPvzVJth6KouUwgndhvaTzY0Uk7oVnx_dIqYuVgWWku-k_nlpTZwFiGVEodaYmKkZdvBf7VJYqK9szWYHh8vvOEfWwQL8LBEGiH8I4urcWvFhdLRINUp512jBaHZGgcc_a4VNMZqQhezThjEOa6-cA5LPXeKXhm3_6ju7nE-Jan-nkT25VgarfuYEKm4IkD7L1FUgA6aqUoRIg0R3GQD9k3IKcrDCRXf5JV6-odCcLuQIfMvRpQHPSnsW5HdFnfGLefDnOfhld0bGx5pDKDjkqyLpcDm-jTir1_7_vVkJvOuk5TMbPqo4GYl26BTMW6wSjm5wcx779apiIt7TwuAdoseXzwW6JaCcr7GqeVD2VYfmId7HE25fUwJpH9bnWvqstAKpLw2g_WKzRpgDNKcKw2dTe9A8XWDcjal5zAgY49HLa40goq6BpTQ2MliPRRSx5z-3hmBckuARRhkDyau8oSvOdlkDXfBpiEeHkELkuEZYwp7ABq8OoLIik4nnQzCqeF1T2FTRpZD82iwnPm2N8SmKkY9QLQr4wLK80s5mYF3kNEFuPfp4xyEAG_le7q8Oux94PAtd9ie-XX2f2Ivyjg6CpqBds5qfAMIdGzxPHYfZHUeaM4HFIdoXKcoBj4w61SnnBU6RvBZ7vGe8g9TmkJNLRjCU0xV6y0PXXT89-ze5poPFormWNLoE5OYPOYl8bHJOFxg7cd_- -XlwyISe3RuKrNceEOSjPqLr9hekImEb5PbuSk1Hl5Zp1yh-S5q2A5mhBixZLk1Aod5mBNw9jhIgM7PY1Jwi3yA89RgpkvUbBfMrAgTQUx6hrRdlAxaMcrAxw9uSIJ8QTF5PgNTD2sMZk0kTZ-TXv-f3-2xi42eu0jrgFu5RJmuhVCG5pYYk6Pdw7UAscfI-hmPCMHHAMqU4DTBDSdp-6-nURT3K9xsdFp6hoDYkOhJ3azW4HwF1E3hjzyQdazulqMaoJOvhlITuwWd-5bX5Pz9vFXl7PtZuVVm3_imgtPx3k2JerwgwWnMDLpmLn0XJDnw9MagH-damDMD9DLQg0Ei9-HPdbvf6mFbLWI0JpV0ynfDCTrtuitDv1hbfSFaN]--></g></svg>