<?xml version="1.0" encoding="UTF-8" standalone="no"?>
<svg
   contentStyleType="text/css"
   height="1186px"
   preserveAspectRatio="none"
   style="width:933px;height:1186px;background:#FFFFFF;"
   version="1.1"
   viewBox="0 0 933 1186"
   width="933px"
   zoomAndPan="magnify"
   id="svg87"
   sodipodi:docname="architecture_interfaces.svg"
   inkscape:export-filename="architecture_interfaces.pdf"
   inkscape:export-xdpi="96"
   inkscape:export-ydpi="96"
   inkscape:version="1.4.2 (f4327f4, 2025-05-13)"
   xmlns:inkscape="http://www.inkscape.org/namespaces/inkscape"
   xmlns:sodipodi="http://sodipodi.sourceforge.net/DTD/sodipodi-0.dtd"
   xmlns="http://www.w3.org/2000/svg"
   xmlns:svg="http://www.w3.org/2000/svg">
  <sodipodi:namedview
     id="namedview87"
     pagecolor="#ffffff"
     bordercolor="#000000"
     borderopacity="0.25"
     inkscape:showpageshadow="2"
     inkscape:pageopacity="0.0"
     inkscape:pagecheckerboard="0"
     inkscape:deskcolor="#d1d1d1"
     inkscape:zoom="0.95155348"
     inkscape:cx="529.6602"
     inkscape:cy="347.85223"
     inkscape:window-width="1920"
     inkscape:window-height="991"
     inkscape:window-x="2391"
     inkscape:window-y="-9"
     inkscape:window-maximized="1"
     inkscape:current-layer="g87" />
  <title
     id="title1">SNC External Interfaces and Inter-Microcontroller Communication</title>
  <defs
     id="defs1" />
  <g
     id="g87">
    <!--cluster MAIN-->
    <g
       id="cluster_MAIN">
      <rect
         fill="#E6E6FA"
         height="341"
         rx="2.5"
         ry="2.5"
         style="stroke:#333333;stroke-width:1.0;"
         width="268"
         x="167"
         y="233.5986"
         id="rect1" />
      <text
         fill="#000000"
         font-family="Arial"
         font-size="11px"
         font-weight="bold"
         lengthAdjust="spacing"
         textLength="62.358398"
         x="269.8208"
         y="245.9165"
         id="text2"
         transform="translate(-64.368427,1.8390979)">Main ESP32</text>
      <text
         fill="#000000"
         font-family="Arial"
         font-size="11px"
         font-weight="bold"
         lengthAdjust="spacing"
         textLength="103.2915"
         x="249.3542"
         y="258.5654"
         id="text3"
         transform="translate(-47.291089,2.3645544)">(Control Processor)</text>
    </g>
    <!--cluster WIFI-->
    <g
       id="cluster_WIFI">
      <rect
         fill="#FFFFE0"
         height="468"
         rx="2.5"
         ry="2.5"
         style="stroke:#333333;stroke-width:1.0;"
         width="144"
         x="572"
         y="712.5986"
         id="rect3" />
      <text
         fill="#000000"
         font-family="Arial"
         font-size="11"
         font-weight="bold"
         lengthAdjust="spacing"
         textLength="60.5161"
         x="613.7419"
         y="724.9165"
         id="text4">WiFi ESP32</text>
      <text
         fill="#000000"
         font-family="Arial"
         font-size="11"
         font-weight="bold"
         lengthAdjust="spacing"
         textLength="116.1606"
         x="585.9197"
         y="737.5654"
         id="text5">(Telemetry Processor)</text>
    </g>
    <!--entity SCS_MAIN-->
    <g
       id="elem_SCS_MAIN">
      <rect
         fill="#F1F1F1"
         height="45.2979"
         rx="2.5"
         ry="2.5"
         style="stroke:#181818;stroke-width:0.5;"
         width="86.0269"
         x="306"
         y="285.5986"
         id="rect5" />
      <text
         fill="#000000"
         font-family="Arial"
         font-size="11"
         lengthAdjust="spacing"
         textLength="66.0269"
         x="316"
         y="305.9165"
         id="text6">SCS Protocol</text>
      <text
         fill="#000000"
         font-family="Arial"
         font-size="11"
         lengthAdjust="spacing"
         textLength="38.5215"
         x="316"
         y="318.5654"
         id="text7">Handler</text>
    </g>
    <!--entity CORE-->
    <g
       id="elem_CORE">
      <rect
         fill="#F1F1F1"
         height="45.2979"
         rx="2.5"
         ry="2.5"
         style="stroke:#181818;stroke-width:0.5;"
         width="92.1553"
         x="300"
         y="391.5986"
         id="rect7" />
      <text
         fill="#000000"
         font-family="Arial"
         font-size="11"
         lengthAdjust="spacing"
         textLength="72.1553"
         x="310"
         y="411.9165"
         id="text8">State Manager</text>
      <text
         fill="#000000"
         font-family="Arial"
         font-size="11"
         lengthAdjust="spacing"
         textLength="57.4546"
         x="310"
         y="424.5654"
         id="text9">&amp; NAVCON</text>
    </g>
    <!--entity SPI_MASTER-->
    <g
       id="elem_SPI_MASTER">
      <rect
         fill="#F1F1F1"
         height="45.2979"
         rx="2.5"
         ry="2.5"
         style="stroke:#181818;stroke-width:0.5;"
         width="74.4038"
         x="315"
         y="505.5986"
         id="rect9" />
      <text
         fill="#000000"
         font-family="Arial"
         font-size="11"
         lengthAdjust="spacing"
         textLength="54.4038"
         x="325"
         y="525.9165"
         id="text10">SPI Master</text>
      <text
         fill="#000000"
         font-family="Arial"
         font-size="11"
         lengthAdjust="spacing"
         textLength="39.1069"
         x="325"
         y="538.5654"
         id="text11">(2 MHz)</text>
    </g>
    <!--entity INPUTS-->
    <g
       id="elem_INPUTS">
      <rect
         fill="#F1F1F1"
         height="45.2979"
         rx="2.5"
         ry="2.5"
         style="stroke:#181818;stroke-width:0.5;"
         width="78.7007"
         x="191.5"
         y="285.5986"
         id="rect11" />
      <text
         fill="#000000"
         font-family="Arial"
         font-size="11"
         lengthAdjust="spacing"
         textLength="58.7007"
         x="201.5"
         y="305.9165"
         id="text12">Touch/Tone</text>
      <text
         fill="#000000"
         font-family="Arial"
         font-size="11"
         lengthAdjust="spacing"
         textLength="29.9653"
         x="201.5"
         y="318.5654"
         id="text13">Inputs</text>
    </g>
    <!--entity SPI_SLAVE-->
    <g
       id="elem_SPI_SLAVE">
      <rect
         fill="#F1F1F1"
         height="45.2979"
         rx="2.5"
         ry="2.5"
         style="stroke:#181818;stroke-width:0.5;"
         width="68.3022"
         x="598"
         y="764.5986"
         id="rect13" />
      <text
         fill="#000000"
         font-family="Arial"
         font-size="11"
         lengthAdjust="spacing"
         textLength="48.3022"
         x="608"
         y="784.9165"
         id="text14">SPI Slave</text>
      <text
         fill="#000000"
         font-family="Arial"
         font-size="11"
         lengthAdjust="spacing"
         textLength="39.1069"
         x="608"
         y="797.5654"
         id="text15">(2 MHz)</text>
    </g>
    <!--entity WEB-->
    <g
       id="elem_WEB">
      <rect
         fill="#F1F1F1"
         height="45.2979"
         rx="2.5"
         ry="2.5"
         style="stroke:#181818;stroke-width:0.5;"
         width="88.4653"
         x="596"
         y="979.5986"
         id="rect15" />
      <text
         fill="#000000"
         font-family="Arial"
         font-size="11"
         lengthAdjust="spacing"
         textLength="39.7192"
         x="606"
         y="999.9165"
         id="text16">WiFi AP</text>
      <text
         fill="#000000"
         font-family="Arial"
         font-size="11"
         lengthAdjust="spacing"
         textLength="68.4653"
         x="606"
         y="1012.5654"
         id="text17">&amp; Web Server</text>
    </g>
    <!--entity GPIO_OUT-->
    <g
       id="elem_GPIO_OUT">
      <rect
         fill="#F1F1F1"
         height="45.2979"
         rx="2.5"
         ry="2.5"
         style="stroke:#181818;stroke-width:0.5;"
         width="86.0215"
         x="596"
         y="1111.5986"
         id="rect17" />
      <text
         fill="#000000"
         font-family="Arial"
         font-size="11"
         lengthAdjust="spacing"
         textLength="66.0215"
         x="606"
         y="1131.9165"
         id="text18">GPIO Control</text>
      <text
         fill="#000000"
         font-family="Arial"
         font-size="11"
         lengthAdjust="spacing"
         textLength="38.5215"
         x="606"
         y="1144.5654"
         id="text19">Outputs</text>
    </g>
    <!--entity SS-->
    <g
       id="elem_SS">
      <path
         d="M509.125,67.4243 C511.7759,62.261 516.0678,61.516 519.7997,66.2595 C522.8077,61.0573 526.1304,60.1078 530.7165,64.4555 C534.5407,58.5783 538.264,58.548 542.0513,64.491 C545.8315,59.9533 549.5582,59.1523 552.866,64.9837 C555.6772,58.1351 560.8746,57.5866 565.2319,63.4836 C568.9423,58.7603 573.1547,59.5782 575.3721,64.9789 C578.7947,58.2479 584.1324,59.2206 587.8468,64.6803 C592.1386,59.665 596.2475,59.7445 599.7976,65.5031 C603.6504,60.7976 607.277,62.2124 609.5213,67.1287 C613.0804,60.5981 617.2733,60.6086 621.5966,66.3784 C631.9255,70.8288 635.7977,76.7747 627.6862,86.7401 C635.249,95.4256 630.8184,103.3592 620.9418,105.9088 C619.1222,111.5286 615.8245,112.5683 611.3602,108.5334 C608.8307,114.8616 603.035,115.0865 599.204,109.9085 C595.8793,115.4993 591.9791,116.1521 587.9308,110.6435 C586.0958,116.6385 581.5088,117.1405 577.0551,113.6441 C572.97,119.5438 569.1293,119.1059 565.2858,113.3991 C560.5145,118.7802 556.7568,118.5816 552.8639,112.4512 C549.0353,117.5856 543.3462,117.0404 541.3348,110.6356 C537.097,115.2854 533.5122,114.2633 530.499,109.2608 C526.0514,114.6023 521.608,114.1467 518.8506,107.6042 C514.1979,113.2019 509.2016,110.923 507.2388,104.9133 C496.9293,101.2275 496.0921,95.1872 502.8155,87.2387 C494.5626,78.2821 497.565,70.0718 509.125,67.4243 "
         fill="#FFE4B5"
         style="stroke:#181818;stroke-width:0.5;"
         id="path19" />
      <text
         fill="#000000"
         font-family="Arial"
         font-size="11"
         lengthAdjust="spacing"
         textLength="14.6738"
         x="514"
         y="82.9165"
         id="text20">SS</text>
      <text
         fill="#000000"
         font-family="Arial"
         font-size="11"
         lengthAdjust="spacing"
         textLength="99.6445"
         x="514"
         y="95.5654"
         id="text21">(Sensor Subsystem)</text>
    </g>
    <!--entity MDPS-->
    <g
       id="elem_MDPS">
      <path
         d="M296.7069,59.7451 C299.776,53.7651 304.4691,55.223 307.6274,59.6516 C311.9608,52.9547 315.9029,52.311 320.5999,59.3071 C322.8354,53.1982 328.4115,51.8783 332.3112,57.6692 C335.1748,51.1726 341.4182,50.1554 345.284,56.6699 C349.3786,51.828 353.5102,52.3276 355.8682,58.3601 C359.6818,52.8857 364.5369,53.1452 367.823,58.9207 C371.0381,53.137 376.5665,52.4495 379.815,58.8879 C384.1432,53.047 387.7025,54.237 391.0676,59.8353 C397.535,62.8952 399.1336,67.3047 393.318,72.5403 C400.454,75.4316 400.2038,81.9086 394.2534,85.7281 C399.5395,89.8901 400.1552,94.5098 393.9147,98.3628 C398.5343,102.635 398.4529,108.8355 391.7894,111.2464 C389.24,117.7448 384.0527,118.1727 379.2133,113.9269 C376.3264,118.2959 372.5487,119.718 369.0735,114.5525 C367.222,121.3817 360.7597,122.849 355.8379,118.0461 C351.8758,124.6198 347.6182,123.9697 343.2143,118.5096 C338.9264,122.4326 335.4589,122.1453 332.363,117.0719 C328.7021,121.7819 324.0407,121.2827 320.9969,116.3449 C316.0974,121.2683 311.4296,119.1868 309.3488,113.3061 C305.8161,118.3545 300.2714,119.5109 296.9884,113.0382 C288.4083,109.828 289.579,105.2301 294.0828,99.2606 C286.0973,95.6295 285.3562,91.1613 291.6814,85.1029 C286.5911,80.2113 288.0722,76.5855 293.4472,73.2534 C287.7077,67.4295 289.8535,62.5302 296.7069,59.7451 "
         fill="#E0FFE0"
         style="stroke:#181818;stroke-width:0.5;"
         id="path21" />
      <text
         fill="#000000"
         font-family="Arial"
         font-size="11"
         lengthAdjust="spacing"
         textLength="31.7808"
         x="302.5"
         y="76.4165"
         id="text22">MDPS</text>
      <text
         fill="#000000"
         font-family="Arial"
         font-size="11"
         lengthAdjust="spacing"
         textLength="70.8984"
         x="302.5"
         y="89.0654"
         id="text23">(Motor Drive &amp;</text>
      <text
         fill="#000000"
         font-family="Arial"
         font-size="11"
         lengthAdjust="spacing"
         textLength="81.3184"
         x="302.5"
         y="101.7144"
         id="text24">Dead-reckoning)</text>
    </g>
    <!--entity HUB-->
    <g
       id="elem_HUB">
      <path
         d="M91.5,68.0986 C91.5,58.0986 137.8677,58.0986 137.8677,58.0986 C137.8677,58.0986 184.2354,58.0986 184.2354,68.0986 L184.2354,102.3965 C184.2354,112.3965 137.8677,112.3965 137.8677,112.3965 C137.8677,112.3965 91.5,112.3965 91.5,102.3965 L91.5,68.0986 "
         fill="#E8F4F8"
         style="stroke:#181818;stroke-width:0.5;"
         id="path24" />
      <path
         d="M91.5,68.0986 C91.5,78.0986 137.8677,78.0986 137.8677,78.0986 C137.8677,78.0986 184.2354,78.0986 184.2354,68.0986 "
         fill="none"
         style="stroke:#181818;stroke-width:0.5;"
         id="path25" />
      <text
         fill="#000000"
         font-family="Arial"
         font-size="11"
         lengthAdjust="spacing"
         textLength="23.2246"
         x="101.5"
         y="92.4165"
         id="text25">HUB</text>
      <text
         fill="#000000"
         font-family="Arial"
         font-size="11"
         lengthAdjust="spacing"
         textLength="72.7354"
         x="101.5"
         y="105.0654"
         id="text26">(Test Harness)</text>
    </g>
    <!--entity OP1-->
    <g
       id="elem_OP1">
      <ellipse
         cx="30.1431"
         cy="51.0986"
         fill="#F1F1F1"
         rx="8"
         ry="8"
         style="stroke:#181818;stroke-width:0.5;"
         id="ellipse26" />
      <path
         d="M30.1431,59.0986 L30.1431,86.0986 M17.1431,67.0986 L43.1431,67.0986 M30.1431,86.0986 L17.1431,101.0986 M30.1431,86.0986 L43.1431,101.0986 "
         fill="none"
         style="stroke:#181818;stroke-width:0.5;"
         id="path26" />
      <text
         fill="#000000"
         font-family="Arial"
         font-size="11"
         lengthAdjust="spacing"
         textLength="43.4092"
         x="6"
         y="112.9165"
         id="text27">Operator</text>
      <text
         fill="#000000"
         font-family="Arial"
         font-size="11"
         lengthAdjust="spacing"
         textLength="48.2861"
         x="6"
         y="125.5654"
         id="text28">(Physical)</text>
    </g>
    <!--entity OP2-->
    <g
       id="elem_OP2">
      <ellipse
         cx="518.9211"
         cy="753.0986"
         fill="#F1F1F1"
         rx="8"
         ry="8"
         style="stroke:#181818;stroke-width:0.5;"
         id="ellipse28" />
      <path
         d="M518.9211,761.0986 L518.9211,788.0986 M505.9211,769.0986 L531.9211,769.0986 M518.9211,788.0986 L505.9211,803.0986 M518.9211,788.0986 L531.9211,803.0986 "
         fill="none"
         style="stroke:#181818;stroke-width:0.5;"
         id="path28" />
      <text
         fill="#000000"
         font-family="Arial"
         font-size="11"
         lengthAdjust="spacing"
         textLength="43.4092"
         x="496"
         y="814.9165"
         id="text29">Operator</text>
      <text
         fill="#000000"
         font-family="Arial"
         font-size="11"
         lengthAdjust="spacing"
         textLength="45.8423"
         x="496"
         y="827.5654"
         id="text30">(Remote)</text>
    </g>
    <g
       id="elem_GMN30">
      <path
         d="M664,48.5986 L664,121.8433 L926.4951,121.8433 L926.4951,58.5986 L916.4951,48.5986 L664,48.5986 "
         fill="#FEFFDD"
         style="stroke:#181818;stroke-width:0.5;"
         id="path30" />
      <path
         d="M916.4951,48.5986 L916.4951,58.5986 L926.4951,58.5986 L916.4951,48.5986 "
         fill="#FEFFDD"
         style="stroke:#181818;stroke-width:1.0;"
         id="path31" />
      <text
         fill="#000000"
         font-family="Arial"
         font-size="11"
         font-weight="bold"
         lengthAdjust="spacing"
         textLength="119.2114"
         x="670"
         y="63.9165"
         id="text31">Main ESP32 Hardware:</text>
      <text
         fill="#000000"
         font-family="Arial"
         font-size="11"
         lengthAdjust="spacing"
         textLength="126.5537"
         x="670"
         y="76.5654"
         id="text32">UART SS: RX=21, TX=22</text>
      <text
         fill="#000000"
         font-family="Arial"
         font-size="11"
         lengthAdjust="spacing"
         textLength="143.6606"
         x="670"
         y="89.2144"
         id="text33">UART MDPS: RX=16, TX=17</text>
      <text
         fill="#000000"
         font-family="Arial"
         font-size="11"
         lengthAdjust="spacing"
         textLength="241.4951"
         x="670"
         y="101.8633"
         id="text34">SPI Master: CS=5, SCK=18, MOSI=23, MISO=19</text>
      <text
         fill="#000000"
         font-family="Arial"
         font-size="11"
         lengthAdjust="spacing"
         textLength="195.6421"
         x="670"
         y="114.5122"
         id="text35">GPIO: Touch sensor, Microphone (tone)</text>
    </g>
    <g
       id="elem_GMN33">
      <path
         d="M598,497.5986 L598,558.1943 L818.3105,558.1943 L818.3105,507.5986 L808.3105,497.5986 L598,497.5986 "
         fill="#FEFFDD"
         style="stroke:#181818;stroke-width:0.5;"
         id="path35" />
      <path
         d="M808.3105,497.5986 L808.3105,507.5986 L818.3105,507.5986 L808.3105,497.5986 "
         fill="#FEFFDD"
         style="stroke:#181818;stroke-width:1.0;"
         id="path36" />
      <text
         fill="#000000"
         font-family="Arial"
         font-size="11"
         font-weight="bold"
         lengthAdjust="spacing"
         textLength="117.3691"
         x="604"
         y="512.9165"
         id="text36">WiFi ESP32 Hardware:</text>
      <text
         fill="#000000"
         font-family="Arial"
         font-size="11"
         lengthAdjust="spacing"
         textLength="132.6499"
         x="604"
         y="525.5654"
         id="text37">SPI Slave: CS, SCK, MISO</text>
      <text
         fill="#000000"
         font-family="Arial"
         font-size="11"
         lengthAdjust="spacing"
         textLength="199.3105"
         x="604"
         y="538.2144"
         id="text38">GPIO Out: Pins 4, 2, 15 (to Main ESP32)</text>
      <text
         fill="#000000"
         font-family="Arial"
         font-size="11"
         lengthAdjust="spacing"
         textLength="169.3774"
         x="604"
         y="550.8633"
         id="text39">WiFi: Integrated 802.11 b/g/n radio</text>
    </g>
    <g
       id="elem_GMN36">
      <path
         d="M243,693.5986 L243,880.6836 A0,0 0 0 0 243,880.6836 L460.8345,880.6836 A0,0 0 0 0 460.8345,880.6836 L460.8345,703.5986 L450.8345,693.5986 L356,693.5986 L352,551.0086 L348,693.5986 L243,693.5986 A0,0 0 0 0 243,693.5986 "
         fill="#FEFFDD"
         style="stroke:#181818;stroke-width:0.5;"
         id="path39" />
      <path
         d="M450.8345,693.5986 L450.8345,703.5986 L460.8345,703.5986 L450.8345,693.5986 "
         fill="#FEFFDD"
         style="stroke:#181818;stroke-width:0.5;"
         id="path40" />
      <text
         fill="#000000"
         font-family="Arial"
         font-size="11"
         font-weight="bold"
         lengthAdjust="spacing"
         textLength="121.0645"
         x="249"
         y="708.9165"
         id="text40">SPI Telemetry Packets:</text>
      <text
         fill="#000000"
         font-family="Arial"
         font-size="11"
         lengthAdjust="spacing"
         textLength="196.8345"
         x="249"
         y="721.5654"
         id="text41">1. System State (IDLE/CAL/MAZE/SOS)</text>
      <text
         fill="#000000"
         font-family="Arial"
         font-size="11"
         lengthAdjust="spacing"
         textLength="139.9976"
         x="249"
         y="734.2144"
         id="text42">2. Sensor Colors (3 sensors)</text>
      <text
         fill="#000000"
         font-family="Arial"
         font-size="11"
         lengthAdjust="spacing"
         textLength="101.4116"
         x="249"
         y="746.8633"
         id="text43">3. Incidence Angle θᵢ</text>
      <text
         fill="#000000"
         font-family="Arial"
         font-size="11"
         lengthAdjust="spacing"
         textLength="137.5645"
         x="249"
         y="759.5122"
         id="text44">4. Wheel Speeds (v_L, v_R)</text>
      <text
         fill="#000000"
         font-family="Arial"
         font-size="11"
         lengthAdjust="spacing"
         textLength="106.9976"
         x="249"
         y="772.1611"
         id="text45">5. Rotation Command</text>
      <text
         fill="#000000"
         font-family="Arial"
         font-size="11"
         lengthAdjust="spacing"
         textLength="111.2837"
         x="249"
         y="784.8101"
         id="text46">6. Distance Since Stop</text>
      <text
         fill="#000000"
         font-family="Arial"
         font-size="11"
         lengthAdjust="spacing"
         textLength="88.0322"
         x="249"
         y="797.459"
         id="text47">7. NAVCON State</text>
      <text
         fill="#000000"
         font-family="Arial"
         font-size="11"
         lengthAdjust="spacing"
         textLength="116.7944"
         x="249"
         y="810.1079"
         id="text48">8. Line Detection Status</text>
      <text
         fill="#000000"
         font-family="Arial"
         font-size="11"
         lengthAdjust="spacing"
         textLength="59.3022"
         x="249"
         y="822.7568"
         id="text49">9. EoM Flag</text>
      <text
         fill="#000000"
         font-family="Arial"
         font-size="11"
         lengthAdjust="spacing"
         textLength="129.0083"
         x="249"
         y="835.4058"
         id="text50">10. Communication Status</text>
      <text
         fill="#000000"
         font-family="Arial"
         font-size="11"
         lengthAdjust="spacing"
         textLength="106.9976"
         x="249"
         y="848.0547"
         id="text51">11. Diagnostic Strings</text>
      <text
         fill="#000000"
         font-family="Arial"
         font-size="11"
         lengthAdjust="spacing"
         textLength="126.5859"
         x="249"
         y="860.7036"
         id="text52">12. State Announcements</text>
      <text
         fill="#000000"
         font-family="Arial"
         font-size="11"
         lengthAdjust="spacing"
         textLength="105.1714"
         x="249"
         y="873.3525"
         id="text53">13. Timing/Loop Data</text>
    </g>
    <!--link SS to SCS_MAIN-->
    <g
       id="link_SS_SCS_MAIN">
      <path
         d="M557.43,112.7186 C548.7,141.8886 530.23,187.4786 496,209.5986 C477.28,221.6986 414.6,205.3186 396,217.5986 C372.57,233.0686 361.7302,258.3929 355.6402,279.5429 "
         fill="none"
         id="SS-to-SCS_MAIN"
         style="stroke:#181818;stroke-width:1.0;" />
      <polygon
         fill="#181818"
         points="353.98,285.3086,360.3141,277.7668,355.3635,280.5039,352.6265,275.5532,353.98,285.3086"
         style="stroke:#181818;stroke-width:1.0;"
         id="polygon53" />
      <text
         fill="#000000"
         font-family="Arial"
         font-size="11"
         font-weight="bold"
         lengthAdjust="spacing"
         textLength="48.8877"
         x="564.1001"
         y="175.4165"
         id="text54">UART RX</text>
      <text
         fill="#000000"
         font-family="Arial"
         font-size="11"
         lengthAdjust="spacing"
         textLength="58.1152"
         x="559.4863"
         y="188.0654"
         id="text55">19200 baud</text>
      <text
         fill="#000000"
         font-family="Arial"
         font-size="11"
         lengthAdjust="spacing"
         textLength="97.0879"
         x="540"
         y="200.7144"
         id="text56">COLOURS, θᵢ, EoM</text>
    </g>
    <!--link MDPS to SCS_MAIN-->
    <g
       id="link_MDPS_SCS_MAIN">
      <path
         d="M364.95,119.2686 C371.45,130.8986 377.7,144.3686 381,157.5986 C392.27,202.7986 375.5252,250.823 362.3152,279.993 "
         fill="none"
         id="MDPS-to-SCS_MAIN"
         style="stroke:#181818;stroke-width:1.0;" />
      <polygon
         fill="#181818"
         points="359.84,285.4586,367.1966,278.9103,361.9027,280.9039,359.909,275.61,359.84,285.4586"
         style="stroke:#181818;stroke-width:1.0;"
         id="polygon56" />
      <text
         fill="#000000"
         font-family="Arial"
         font-size="11"
         font-weight="bold"
         lengthAdjust="spacing"
         textLength="48.8877"
         x="411.595"
         y="168.9165"
         id="text57">UART RX</text>
      <text
         fill="#000000"
         font-family="Arial"
         font-size="11"
         lengthAdjust="spacing"
         textLength="58.1152"
         x="406.9812"
         y="181.5654"
         id="text58">19200 baud</text>
      <text
         fill="#000000"
         font-family="Arial"
         font-size="11"
         lengthAdjust="spacing"
         textLength="102.0776"
         x="385"
         y="194.2144"
         id="text59">SPEED, DISTANCE,</text>
      <text
         fill="#000000"
         font-family="Arial"
         font-size="11"
         lengthAdjust="spacing"
         textLength="56.8315"
         x="407.623"
         y="206.8633"
         id="text60">ROTATION</text>
    </g>
    <!--link SCS_MAIN to MDPS-->
    <g
       id="link_SCS_MAIN_MDPS">
      <path
         d="M338.26,285.2486 C327.68,265.5386 309.95,236.7786 288,217.5986 C282.01,212.3686 276.18,216.3586 272,209.5986 C259.85,189.9386 263.19,178.9686 272,157.5986 C277.93,143.2086 284.0465,134.3902 295.0765,123.5202 "
         fill="none"
         id="SCS_MAIN-to-MDPS"
         style="stroke:#181818;stroke-width:1.0;" />
      <polygon
         fill="#181818"
         points="299.35,119.3086,290.132,122.7769,295.7887,122.8182,295.7474,128.4749,299.35,119.3086"
         style="stroke:#181818;stroke-width:1.0;"
         id="polygon60" />
      <text
         fill="#000000"
         font-family="Arial"
         font-size="11"
         font-weight="bold"
         lengthAdjust="spacing"
         textLength="47.6631"
         x="298.6953"
         y="168.9165"
         id="text61">UART TX</text>
      <text
         fill="#000000"
         font-family="Arial"
         font-size="11"
         lengthAdjust="spacing"
         textLength="58.1152"
         x="293.4692"
         y="181.5654"
         id="text62">19200 baud</text>
      <text
         fill="#000000"
         font-family="Arial"
         font-size="11"
         lengthAdjust="spacing"
         textLength="86.2114"
         x="279.4211"
         y="194.2144"
         id="text63">v_L, v_R, rotation</text>
      <text
         fill="#000000"
         font-family="Arial"
         font-size="11"
         lengthAdjust="spacing"
         textLength="99.0537"
         x="273"
         y="206.8633"
         id="text64">IST=3, DEC=0/1/2/3</text>
    </g>
    <!--link HUB to SCS_MAIN-->
    <g
       id="link_HUB_SCS_MAIN"
       transform="translate(-12.610957)">
      <path
         d="m 132.2687,118.0575 c -3.73,28.4 -3.6287,67.1311 22.7313,91.5411 21.72,20.12 107.25,-6.62 133,8 26.33,14.95 41.2878,40.9832 50.5278,62.3432"
         fill="none"
         id="HUB-SCS_MAIN"
         style="stroke:#181818;stroke-width:1" />
      <polygon
         fill="#181818"
         points="127.9121,120.5111 132.3989,117.0661 135.844,121.5529 133.05,112.1086 "
         style="stroke:#181818;stroke-width:1"
         id="polygon64" />
      <polygon
         fill="#181818"
         points="341.008,275.6003 338.9249,280.8596 333.6655,278.7765 340.91,285.4486 "
         style="stroke:#181818;stroke-width:1"
         id="polygon65" />
      <text
         fill="#000000"
         font-family="Arial"
         font-size="11px"
         font-weight="bold"
         lengthAdjust="spacing"
         textLength="64.8022"
         x="173.11771"
         y="181.4165"
         id="text65">QTP Frames</text>
      <text
         fill="#000000"
         font-family="Arial"
         font-size="11px"
         lengthAdjust="spacing"
         textLength="99.037598"
         x="156"
         y="194.0654"
         id="text66">Emulated SS/MDPS</text>
    </g>
    <!--link OP1 to INPUTS-->
    <g
       id="link_OP1_INPUTS">
      <path
         d="M18,127.8086 C13.18,153.3186 11.85,185.5586 27,209.5986 C63.01,266.7086 136.8404,289.8928 185.2704,299.7428 "
         fill="none"
         id="OP1-to-INPUTS"
         style="stroke:#181818;stroke-width:1.0;" />
      <polygon
         fill="#181818"
         points="191.15,300.9386,183.1278,295.2251,186.2503,299.9421,181.5333,303.0646,191.15,300.9386"
         style="stroke:#181818;stroke-width:1.0;"
         id="polygon66" />
      <text
         fill="#000000"
         font-family="Arial"
         font-size="11"
         lengthAdjust="spacing"
         textLength="66.6445"
         x="28"
         y="181.4165"
         id="text67">Touch sensor</text>
      <text
         fill="#000000"
         font-family="Arial"
         font-size="11"
         lengthAdjust="spacing"
         textLength="65.436"
         x="28.6042"
         y="194.0654"
         id="text68">2800 Hz tone</text>
    </g>
    <!--link INPUTS to CORE-->
    <g
       id="link_INPUTS_CORE">
      <path
         d="M254.83,330.6486 C274.56,348.4986 298.0196,369.7145 317.7496,387.5545 "
         fill="none"
         id="INPUTS-to-CORE"
         style="stroke:#181818;stroke-width:1.0;" />
      <polygon
         fill="#181818"
         points="322.2,391.5786,318.2071,382.5755,318.4913,388.2252,312.8416,388.5094,322.2,391.5786"
         style="stroke:#181818;stroke-width:1.0;"
         id="polygon68" />
    </g>
    <!--link SCS_MAIN to CORE-->
    <g
       id="link_SCS_MAIN_CORE">
      <path
         d="M348.2053,336.6461 C347.6853,354.4961 347.3148,367.7412 346.7948,385.5812 "
         fill="none"
         id="SCS_MAIN-CORE"
         style="stroke:#181818;stroke-width:1.0;" />
      <polygon
         fill="#181818"
         points="348.38,330.6486,344.1196,339.5283,348.2344,335.6465,352.1162,339.7613,348.38,330.6486"
         style="stroke:#181818;stroke-width:1.0;"
         id="polygon69" />
      <polygon
         fill="#181818"
         points="346.62,391.5786,350.8805,382.699,346.7657,386.5808,342.8839,382.4659,346.62,391.5786"
         style="stroke:#181818;stroke-width:1.0;"
         id="polygon70" />
    </g>
    <!--link CORE to SPI_MASTER-->
    <g
       id="link_CORE_SPI_MASTER">
      <path
         d="M347.16,436.6886 C348.22,456.5286 349.4694,479.7672 350.5294,499.5772 "
         fill="none"
         id="CORE-to-SPI_MASTER"
         style="stroke:#181818;stroke-width:1.0;" />
      <polygon
         fill="#181818"
         points="350.85,505.5686,354.3634,496.3678,350.5828,500.5758,346.3748,496.7952,350.85,505.5686"
         style="stroke:#181818;stroke-width:1.0;"
         id="polygon71" />
    </g>
    <!--link SPI_MASTER to SPI_SLAVE-->
    <g
       id="link_SPI_MASTER_SPI_SLAVE"
       transform="matrix(0.91233022,0,0,1.0173968,33.659972,-9.6043623)">
      <path
         d="m 383.88,550.6486 c 42.57,29.57 119.21,85.6 176.12,142.95 22.07,22.25 40.2089,46.2849 53.8889,65.8249"
         fill="none"
         id="SPI_MASTER-to-SPI_SLAVE"
         style="stroke:#181818;stroke-width:1" />
      <polygon
         fill="#181818"
         points="615.4451,754.6718 614.4624,760.2427 608.8916,759.26 617.33,764.3386 "
         style="stroke:#181818;stroke-width:1"
         id="polygon72" />
      <text
         fill="#000000"
         font-family="Arial"
         font-size="11px"
         font-weight="bold"
         lengthAdjust="spacing"
         textLength="41.566898"
         x="545.10303"
         y="609.9165"
         id="text72">SPI Bus</text>
      <text
         fill="#000000"
         font-family="Arial"
         font-size="11px"
         lengthAdjust="spacing"
         textLength="59.898399"
         x="535.93732"
         y="622.56543"
         id="text73">2 MHz clock</text>
      <text
         fill="#000000"
         font-family="Arial"
         font-size="11px"
         lengthAdjust="spacing"
         textLength="77.053703"
         x="527.35962"
         y="635.21442"
         id="text74">200 Hz updates</text>
      <text
         fill="#000000"
         font-family="Arial"
         font-size="11px"
         lengthAdjust="spacing"
         textLength="83.772903"
         x="524"
         y="647.86328"
         id="text75">257-byte packets</text>
      <text
         fill="#000000"
         font-family="Arial"
         font-size="11px"
         lengthAdjust="spacing"
         textLength="83.472198"
         x="524.15039"
         y="660.51221"
         id="text76">13+ packet types</text>
    </g>
    <!--link SPI_SLAVE to WEB-->
    <g
       id="link_SPI_SLAVE_WEB"
       transform="translate(4.2036523)">
      <path
         d="m 632.81,809.6986 c 1.53,40.82 4.6141,122.8843 6.1541,163.7543"
         fill="none"
         id="SPI_SLAVE-to-WEB"
         style="stroke:#181818;stroke-width:1" />
      <polygon
         fill="#181818"
         points="642.8483,970.3044 639.0017,974.4522 634.854,970.6056 639.19,979.4486 "
         style="stroke:#181818;stroke-width:1"
         id="polygon76" />
      <text
         fill="#000000"
         font-family="Arial"
         font-size="11px"
         lengthAdjust="spacing"
         textLength="48.898399"
         x="638"
         y="927.9165"
         id="text77">Telemetry</text>
      <text
         fill="#000000"
         font-family="Arial"
         font-size="11px"
         lengthAdjust="spacing"
         textLength="23.235399"
         x="650.83148"
         y="940.56543"
         id="text78">Data</text>
    </g>
    <!--link WEB to OP2-->
    <g
       id="link_WEB_OP2">
      <path
         d="M595.72,986.3186 C577.94,978.1886 558.88,966.2886 547,949.5986 C522.09,914.5886 516.8405,870.6886 516.7205,835.6486 "
         fill="none"
         id="WEB-to-OP2"
         style="stroke:#181818;stroke-width:1.0;" />
      <polygon
         fill="#181818"
         points="516.7,829.6486,512.7308,838.6623,516.7171,834.6486,520.7308,838.6349,516.7,829.6486"
         style="stroke:#181818;stroke-width:1.0;"
         id="polygon78" />
      <text
         fill="#000000"
         font-family="Arial"
         font-size="11"
         font-weight="bold"
         lengthAdjust="spacing"
         textLength="54.9893"
         x="560.2488"
         y="921.9165"
         id="text79">WiFi/HTTP</text>
      <text
         fill="#000000"
         font-family="Arial"
         font-size="11"
         lengthAdjust="spacing"
         textLength="79.4868"
         x="548"
         y="934.5654"
         id="text80">Web Dashboard</text>
      <text
         fill="#000000"
         font-family="Arial"
         font-size="11"
         lengthAdjust="spacing"
         textLength="70.936"
         x="552.2754"
         y="947.2144"
         id="text81">10 Hz updates</text>
    </g>
    <!--link OP2 to WEB-->
    <g
       id="link_OP2_WEB">
      <path
         d="M501.8,829.8686 C494.98,845.8686 486.9,864.2086 479,880.5986 C472.44,894.2086 466.66,895.9386 463,910.5986 C458.8,927.4186 452.6,935.7386 463,949.5986 C478.94,970.8486 542.7185,985.1617 589.7485,993.3317 "
         fill="none"
         id="OP2-to-WEB"
         style="stroke:#181818;stroke-width:1.0;stroke-dasharray:7.0,7.0;" />
      <polygon
         fill="#181818"
         points="595.66,994.3586,587.4774,988.8773,590.7338,993.5029,586.1082,996.7592,595.66,994.3586"
         style="stroke:#181818;stroke-width:1.0;"
         id="polygon81" />
      <text
         fill="#000000"
         font-family="Arial"
         font-size="11"
         lengthAdjust="spacing"
         textLength="40.3423"
         x="471.9492"
         y="927.9165"
         id="text82">Browser</text>
      <text
         fill="#000000"
         font-family="Arial"
         font-size="11"
         lengthAdjust="spacing"
         textLength="56.2407"
         x="464"
         y="940.5654"
         id="text83">Commands</text>
    </g>
    <!--link WEB to GPIO_OUT-->
    <g
       id="link_WEB_GPIO_OUT">
      <path
         d="M639.83,1024.8586 C639.65,1048.8586 639.3949,1081.2388 639.2149,1105.2688 "
         fill="none"
         id="WEB-to-GPIO_OUT"
         style="stroke:#181818;stroke-width:1.0;stroke-dasharray:7.0,7.0;" />
      <polygon
         fill="#181818"
         points="639.17,1111.2686,643.2373,1102.2988,639.2075,1106.2688,635.2375,1102.2389,639.17,1111.2686"
         style="stroke:#181818;stroke-width:1.0;"
         id="polygon83" />
      <text
         fill="#000000"
         font-family="Arial"
         font-size="11"
         lengthAdjust="spacing"
         textLength="38.5161"
         x="640"
         y="1065.9165"
         id="text84">Remote</text>
      <text
         fill="#000000"
         font-family="Arial"
         font-size="11"
         lengthAdjust="spacing"
         textLength="35.46"
         x="641.5281"
         y="1078.5654"
         id="text85">Control</text>
    </g>
    <!--link GPIO_OUT to INPUTS-->
    <g
       id="link_GPIO_OUT_INPUTS">
      <path
         d="M595.95,1129.8686 C483.57,1120.2486 190,1087.0886 190,1003.0986 C190,413.0986 190,413.0986 190,413.0986 C190,383.0186 202.0144,356.4257 213.8744,336.0257 "
         fill="none"
         id="GPIO_OUT-to-INPUTS"
         style="stroke:#181818;stroke-width:1.0;stroke-dasharray:7.0,7.0;" />
      <polygon
         fill="#181818"
         points="216.89,330.8386,208.9085,336.6089,214.377,335.1612,215.8246,340.6297,216.89,330.8386"
         style="stroke:#181818;stroke-width:1.0;"
         id="polygon85" />
      <text
         fill="#000000"
         font-family="Arial"
         font-size="11"
         font-weight="bold"
         lengthAdjust="spacing"
         textLength="62.353"
         x="217.9146"
         y="628.9165"
         id="text86">GPIO 3-wire</text>
      <text
         fill="#000000"
         font-family="Arial"
         font-size="11"
         lengthAdjust="spacing"
         textLength="116.1821"
         x="191"
         y="641.5654"
         id="text87">Touch/Tone/Send inject</text>
    </g>
    <!--link GMN30 to MAIN-->
    <g
       id="link_GMN30_MAIN">
      <path
         d="M758,121.6786 C729.11,148.1986 687.11,184.0886 646,209.5986 C601.445,237.2536 547.6975,261.3061 504.5988,278.6024 C483.0494,287.2505 464.1622,294.2096 450.4173,299.0854 C446.9811,300.3043 443.8663,301.393 441.1117,302.3454 C439.7343,302.8216 438.447,303.2637 437.2546,303.6709 C436.6584,303.8746 436.0859,304.0695 435.5378,304.2555 C435.4007,304.3021 435.2652,304.348 435.1312,304.3935 "
         fill="none"
         id="GMN30-MAIN"
         style="stroke:#181818;stroke-width:1.0;stroke-dasharray:7.0,7.0;" />
    </g>
    <!--link GMN33 to WIFI-->
    <g
       id="link_GMN33_WIFI">
      <path
         d="M708,558.8286 C708,592.1286 708,647.7036 708,695.5599 C708,698.5509 708,701.5118 708,704.4352 C708,705.8968 708,707.3492 708,708.7912 C708,709.5122 708,710.2307 708,710.9465 C708,711.3043 708,711.6615 708,712.0181 "
         fill="none"
         id="GMN33-WIFI"
         style="stroke:#181818;stroke-width:1.0;stroke-dasharray:7.0,7.0;" />
    </g>
    <!--SRC=[ZLRXRk964FxlfnZbf6j22M18Shdeg4ICQQm2TbddScgfeiNU45_CBl8kIPEgBzDtgDIdw3lqJJgp1WD9VpG_KBppxSotttupjdx8v98NV04pdZpC2xMIgQToLS2xWVrpT8L8r6Aff926cUTSG24Im-Ky5piGVSzJzPJ9ETpnNEz6Kd77LxaPA6d6V26WLsGy_-yuoru4kEvEi2frgOfK56k27VldE2OpI8UDFV1_DQAGF8T0uZztF14Qk4pBn-DHbXGgmGA5odDHWASMYvNC4cuo9Htdc-rslPhfPst4GZj9hbOf730sbOTCI8s5sIPwT01S0sEabNzoURe1Z_eHmKVA8BfVP8y2tazbN_3q64_oe2GALEub9BppMxY_vQJSy1dN0WwkhYznVooqWIjUIA5r2STrH9yFJWRd3aye-q6u50N7_n0VtJzhF4rUOiF8fJEDU2R1Pr6dxLGg8iDg5VTvfIGGeJfOIXLhRhrWZDNE_BD13tvpO7l_y3Fp6C4DofbFvHLgZ8B-OjNms2tjV8Ktt0Za8lbS8DNtCEvzziAntU654_yLEWeGYmhJgTemkdevAdD70UPciJ_PnyTgbTmtOtoQoa0kLqPRU32EhcFc_4uot6I3xAqCsrKhTouMmXJFhuMu2GP1sGv-wuqGI9Nb_56yPSg6lS-l3cRhzI8Iu4RCW8dYSItRZN-v3_q-2a9OtynKXYjJ7OiYj-5rJ0TxQuA9M2WZDXPexzdQg5qxe6-FZx-hBWmke5QxxarYc7ofrQRI_TXkjN0ghDAfzC9XU3rXTVZxht_-_ACElXevrhh_Dm6BVBzVXtx0ujxOy-jJEGdZNXo4OwVQJhbiqYfF_2RFu-sm3e-tapgW-MpVuespkDl1tBxNRJNTPhlPSQXFFhtXzcCSmG37YT2Krb-iSZHbYltRfB8EDepbKDe6TrXRWRPDFvNjSsHnzO8YIa6gsfb2gkv8kjvAMQohg_AVgYNwAMNRcddJfdW_EpxT0YgyjPGz2_dkScKFOcq7E7gI1tmeIQwME4o4nkVJ3yUpP-oz9OvtON35xNoxVW3pl1Hwlpk8myPDphOa4K2BaYYRBi61XlFAeLMAejSiCKhLl8hZYAYHoVjStyyKB_3st5rkLBSqAzb-WID4stUGGvaQZKszoq8zQHe4tXfaAr9yqmS8AlCGnlQBKuK8LzrdhMQRgdFyb1M2w6tdHXD7UmgP_8gpmN4aaJ9g2UeErhEiLjjUCytaz8aNug9Mmv2rAcF8uaktxTRHjTrsUxDEph8Hzyn6t0yOsSwt2_1OzxIEFlsXwvxNOHIoeDj6Duy25dRTZmWcpljUn2YzoPRtI1mEoOz73j4dsllaQN9PyZiNl4- -cb_4nF8eQwyB0mwU2uWogU6a3kqwkATKSSVpHuYax1Us8UQ5RQdpLhlXkZ1hpfiI2fvcwZN1cJ96BOZZtb0lZRqpYKlNbbpT1Z3xteNoTN8Oz8T-q-iDcwFUJtwJXOp8j15LlgVjPuA6myvQDqtXJWE99bagP88V8VOrO8SQXauQS7ClH0viAGIwyN0pRMZVQGCcwv43QolYwba3-fd6rmacOvdzHUanyA6nViMLN77bl07332-iBmoQZD9GPAKnzB514nK6EP_JCLkD_K-JBT1rgHwVIwLDbk1wWLyIDa2djgBqfCHlk0JrayP6yC1nja1SSwZG5RPfgylu5m00]-->
  </g>
</svg>
