<?xml version="1.0" encoding="us-ascii" standalone="no"?><svg xmlns="http://www.w3.org/2000/svg" xmlns:xlink="http://www.w3.org/1999/xlink" contentStyleType="text/css" height="1282px" preserveAspectRatio="none" style="width:3216px;height:1282px;background:#FFFFFF;" version="1.1" viewBox="0 0 3216 1282" width="3216px" zoomAndPan="magnify"><defs/><g><text fill="#000000" font-family="sans-serif" font-size="14" font-weight="bold" lengthAdjust="spacing" textLength="294" x="1459.75" y="34.5332">Pure Tone Detection - State Machine Flow</text><ellipse cx="1637.75" cy="58.6094" fill="#222222" rx="10" ry="10" style="stroke:#222222;stroke-width:1.0;"/><path d="M1745.25,84.8047 L1745.25,102.1563 L1725.25,106.1563 L1745.25,110.1563 L1745.25,127.5078 A0,0 0 0 0 1745.25,127.5078 L1946.25,127.5078 A0,0 0 0 0 1946.25,127.5078 L1946.25,94.8047 L1936.25,84.8047 L1745.25,84.8047 A0,0 0 0 0 1745.25,84.8047 " fill="#FEFFDD" style="stroke:#181818;stroke-width:0.5;"/><path d="M1936.25,84.8047 L1936.25,94.8047 L1946.25,94.8047 L1936.25,84.8047 " fill="#FEFFDD" style="stroke:#181818;stroke-width:0.5;"/><text fill="#000000" font-family="sans-serif" font-size="13" lengthAdjust="spacing" textLength="180" x="1751.25" y="103.2998">Called every main loop iteration</text><text fill="#000000" font-family="sans-serif" font-size="13" lengthAdjust="spacing" textLength="156" x="1751.25" y="119.6514">Monitors GPIO 36 ADC pin</text><rect fill="#F1F1F1" height="35.0938" rx="12.5" ry="12.5" style="stroke:#181818;stroke-width:0.5;" width="175" x="1550.25" y="88.6094"/><text fill="#000000" font-family="sans-serif" font-size="12" lengthAdjust="spacing" textLength="155" x="1560.25" y="111.0664">checkPureToneADC() called</text><path d="M1741.25,143.7031 L1741.25,161.0547 L1721.25,165.0547 L1741.25,169.0547 L1741.25,186.4063 A0,0 0 0 0 1741.25,186.4063 L1891.25,186.4063 A0,0 0 0 0 1891.25,186.4063 L1891.25,153.7031 L1881.25,143.7031 L1741.25,143.7031 A0,0 0 0 0 1741.25,143.7031 " fill="#FEFFDD" style="stroke:#181818;stroke-width:0.5;"/><path d="M1881.25,143.7031 L1881.25,153.7031 L1891.25,153.7031 L1881.25,143.7031 " fill="#FEFFDD" style="stroke:#181818;stroke-width:0.5;"/><text fill="#000000" font-family="sans-serif" font-size="13" lengthAdjust="spacing" textLength="110" x="1747.25" y="162.1982">12-bit ADC: 0-4095</text><text fill="#000000" font-family="sans-serif" font-size="13" lengthAdjust="spacing" textLength="129" x="1747.25" y="178.5498">With 11dB attenuation</text><rect fill="#F1F1F1" height="35.0938" rx="12.5" ry="12.5" style="stroke:#181818;stroke-width:0.5;" width="167" x="1554.25" y="147.5078"/><text fill="#000000" font-family="sans-serif" font-size="12" lengthAdjust="spacing" textLength="147" x="1564.25" y="169.9648">Read ADC value (GPIO 36)</text><path d="M1716.25,202.6016 L1716.25,219.9531 L1696.25,223.9531 L1716.25,227.9531 L1716.25,245.3047 A0,0 0 0 0 1716.25,245.3047 L1949.25,245.3047 A0,0 0 0 0 1949.25,245.3047 L1949.25,212.6016 L1939.25,202.6016 L1716.25,202.6016 A0,0 0 0 0 1716.25,202.6016 " fill="#FEFFDD" style="stroke:#181818;stroke-width:0.5;"/><path d="M1939.25,202.6016 L1939.25,212.6016 L1949.25,212.6016 L1939.25,202.6016 " fill="#FEFFDD" style="stroke:#181818;stroke-width:0.5;"/><text fill="#000000" font-family="sans-serif" font-size="13" lengthAdjust="spacing" textLength="212" x="1722.25" y="221.0967">voltage = (adcValue / 4095.0) &#215; 3.3V</text><text fill="#000000" font-family="sans-serif" font-size="13" lengthAdjust="spacing" textLength="111" x="1722.25" y="237.4482">Range: 0.0V - 3.3V</text><rect fill="#F1F1F1" height="35.0938" rx="12.5" ry="12.5" style="stroke:#181818;stroke-width:0.5;" width="117" x="1579.25" y="206.4063"/><text fill="#000000" font-family="sans-serif" font-size="12" lengthAdjust="spacing" textLength="97" x="1589.25" y="228.8633">Convert to voltage</text><path d="M1710.75,315.8955 L1710.75,341.4229 L1690.75,345.4229 L1710.75,349.4229 L1710.75,374.9502 A0,0 0 0 0 1710.75,374.9502 L2000.75,374.9502 A0,0 0 0 0 2000.75,374.9502 L2000.75,325.8955 L1990.75,315.8955 L1710.75,315.8955 A0,0 0 0 0 1710.75,315.8955 " fill="#FEFFDD" style="stroke:#181818;stroke-width:0.5;"/><path d="M1990.75,315.8955 L1990.75,325.8955 L2000.75,325.8955 L1990.75,315.8955 " fill="#FEFFDD" style="stroke:#181818;stroke-width:0.5;"/><text fill="#000000" font-family="sans-serif" font-size="13" lengthAdjust="spacing" textLength="269" x="1716.75" y="334.3906">[PURE-TONE-ADC] Raw=XXXX Voltage=X.XXV</text><text fill="#000000" font-family="sans-serif" font-size="13" lengthAdjust="spacing" textLength="152" x="1716.75" y="350.7422">&gt;&gt;&gt; ACTIVE &lt;&lt;&lt; if &#8805;2.8V</text><text fill="#000000" font-family="sans-serif" font-size="13" lengthAdjust="spacing" textLength="77" x="1716.75" y="367.0938">(idle) if &lt;2.8V</text><rect fill="#F1F1F1" height="35.0938" rx="12.5" ry="12.5" style="stroke:#181818;stroke-width:0.5;" width="106" x="1584.75" y="327.876"/><text fill="#000000" font-family="sans-serif" font-size="12" lengthAdjust="spacing" textLength="86" x="1594.75" y="350.333">Print debug info</text><polygon fill="#F1F1F1" points="1582.25,265.3047,1693.25,265.3047,1705.25,279.1406,1693.25,292.9766,1582.25,292.9766,1570.25,279.1406,1582.25,265.3047" style="stroke:#181818;stroke-width:0.5;"/><text fill="#000000" font-family="sans-serif" font-size="11" lengthAdjust="spacing" textLength="20" x="1641.75" y="304.3955">Yes</text><text fill="#000000" font-family="sans-serif" font-size="11" lengthAdjust="spacing" textLength="111" x="1582.25" y="276.7236">Time for debug output?</text><text fill="#000000" font-family="sans-serif" font-size="11" lengthAdjust="spacing" textLength="63" x="1582.25" y="290.5596">Every 100ms</text><polygon fill="#F1F1F1" points="1637.75,394.9502,1649.75,406.9502,1637.75,418.9502,1625.75,406.9502,1637.75,394.9502" style="stroke:#181818;stroke-width:0.5;"/><path d="M1727.75,435.1455 L1727.75,452.4971 L1707.75,456.4971 L1727.75,460.4971 L1727.75,477.8486 A0,0 0 0 0 1727.75,477.8486 L1958.75,477.8486 A0,0 0 0 0 1958.75,477.8486 L1958.75,445.1455 L1948.75,435.1455 L1727.75,435.1455 A0,0 0 0 0 1727.75,435.1455 " fill="#FEFFDD" style="stroke:#181818;stroke-width:0.5;"/><path d="M1948.75,435.1455 L1948.75,445.1455 L1958.75,445.1455 L1948.75,435.1455 " fill="#FEFFDD" style="stroke:#181818;stroke-width:0.5;"/><text fill="#000000" font-family="sans-serif" font-size="13" lengthAdjust="spacing" textLength="189" x="1733.75" y="453.6406">THRESHOLD_VOLTAGE = 2.8V</text><text fill="#000000" font-family="sans-serif" font-size="13" lengthAdjust="spacing" textLength="210" x="1733.75" y="469.9922">currentlyDetected = (voltage &#8805; 2.8V)</text><rect fill="#F1F1F1" height="35.0938" rx="12.5" ry="12.5" style="stroke:#181818;stroke-width:0.5;" width="140" x="1567.75" y="438.9502"/><text fill="#000000" font-family="sans-serif" font-size="12" lengthAdjust="spacing" textLength="120" x="1577.75" y="461.4072">Compare to threshold</text><polygon fill="#F1F1F1" points="32,504.4375,136,504.4375,148,516.4375,136,528.4375,32,528.4375,20,516.4375,32,504.4375" style="stroke:#181818;stroke-width:0.5;"/><text fill="#000000" font-family="sans-serif" font-size="11" lengthAdjust="spacing" textLength="59" x="88" y="539.8564">Rising Edge:</text><text fill="#000000" font-family="sans-serif" font-size="11" lengthAdjust="spacing" textLength="160" x="88" y="553.6924">currentlyDetected &amp;&amp; !toneActive</text><text fill="#000000" font-family="sans-serif" font-size="11" lengthAdjust="spacing" textLength="104" x="32" y="520.9385">Check state transition</text><path d="M159.5,576.1094 L159.5,617.9883 L139.5,621.9883 L159.5,625.9883 L159.5,667.8672 A0,0 0 0 0 159.5,667.8672 L435.5,667.8672 A0,0 0 0 0 435.5,667.8672 L435.5,586.1094 L425.5,576.1094 L159.5,576.1094 A0,0 0 0 0 159.5,576.1094 " fill="#FEFFDD" style="stroke:#181818;stroke-width:0.5;"/><path d="M425.5,576.1094 L425.5,586.1094 L435.5,586.1094 L425.5,576.1094 " fill="#FEFFDD" style="stroke:#181818;stroke-width:0.5;"/><text fill="#000000" font-family="sans-serif" font-size="13" lengthAdjust="spacing" textLength="106" x="165.5" y="594.6045">- toneActive = true</text><text fill="#000000" font-family="sans-serif" font-size="13" lengthAdjust="spacing" textLength="143" x="165.5" y="610.9561">- toneStartTime = millis()</text><text fill="#000000" font-family="sans-serif" font-size="13" lengthAdjust="spacing" textLength="133" x="165.5" y="627.3076">- peakADC = adcValue</text><text fill="#000000" font-family="sans-serif" font-size="13" lengthAdjust="spacing" textLength="136" x="165.5" y="643.6592">- peakVoltage = voltage</text><text fill="#000000" font-family="sans-serif" font-size="13" lengthAdjust="spacing" textLength="255" x="165.5" y="660.0107">- Print: "Tone started - ADC=XXXX V=X.XXV"</text><rect fill="#F1F1F1" height="35.0938" rx="12.5" ry="12.5" style="stroke:#181818;stroke-width:0.5;" width="111" x="28.5" y="604.4414"/><text fill="#000000" font-family="sans-serif" font-size="12" lengthAdjust="spacing" textLength="91" x="38.5" y="626.8984">TONE STARTED</text><rect fill="#F1F1F1" height="35.0938" rx="12.5" ry="12.5" style="stroke:#181818;stroke-width:0.5;" width="87" x="40.5" y="702.8672"/><text fill="#000000" font-family="sans-serif" font-size="12" lengthAdjust="spacing" textLength="67" x="50.5" y="725.3242">Return false</text><ellipse cx="84" cy="781.2578" fill="none" rx="11" ry="11" style="stroke:#222222;stroke-width:1.0;"/><ellipse cx="84" cy="781.2578" fill="#222222" rx="6" ry="6" style="stroke:#222222;stroke-width:1.0;"/><polygon fill="#F1F1F1" points="467.5,502.6016,625.5,502.6016,637.5,516.4375,625.5,530.2734,467.5,530.2734,455.5,516.4375,467.5,502.6016" style="stroke:#181818;stroke-width:0.5;"/><text fill="#000000" font-family="sans-serif" font-size="11" lengthAdjust="spacing" textLength="53" x="550.5" y="541.6924">Track Peak</text><text fill="#000000" font-family="sans-serif" font-size="11" lengthAdjust="spacing" textLength="61" x="467.5" y="514.0205">Tone Active:</text><text fill="#000000" font-family="sans-serif" font-size="11" lengthAdjust="spacing" textLength="158" x="467.5" y="527.8564">toneActive &amp;&amp; currentlyDetected</text><path d="M631,564.1094 L631,589.6367 L611,593.6367 L631,597.6367 L631,623.1641 A0,0 0 0 0 631,623.1641 L799,623.1641 A0,0 0 0 0 799,623.1641 L799,574.1094 L789,564.1094 L631,564.1094 A0,0 0 0 0 631,564.1094 " fill="#FEFFDD" style="stroke:#181818;stroke-width:0.5;"/><path d="M789,564.1094 L789,574.1094 L799,574.1094 L789,564.1094 " fill="#FEFFDD" style="stroke:#181818;stroke-width:0.5;"/><text fill="#000000" font-family="sans-serif" font-size="13" lengthAdjust="spacing" textLength="147" x="637" y="582.6045">if (adcValue &gt; peakADC):</text><text fill="#000000" font-family="sans-serif" font-size="13" lengthAdjust="spacing" textLength="125" x="645" y="598.9561">peakADC = adcValue</text><text fill="#000000" font-family="sans-serif" font-size="13" lengthAdjust="spacing" textLength="128" x="645" y="615.3076">peakVoltage = voltage</text><rect fill="#F1F1F1" height="35.0938" rx="12.5" ry="12.5" style="stroke:#181818;stroke-width:0.5;" width="129" x="482" y="576.0898"/><text fill="#000000" font-family="sans-serif" font-size="12" lengthAdjust="spacing" textLength="109" x="492" y="598.5469">Update peak values</text><rect fill="#F1F1F1" height="35.0938" rx="12.5" ry="12.5" style="stroke:#181818;stroke-width:0.5;" width="87" x="503" y="658.1641"/><text fill="#000000" font-family="sans-serif" font-size="12" lengthAdjust="spacing" textLength="67" x="513" y="680.6211">Return false</text><ellipse cx="546.5" cy="739.2578" fill="none" rx="11" ry="11" style="stroke:#222222;stroke-width:1.0;"/><ellipse cx="546.5" cy="739.2578" fill="#222222" rx="6" ry="6" style="stroke:#222222;stroke-width:1.0;"/><polygon fill="#F1F1F1" points="1190.8125,502.6016,1350.8125,502.6016,1362.8125,516.4375,1350.8125,530.2734,1190.8125,530.2734,1178.8125,516.4375,1190.8125,502.6016" style="stroke:#181818;stroke-width:0.5;"/><text fill="#000000" font-family="sans-serif" font-size="11" lengthAdjust="spacing" textLength="57" x="1274.8125" y="541.6924">Tone Ended</text><text fill="#000000" font-family="sans-serif" font-size="11" lengthAdjust="spacing" textLength="60" x="1190.8125" y="514.0205">Falling Edge:</text><text fill="#000000" font-family="sans-serif" font-size="11" lengthAdjust="spacing" textLength="160" x="1190.8125" y="527.8564">toneActive &amp;&amp; !currentlyDetected</text><text fill="#000000" font-family="sans-serif" font-size="11" lengthAdjust="spacing" textLength="43" x="1362.8125" y="500.1846">No Tone:</text><text fill="#000000" font-family="sans-serif" font-size="11" lengthAdjust="spacing" textLength="162" x="1362.8125" y="514.0205">!toneActive &amp;&amp; !currentlyDetected</text><path d="M1340.3125,564.1094 L1340.3125,589.6367 L1320.3125,593.6367 L1340.3125,597.6367 L1340.3125,623.1641 A0,0 0 0 0 1340.3125,623.1641 L1669.3125,623.1641 A0,0 0 0 0 1669.3125,623.1641 L1669.3125,574.1094 L1659.3125,564.1094 L1340.3125,564.1094 A0,0 0 0 0 1340.3125,564.1094 " fill="#FEFFDD" style="stroke:#181818;stroke-width:0.5;"/><path d="M1659.3125,564.1094 L1659.3125,574.1094 L1669.3125,574.1094 L1659.3125,564.1094 " fill="#FEFFDD" style="stroke:#181818;stroke-width:0.5;"/><text fill="#000000" font-family="sans-serif" font-size="13" lengthAdjust="spacing" textLength="111" x="1346.3125" y="582.6045">- toneActive = false</text><text fill="#000000" font-family="sans-serif" font-size="13" lengthAdjust="spacing" textLength="228" x="1346.3125" y="598.9561">- toneDuration = millis() - toneStartTime</text><text fill="#000000" font-family="sans-serif" font-size="13" lengthAdjust="spacing" textLength="308" x="1346.3125" y="615.3076">- Print: "Duration=XXXms Peak: ADC=XXXX V=X.XXV"</text><rect fill="#F1F1F1" height="35.0938" rx="12.5" ry="12.5" style="stroke:#181818;stroke-width:0.5;" width="99" x="1221.3125" y="576.0898"/><text fill="#000000" font-family="sans-serif" font-size="12" lengthAdjust="spacing" textLength="79" x="1231.3125" y="598.5469">TONE ENDED</text><polygon fill="#F1F1F1" points="1202.3125,658.1641,1339.3125,658.1641,1351.3125,672,1339.3125,685.8359,1202.3125,685.8359,1190.3125,672,1202.3125,658.1641" style="stroke:#181818;stroke-width:0.5;"/><text fill="#000000" font-family="sans-serif" font-size="11" lengthAdjust="spacing" textLength="71" x="1202.3125" y="669.583">Duration valid?</text><text fill="#000000" font-family="sans-serif" font-size="11" lengthAdjust="spacing" textLength="137" x="1202.3125" y="683.4189">500ms &#8804; duration &#8804; 1000ms</text><text fill="#000000" font-family="sans-serif" font-size="11" lengthAdjust="spacing" textLength="30" x="1160.3125" y="669.583">Invalid</text><text fill="#000000" font-family="sans-serif" font-size="11" lengthAdjust="spacing" textLength="24" x="1351.3125" y="669.583">Valid</text><path d="M991,695.8359 L991,713.1875 L971,717.1875 L991,721.1875 L991,738.5391 A0,0 0 0 0 991,738.5391 L1206,738.5391 A0,0 0 0 0 1206,738.5391 L1206,705.8359 L1196,695.8359 L991,695.8359 A0,0 0 0 0 991,695.8359 " fill="#FEFFDD" style="stroke:#181818;stroke-width:0.5;"/><path d="M1196,695.8359 L1196,705.8359 L1206,705.8359 L1196,695.8359 " fill="#FEFFDD" style="stroke:#181818;stroke-width:0.5;"/><text fill="#000000" font-family="sans-serif" font-size="13" lengthAdjust="spacing" textLength="145" x="997" y="714.3311">"Invalid duration (XXXms).</text><text fill="#000000" font-family="sans-serif" font-size="13" lengthAdjust="spacing" textLength="194" x="997" y="730.6826">Must be 500-1000ms. Resetting."</text><rect fill="#F1F1F1" height="35.0938" rx="12.5" ry="12.5" style="stroke:#181818;stroke-width:0.5;" width="131" x="840" y="699.6406"/><text fill="#000000" font-family="sans-serif" font-size="12" lengthAdjust="spacing" textLength="111" x="850" y="722.0977">Print invalid duration</text><rect fill="#F1F1F1" height="35.0938" rx="12.5" ry="12.5" style="stroke:#181818;stroke-width:0.5;" width="193" x="809" y="770.8359"/><text fill="#000000" font-family="sans-serif" font-size="12" lengthAdjust="spacing" textLength="173" x="819" y="793.293">Reset firstToneDetected = false</text><rect fill="#F1F1F1" height="35.0938" rx="12.5" ry="12.5" style="stroke:#181818;stroke-width:0.5;" width="87" x="862" y="840.9297"/><text fill="#000000" font-family="sans-serif" font-size="12" lengthAdjust="spacing" textLength="67" x="872" y="863.3867">Return false</text><ellipse cx="905.5" cy="922.0234" fill="none" rx="11" ry="11" style="stroke:#222222;stroke-width:1.0;"/><ellipse cx="905.5" cy="922.0234" fill="#222222" rx="6" ry="6" style="stroke:#222222;stroke-width:1.0;"/><path d="M1731.125,695.8359 L1731.125,713.1875 L1711.125,717.1875 L1731.125,721.1875 L1731.125,738.5391 A0,0 0 0 0 1731.125,738.5391 L1936.125,738.5391 A0,0 0 0 0 1936.125,738.5391 L1936.125,705.8359 L1926.125,695.8359 L1731.125,695.8359 A0,0 0 0 0 1731.125,695.8359 " fill="#FEFFDD" style="stroke:#181818;stroke-width:0.5;"/><path d="M1926.125,695.8359 L1926.125,705.8359 L1936.125,705.8359 L1926.125,695.8359 " fill="#FEFFDD" style="stroke:#181818;stroke-width:0.5;"/><text fill="#000000" font-family="sans-serif" font-size="13" lengthAdjust="spacing" textLength="120" x="1737.125" y="714.3311">"Valid tone detected!</text><text fill="#000000" font-family="sans-serif" font-size="13" lengthAdjust="spacing" textLength="184" x="1737.125" y="730.6826">Peak was ADC=XXXX V=X.XXV"</text><rect fill="#F1F1F1" height="35.0938" rx="12.5" ry="12.5" style="stroke:#181818;stroke-width:0.5;" width="150" x="1561.125" y="699.6406"/><text fill="#000000" font-family="sans-serif" font-size="12" lengthAdjust="spacing" textLength="130" x="1571.125" y="722.0977">Print valid tone detected</text><polygon fill="#F1F1F1" points="1568.625,770.8359,1703.625,770.8359,1715.625,782.8359,1703.625,794.8359,1568.625,794.8359,1556.625,782.8359,1568.625,770.8359" style="stroke:#181818;stroke-width:0.5;"/><text fill="#000000" font-family="sans-serif" font-size="11" lengthAdjust="spacing" textLength="135" x="1568.625" y="787.3369">First tone already detected?</text><text fill="#000000" font-family="sans-serif" font-size="11" lengthAdjust="spacing" textLength="100" x="1456.625" y="780.4189">No - This is first tone</text><text fill="#000000" font-family="sans-serif" font-size="11" lengthAdjust="spacing" textLength="124" x="1715.625" y="780.4189">Yes - This is second tone</text><path d="M1369,804.8359 L1369,846.7148 L1349,850.7148 L1369,854.7148 L1369,896.5938 A0,0 0 0 0 1369,896.5938 L1663,896.5938 A0,0 0 0 0 1663,896.5938 L1663,814.8359 L1653,804.8359 L1369,804.8359 A0,0 0 0 0 1369,804.8359 " fill="#FEFFDD" style="stroke:#181818;stroke-width:0.5;"/><path d="M1653,804.8359 L1653,814.8359 L1663,814.8359 L1653,804.8359 " fill="#FEFFDD" style="stroke:#181818;stroke-width:0.5;"/><text fill="#000000" font-family="sans-serif" font-size="13" lengthAdjust="spacing" textLength="147" x="1375" y="823.3311">- firstToneDetected = true</text><text fill="#000000" font-family="sans-serif" font-size="13" lengthAdjust="spacing" textLength="162" x="1375" y="839.6826">- firstToneEndTime = millis()</text><text fill="#000000" font-family="sans-serif" font-size="13" lengthAdjust="spacing" textLength="167" x="1375" y="856.0342">- firstToneDuration = duration</text><text fill="#000000" font-family="sans-serif" font-size="13" lengthAdjust="spacing" textLength="273" x="1375" y="872.3857">- Print: "FIRST TONE VALID (duration=XXXms).</text><text fill="#000000" font-family="sans-serif" font-size="13" lengthAdjust="spacing" textLength="154" x="1415" y="888.7373">Waiting for second tone..."</text><rect fill="#F1F1F1" height="35.0938" rx="12.5" ry="12.5" style="stroke:#181818;stroke-width:0.5;" width="113" x="1236" y="833.168"/><text fill="#000000" font-family="sans-serif" font-size="12" lengthAdjust="spacing" textLength="93" x="1246" y="855.625">Mark as first tone</text><rect fill="#F1F1F1" height="35.0938" rx="12.5" ry="12.5" style="stroke:#181818;stroke-width:0.5;" width="87" x="1249" y="931.5938"/><text fill="#000000" font-family="sans-serif" font-size="12" lengthAdjust="spacing" textLength="67" x="1259" y="954.0508">Return false</text><ellipse cx="1292.5" cy="1012.6875" fill="none" rx="11" ry="11" style="stroke:#222222;stroke-width:1.0;"/><ellipse cx="1292.5" cy="1012.6875" fill="#222222" rx="6" ry="6" style="stroke:#222222;stroke-width:1.0;"/><path d="M2089.75,809.207 L2089.75,818.3828 L2069.75,822.3828 L2089.75,826.3828 L2089.75,835.5586 A0,0 0 0 0 2089.75,835.5586 L2386.75,835.5586 A0,0 0 0 0 2386.75,835.5586 L2386.75,819.207 L2376.75,809.207 L2089.75,809.207 A0,0 0 0 0 2089.75,809.207 " fill="#FEFFDD" style="stroke:#181818;stroke-width:0.5;"/><path d="M2376.75,809.207 L2376.75,819.207 L2386.75,819.207 L2376.75,809.207 " fill="#FEFFDD" style="stroke:#181818;stroke-width:0.5;"/><text fill="#000000" font-family="sans-serif" font-size="13" lengthAdjust="spacing" textLength="276" x="2095.75" y="827.7021">timeBetweenTones = millis() - firstToneEndTime</text><rect fill="#F1F1F1" height="35.0938" rx="12.5" ry="12.5" style="stroke:#181818;stroke-width:0.5;" width="180" x="1889.75" y="804.8359"/><text fill="#000000" font-family="sans-serif" font-size="12" lengthAdjust="spacing" textLength="160" x="1899.75" y="827.293">Calculate gap between tones</text><polygon fill="#F1F1F1" points="1907.25,874.9297,2052.25,874.9297,2064.25,888.7656,2052.25,902.6016,1907.25,902.6016,1895.25,888.7656,1907.25,874.9297" style="stroke:#181818;stroke-width:0.5;"/><text fill="#000000" font-family="sans-serif" font-size="11" lengthAdjust="spacing" textLength="51" x="1907.25" y="886.3486">Gap valid?</text><text fill="#000000" font-family="sans-serif" font-size="11" lengthAdjust="spacing" textLength="145" x="1907.25" y="900.1846">timeBetweenTones &#8804; 2000ms</text><text fill="#000000" font-family="sans-serif" font-size="11" lengthAdjust="spacing" textLength="84" x="1811.25" y="886.3486">No - Gap too long</text><text fill="#000000" font-family="sans-serif" font-size="11" lengthAdjust="spacing" textLength="75" x="2064.25" y="886.3486">Yes - Gap valid</text><path d="M1829,912.6016 L1829,929.9531 L1809,933.9531 L1829,937.9531 L1829,955.3047 A0,0 0 0 0 1829,955.3047 L2041,955.3047 A0,0 0 0 0 2041,955.3047 L2041,922.6016 L2031,912.6016 L1829,912.6016 A0,0 0 0 0 1829,912.6016 " fill="#FEFFDD" style="stroke:#181818;stroke-width:0.5;"/><path d="M2031,912.6016 L2031,922.6016 L2041,922.6016 L2031,912.6016 " fill="#FEFFDD" style="stroke:#181818;stroke-width:0.5;"/><text fill="#000000" font-family="sans-serif" font-size="13" lengthAdjust="spacing" textLength="141" x="1835" y="931.0967">"Gap too long (XXXXms).</text><text fill="#000000" font-family="sans-serif" font-size="13" lengthAdjust="spacing" textLength="191" x="1835" y="947.4482">Resetting. This tone is now first."</text><rect fill="#F1F1F1" height="35.0938" rx="12.5" ry="12.5" style="stroke:#181818;stroke-width:0.5;" width="116" x="1693" y="916.4063"/><text fill="#000000" font-family="sans-serif" font-size="12" lengthAdjust="spacing" textLength="96" x="1703" y="938.8633">Print gap too long</text><path d="M1829,990.3047 L1829,1015.832 L1809,1019.832 L1829,1023.832 L1829,1049.3594 A0,0 0 0 0 1829,1049.3594 L2061,1049.3594 A0,0 0 0 0 2061,1049.3594 L2061,1000.3047 L2051,990.3047 L1829,990.3047 A0,0 0 0 0 1829,990.3047 " fill="#FEFFDD" style="stroke:#181818;stroke-width:0.5;"/><path d="M2051,990.3047 L2051,1000.3047 L2061,1000.3047 L2051,990.3047 " fill="#FEFFDD" style="stroke:#181818;stroke-width:0.5;"/><text fill="#000000" font-family="sans-serif" font-size="13" lengthAdjust="spacing" textLength="147" x="1835" y="1008.7998">- firstToneDetected = true</text><text fill="#000000" font-family="sans-serif" font-size="13" lengthAdjust="spacing" textLength="162" x="1835" y="1025.1514">- firstToneEndTime = millis()</text><text fill="#000000" font-family="sans-serif" font-size="13" lengthAdjust="spacing" textLength="211" x="1835" y="1041.5029">- firstToneDuration = current duration</text><rect fill="#F1F1F1" height="35.0938" rx="12.5" ry="12.5" style="stroke:#181818;stroke-width:0.5;" width="116" x="1693" y="1002.2852"/><text fill="#000000" font-family="sans-serif" font-size="12" lengthAdjust="spacing" textLength="96" x="1703" y="1024.7422">Reset to first tone</text><rect fill="#F1F1F1" height="35.0938" rx="12.5" ry="12.5" style="stroke:#181818;stroke-width:0.5;" width="87" x="1707.5" y="1084.3594"/><text fill="#000000" font-family="sans-serif" font-size="12" lengthAdjust="spacing" textLength="67" x="1717.5" y="1106.8164">Return false</text><ellipse cx="1751" cy="1162.75" fill="none" rx="11" ry="11" style="stroke:#222222;stroke-width:1.0;"/><ellipse cx="1751" cy="1162.75" fill="#222222" rx="6" ry="6" style="stroke:#222222;stroke-width:1.0;"/><path d="M2324.5,912.6016 L2324.5,970.832 L2304.5,974.832 L2324.5,978.832 L2324.5,1037.0625 A0,0 0 0 0 2324.5,1037.0625 L2569.5,1037.0625 A0,0 0 0 0 2569.5,1037.0625 L2569.5,922.6016 L2559.5,912.6016 L2324.5,912.6016 A0,0 0 0 0 2324.5,912.6016 " fill="#FEFFDD" style="stroke:#181818;stroke-width:0.5;"/><path d="M2559.5,912.6016 L2559.5,922.6016 L2569.5,922.6016 L2559.5,912.6016 " fill="#FEFFDD" style="stroke:#181818;stroke-width:0.5;"/><text fill="#000000" font-family="sans-serif" font-size="13" lengthAdjust="spacing" textLength="127" x="2330.5" y="931.0967">Print success banner:</text><text fill="#000000" font-family="sans-serif" font-size="13" lengthAdjust="spacing" textLength="224" x="2330.5" y="947.4482">&#9552;&#9552;&#9552;&#9552;&#9552;&#9552;&#9552;&#9552;&#9552;&#9552;&#9552;&#9552;&#9552;&#9552;&#9552;&#9552;&#9552;&#9552;&#9552;&#9552;&#9552;&#9552;&#9552;&#9552;&#9552;&#9552;&#9552;&#9552;&#9552;&#9552;&#9552;&#9552;</text><text fill="#000000" font-family="sans-serif" font-size="13" lengthAdjust="spacing" textLength="187" x="2330.5" y="963.7998">&#127925; TWO TONES DETECTED! &#127925;</text><text fill="#000000" font-family="sans-serif" font-size="13" lengthAdjust="spacing" textLength="106" x="2342.5" y="980.1514">First tone:  XXXms</text><text fill="#000000" font-family="sans-serif" font-size="13" lengthAdjust="spacing" textLength="120" x="2342.5" y="996.5029">Second tone: XXXms</text><text fill="#000000" font-family="sans-serif" font-size="13" lengthAdjust="spacing" textLength="123" x="2342.5" y="1012.8545">Gap between: XXXms</text><text fill="#000000" font-family="sans-serif" font-size="13" lengthAdjust="spacing" textLength="224" x="2330.5" y="1029.2061">&#9552;&#9552;&#9552;&#9552;&#9552;&#9552;&#9552;&#9552;&#9552;&#9552;&#9552;&#9552;&#9552;&#9552;&#9552;&#9552;&#9552;&#9552;&#9552;&#9552;&#9552;&#9552;&#9552;&#9552;&#9552;&#9552;&#9552;&#9552;&#9552;&#9552;&#9552;&#9552;</text><rect fill="#F1F1F1" height="35.0938" rx="12.5" ry="12.5" style="stroke:#181818;stroke-width:0.5;" width="192" x="2112.5" y="957.2852"/><text fill="#000000" font-family="sans-serif" font-size="12" lengthAdjust="spacing" textLength="172" x="2122.5" y="979.7422">&#127925; TWO TONES DETECTED! &#127925;</text><rect fill="#F1F1F1" height="35.0938" rx="12.5" ry="12.5" style="stroke:#181818;stroke-width:0.5;" width="255" x="2081" y="1072.0625"/><text fill="#000000" font-family="sans-serif" font-size="12" lengthAdjust="spacing" textLength="235" x="2091" y="1094.5195">Set systemStatus.pureToneDetected = true</text><rect fill="#F1F1F1" height="35.0938" rx="12.5" ry="12.5" style="stroke:#181818;stroke-width:0.5;" width="193" x="2112" y="1139.4531"/><text fill="#000000" font-family="sans-serif" font-size="12" lengthAdjust="spacing" textLength="173" x="2122" y="1161.9102">Reset firstToneDetected = false</text><rect fill="#F1F1F1" height="35.0938" rx="12.5" ry="12.5" style="stroke:#181818;stroke-width:0.5;" width="93" x="2162" y="1194.5469"/><text fill="#000000" font-family="sans-serif" font-size="12" lengthAdjust="spacing" textLength="73" x="2172" y="1217.0039">Return TRUE</text><ellipse cx="2208.5" cy="1260.6406" fill="none" rx="11" ry="11" style="stroke:#222222;stroke-width:1.0;"/><ellipse cx="2208.5" cy="1260.6406" fill="#222222" rx="6" ry="6" style="stroke:#222222;stroke-width:1.0;"/><polygon fill="#F1F1F1" points="2949.75,772.5039,3072.75,772.5039,3084.75,786.3398,3072.75,800.1758,2949.75,800.1758,2937.75,786.3398,2949.75,772.5039" style="stroke:#181818;stroke-width:0.5;"/><text fill="#000000" font-family="sans-serif" font-size="11" lengthAdjust="spacing" textLength="121" x="2949.75" y="783.9229">Waiting for second tone?</text><text fill="#000000" font-family="sans-serif" font-size="11" lengthAdjust="spacing" textLength="123" x="2949.75" y="797.7588">firstToneDetected == true</text><text fill="#000000" font-family="sans-serif" font-size="11" lengthAdjust="spacing" textLength="20" x="2917.75" y="783.9229">Yes</text><text fill="#000000" font-family="sans-serif" font-size="11" lengthAdjust="spacing" textLength="66" x="3084.75" y="783.9229">No - Idle state</text><polygon fill="#F1F1F1" points="2778,810.1758,2943,810.1758,2955,824.0117,2943,837.8477,2778,837.8477,2766,824.0117,2778,810.1758" style="stroke:#181818;stroke-width:0.5;"/><text fill="#000000" font-family="sans-serif" font-size="11" lengthAdjust="spacing" textLength="43" x="2778" y="821.5947">Timeout?</text><text fill="#000000" font-family="sans-serif" font-size="11" lengthAdjust="spacing" textLength="165" x="2778" y="835.4307">millis - firstToneEndTime &gt; 2000ms</text><text fill="#000000" font-family="sans-serif" font-size="11" lengthAdjust="spacing" textLength="67" x="2699" y="821.5947">Yes - Timeout</text><text fill="#000000" font-family="sans-serif" font-size="11" lengthAdjust="spacing" textLength="77" x="2955" y="821.5947">No - Still waiting</text><path d="M2768.5,847.8477 L2768.5,865.1992 L2748.5,869.1992 L2768.5,873.1992 L2768.5,890.5508 A0,0 0 0 0 2768.5,890.5508 L2981.5,890.5508 A0,0 0 0 0 2981.5,890.5508 L2981.5,857.8477 L2971.5,847.8477 L2768.5,847.8477 A0,0 0 0 0 2768.5,847.8477 " fill="#FEFFDD" style="stroke:#181818;stroke-width:0.5;"/><path d="M2971.5,847.8477 L2971.5,857.8477 L2981.5,857.8477 L2971.5,847.8477 " fill="#FEFFDD" style="stroke:#181818;stroke-width:0.5;"/><text fill="#000000" font-family="sans-serif" font-size="13" lengthAdjust="spacing" textLength="192" x="2774.5" y="866.3428">"Timeout waiting for second tone.</text><text fill="#000000" font-family="sans-serif" font-size="13" lengthAdjust="spacing" textLength="64" x="2774.5" y="882.6943">Resetting."</text><rect fill="#F1F1F1" height="35.0938" rx="12.5" ry="12.5" style="stroke:#181818;stroke-width:0.5;" width="145" x="2603.5" y="851.6523"/><text fill="#000000" font-family="sans-serif" font-size="12" lengthAdjust="spacing" textLength="125" x="2613.5" y="874.1094">Print timeout message</text><rect fill="#F1F1F1" height="35.0938" rx="12.5" ry="12.5" style="stroke:#181818;stroke-width:0.5;" width="193" x="2579.5" y="925.5508"/><text fill="#000000" font-family="sans-serif" font-size="12" lengthAdjust="spacing" textLength="173" x="2589.5" y="948.0078">Reset firstToneDetected = false</text><rect fill="#F1F1F1" height="35.0938" rx="12.5" ry="12.5" style="stroke:#181818;stroke-width:0.5;" width="87" x="2632.5" y="995.6445"/><text fill="#000000" font-family="sans-serif" font-size="12" lengthAdjust="spacing" textLength="67" x="2642.5" y="1018.1016">Return false</text><ellipse cx="2676" cy="1076.7383" fill="none" rx="11" ry="11" style="stroke:#222222;stroke-width:1.0;"/><ellipse cx="2676" cy="1076.7383" fill="#222222" rx="6" ry="6" style="stroke:#222222;stroke-width:1.0;"/><rect fill="#F1F1F1" height="35.0938" rx="12.5" ry="12.5" style="stroke:#181818;stroke-width:0.5;" width="87" x="3001.5" y="847.8477"/><text fill="#000000" font-family="sans-serif" font-size="12" lengthAdjust="spacing" textLength="67" x="3011.5" y="870.3047">Return false</text><ellipse cx="3045" cy="928.9414" fill="none" rx="11" ry="11" style="stroke:#222222;stroke-width:1.0;"/><ellipse cx="3045" cy="928.9414" fill="#222222" rx="6" ry="6" style="stroke:#222222;stroke-width:1.0;"/><rect fill="#F1F1F1" height="35.0938" rx="12.5" ry="12.5" style="stroke:#181818;stroke-width:0.5;" width="87" x="3118.5" y="810.1758"/><text fill="#000000" font-family="sans-serif" font-size="12" lengthAdjust="spacing" textLength="67" x="3128.5" y="832.6328">Return false</text><ellipse cx="3162" cy="891.2695" fill="none" rx="11" ry="11" style="stroke:#222222;stroke-width:1.0;"/><ellipse cx="3162" cy="891.2695" fill="#222222" rx="6" ry="6" style="stroke:#222222;stroke-width:1.0;"/><line style="stroke:#181818;stroke-width:1.0;" x1="1637.75" x2="1637.75" y1="68.6094" y2="88.6094"/><polygon fill="#181818" points="1633.75,78.6094,1637.75,88.6094,1641.75,78.6094,1637.75,82.6094" style="stroke:#181818;stroke-width:1.0;"/><line style="stroke:#181818;stroke-width:1.0;" x1="1637.75" x2="1637.75" y1="123.7031" y2="147.5078"/><polygon fill="#181818" points="1633.75,137.5078,1637.75,147.5078,1641.75,137.5078,1637.75,141.5078" style="stroke:#181818;stroke-width:1.0;"/><line style="stroke:#181818;stroke-width:1.0;" x1="1637.75" x2="1637.75" y1="182.6016" y2="206.4063"/><polygon fill="#181818" points="1633.75,196.4063,1637.75,206.4063,1641.75,196.4063,1637.75,200.4063" style="stroke:#181818;stroke-width:1.0;"/><line style="stroke:#181818;stroke-width:1.0;" x1="1637.75" x2="1637.75" y1="292.9766" y2="327.876"/><polygon fill="#181818" points="1633.75,317.876,1637.75,327.876,1641.75,317.876,1637.75,321.876" style="stroke:#181818;stroke-width:1.0;"/><line style="stroke:#181818;stroke-width:1.0;" x1="1705.25" x2="2010.75" y1="279.1406" y2="279.1406"/><polygon fill="#181818" points="2006.75,334.5049,2010.75,344.5049,2014.75,334.5049,2010.75,338.5049" style="stroke:#181818;stroke-width:1.0;"/><line style="stroke:#181818;stroke-width:1.0;" x1="2010.75" x2="2010.75" y1="279.1406" y2="406.9502"/><line style="stroke:#181818;stroke-width:1.0;" x1="2010.75" x2="1649.75" y1="406.9502" y2="406.9502"/><polygon fill="#181818" points="1659.75,402.9502,1649.75,406.9502,1659.75,410.9502,1655.75,406.9502" style="stroke:#181818;stroke-width:1.0;"/><line style="stroke:#181818;stroke-width:1.0;" x1="1637.75" x2="1637.75" y1="362.9697" y2="394.9502"/><polygon fill="#181818" points="1633.75,384.9502,1637.75,394.9502,1641.75,384.9502,1637.75,388.9502" style="stroke:#181818;stroke-width:1.0;"/><line style="stroke:#181818;stroke-width:1.0;" x1="1637.75" x2="1637.75" y1="241.5" y2="265.3047"/><polygon fill="#181818" points="1633.75,255.3047,1637.75,265.3047,1641.75,255.3047,1637.75,259.3047" style="stroke:#181818;stroke-width:1.0;"/><line style="stroke:#181818;stroke-width:1.0;" x1="1637.75" x2="1637.75" y1="418.9502" y2="438.9502"/><polygon fill="#181818" points="1633.75,428.9502,1637.75,438.9502,1641.75,428.9502,1637.75,432.9502" style="stroke:#181818;stroke-width:1.0;"/><line style="stroke:#181818;stroke-width:1.0;" x1="84" x2="84" y1="639.5352" y2="702.8672"/><polygon fill="#181818" points="80,692.8672,84,702.8672,88,692.8672,84,696.8672" style="stroke:#181818;stroke-width:1.0;"/><line style="stroke:#181818;stroke-width:1.0;" x1="84" x2="84" y1="737.9609" y2="770.2578"/><polygon fill="#181818" points="80,760.2578,84,770.2578,88,760.2578,84,764.2578" style="stroke:#181818;stroke-width:1.0;"/><line style="stroke:#181818;stroke-width:1.0;" x1="546.5" x2="546.5" y1="611.1836" y2="658.1641"/><polygon fill="#181818" points="542.5,648.1641,546.5,658.1641,550.5,648.1641,546.5,652.1641" style="stroke:#181818;stroke-width:1.0;"/><line style="stroke:#181818;stroke-width:1.0;" x1="546.5" x2="546.5" y1="693.2578" y2="728.2578"/><polygon fill="#181818" points="542.5,718.2578,546.5,728.2578,550.5,718.2578,546.5,722.2578" style="stroke:#181818;stroke-width:1.0;"/><line style="stroke:#181818;stroke-width:1.0;" x1="905.5" x2="905.5" y1="734.7344" y2="770.8359"/><polygon fill="#181818" points="901.5,760.8359,905.5,770.8359,909.5,760.8359,905.5,764.8359" style="stroke:#181818;stroke-width:1.0;"/><line style="stroke:#181818;stroke-width:1.0;" x1="905.5" x2="905.5" y1="805.9297" y2="840.9297"/><polygon fill="#181818" points="901.5,830.9297,905.5,840.9297,909.5,830.9297,905.5,834.9297" style="stroke:#181818;stroke-width:1.0;"/><line style="stroke:#181818;stroke-width:1.0;" x1="905.5" x2="905.5" y1="876.0234" y2="911.0234"/><polygon fill="#181818" points="901.5,901.0234,905.5,911.0234,909.5,901.0234,905.5,905.0234" style="stroke:#181818;stroke-width:1.0;"/><line style="stroke:#181818;stroke-width:1.0;" x1="1292.5" x2="1292.5" y1="868.2617" y2="931.5938"/><polygon fill="#181818" points="1288.5,921.5938,1292.5,931.5938,1296.5,921.5938,1292.5,925.5938" style="stroke:#181818;stroke-width:1.0;"/><line style="stroke:#181818;stroke-width:1.0;" x1="1292.5" x2="1292.5" y1="966.6875" y2="1001.6875"/><polygon fill="#181818" points="1288.5,991.6875,1292.5,1001.6875,1296.5,991.6875,1292.5,995.6875" style="stroke:#181818;stroke-width:1.0;"/><line style="stroke:#181818;stroke-width:1.0;" x1="1751" x2="1751" y1="951.5" y2="1002.2852"/><polygon fill="#181818" points="1747,992.2852,1751,1002.2852,1755,992.2852,1751,996.2852" style="stroke:#181818;stroke-width:1.0;"/><line style="stroke:#181818;stroke-width:1.0;" x1="1751" x2="1751" y1="1037.3789" y2="1084.3594"/><polygon fill="#181818" points="1747,1074.3594,1751,1084.3594,1755,1074.3594,1751,1078.3594" style="stroke:#181818;stroke-width:1.0;"/><line style="stroke:#181818;stroke-width:1.0;" x1="1751" x2="1751" y1="1119.4531" y2="1151.75"/><polygon fill="#181818" points="1747,1141.75,1751,1151.75,1755,1141.75,1751,1145.75" style="stroke:#181818;stroke-width:1.0;"/><line style="stroke:#181818;stroke-width:1.0;" x1="2208.5" x2="2208.5" y1="992.3789" y2="1072.0625"/><polygon fill="#181818" points="2204.5,1062.0625,2208.5,1072.0625,2212.5,1062.0625,2208.5,1066.0625" style="stroke:#181818;stroke-width:1.0;"/><line style="stroke:#181818;stroke-width:1.0;" x1="2208.5" x2="2208.5" y1="1107.1563" y2="1139.4531"/><polygon fill="#181818" points="2204.5,1129.4531,2208.5,1139.4531,2212.5,1129.4531,2208.5,1133.4531" style="stroke:#181818;stroke-width:1.0;"/><line style="stroke:#181818;stroke-width:1.0;" x1="2208.5" x2="2208.5" y1="1174.5469" y2="1194.5469"/><polygon fill="#181818" points="2204.5,1184.5469,2208.5,1194.5469,2212.5,1184.5469,2208.5,1188.5469" style="stroke:#181818;stroke-width:1.0;"/><line style="stroke:#181818;stroke-width:1.0;" x1="2208.5" x2="2208.5" y1="1229.6406" y2="1249.6406"/><polygon fill="#181818" points="2204.5,1239.6406,2208.5,1249.6406,2212.5,1239.6406,2208.5,1243.6406" style="stroke:#181818;stroke-width:1.0;"/><line style="stroke:#181818;stroke-width:1.0;" x1="1895.25" x2="1751" y1="888.7656" y2="888.7656"/><line style="stroke:#181818;stroke-width:1.0;" x1="1751" x2="1751" y1="888.7656" y2="916.4063"/><polygon fill="#181818" points="1747,906.4063,1751,916.4063,1755,906.4063,1751,910.4063" style="stroke:#181818;stroke-width:1.0;"/><line style="stroke:#181818;stroke-width:1.0;" x1="2064.25" x2="2208.5" y1="888.7656" y2="888.7656"/><line style="stroke:#181818;stroke-width:1.0;" x1="2208.5" x2="2208.5" y1="888.7656" y2="957.2852"/><polygon fill="#181818" points="2204.5,947.2852,2208.5,957.2852,2212.5,947.2852,2208.5,951.2852" style="stroke:#181818;stroke-width:1.0;"/><line style="stroke:#181818;stroke-width:1.0;" x1="1979.75" x2="1979.75" y1="839.9297" y2="874.9297"/><polygon fill="#181818" points="1975.75,864.9297,1979.75,874.9297,1983.75,864.9297,1979.75,868.9297" style="stroke:#181818;stroke-width:1.0;"/><line style="stroke:#181818;stroke-width:1.0;" x1="1556.625" x2="1292.5" y1="782.8359" y2="782.8359"/><line style="stroke:#181818;stroke-width:1.0;" x1="1292.5" x2="1292.5" y1="782.8359" y2="833.168"/><polygon fill="#181818" points="1288.5,823.168,1292.5,833.168,1296.5,823.168,1292.5,827.168" style="stroke:#181818;stroke-width:1.0;"/><line style="stroke:#181818;stroke-width:1.0;" x1="1715.625" x2="1979.75" y1="782.8359" y2="782.8359"/><line style="stroke:#181818;stroke-width:1.0;" x1="1979.75" x2="1979.75" y1="782.8359" y2="804.8359"/><polygon fill="#181818" points="1975.75,794.8359,1979.75,804.8359,1983.75,794.8359,1979.75,798.8359" style="stroke:#181818;stroke-width:1.0;"/><line style="stroke:#181818;stroke-width:1.0;" x1="1636.125" x2="1636.125" y1="734.7344" y2="770.8359"/><polygon fill="#181818" points="1632.125,760.8359,1636.125,770.8359,1640.125,760.8359,1636.125,764.8359" style="stroke:#181818;stroke-width:1.0;"/><line style="stroke:#181818;stroke-width:1.0;" x1="1190.3125" x2="905.5" y1="672" y2="672"/><line style="stroke:#181818;stroke-width:1.0;" x1="905.5" x2="905.5" y1="672" y2="699.6406"/><polygon fill="#181818" points="901.5,689.6406,905.5,699.6406,909.5,689.6406,905.5,693.6406" style="stroke:#181818;stroke-width:1.0;"/><line style="stroke:#181818;stroke-width:1.0;" x1="1351.3125" x2="1636.125" y1="672" y2="672"/><line style="stroke:#181818;stroke-width:1.0;" x1="1636.125" x2="1636.125" y1="672" y2="699.6406"/><polygon fill="#181818" points="1632.125,689.6406,1636.125,699.6406,1640.125,689.6406,1636.125,693.6406" style="stroke:#181818;stroke-width:1.0;"/><line style="stroke:#181818;stroke-width:1.0;" x1="1270.8125" x2="1270.8125" y1="611.1836" y2="658.1641"/><polygon fill="#181818" points="1266.8125,648.1641,1270.8125,658.1641,1274.8125,648.1641,1270.8125,652.1641" style="stroke:#181818;stroke-width:1.0;"/><line style="stroke:#181818;stroke-width:1.0;" x1="2676" x2="2676" y1="886.7461" y2="925.5508"/><polygon fill="#181818" points="2672,915.5508,2676,925.5508,2680,915.5508,2676,919.5508" style="stroke:#181818;stroke-width:1.0;"/><line style="stroke:#181818;stroke-width:1.0;" x1="2676" x2="2676" y1="960.6445" y2="995.6445"/><polygon fill="#181818" points="2672,985.6445,2676,995.6445,2680,985.6445,2676,989.6445" style="stroke:#181818;stroke-width:1.0;"/><line style="stroke:#181818;stroke-width:1.0;" x1="2676" x2="2676" y1="1030.7383" y2="1065.7383"/><polygon fill="#181818" points="2672,1055.7383,2676,1065.7383,2680,1055.7383,2676,1059.7383" style="stroke:#181818;stroke-width:1.0;"/><line style="stroke:#181818;stroke-width:1.0;" x1="3045" x2="3045" y1="882.9414" y2="917.9414"/><polygon fill="#181818" points="3041,907.9414,3045,917.9414,3049,907.9414,3045,911.9414" style="stroke:#181818;stroke-width:1.0;"/><line style="stroke:#181818;stroke-width:1.0;" x1="2766" x2="2676" y1="824.0117" y2="824.0117"/><line style="stroke:#181818;stroke-width:1.0;" x1="2676" x2="2676" y1="824.0117" y2="851.6523"/><polygon fill="#181818" points="2672,841.6523,2676,851.6523,2680,841.6523,2676,845.6523" style="stroke:#181818;stroke-width:1.0;"/><line style="stroke:#181818;stroke-width:1.0;" x1="2955" x2="3045" y1="824.0117" y2="824.0117"/><line style="stroke:#181818;stroke-width:1.0;" x1="3045" x2="3045" y1="824.0117" y2="847.8477"/><polygon fill="#181818" points="3041,837.8477,3045,847.8477,3049,837.8477,3045,841.8477" style="stroke:#181818;stroke-width:1.0;"/><line style="stroke:#181818;stroke-width:1.0;" x1="3162" x2="3162" y1="845.2695" y2="880.2695"/><polygon fill="#181818" points="3158,870.2695,3162,880.2695,3166,870.2695,3162,874.2695" style="stroke:#181818;stroke-width:1.0;"/><line style="stroke:#181818;stroke-width:1.0;" x1="2937.75" x2="2860.5" y1="786.3398" y2="786.3398"/><line style="stroke:#181818;stroke-width:1.0;" x1="2860.5" x2="2860.5" y1="786.3398" y2="810.1758"/><polygon fill="#181818" points="2856.5,800.1758,2860.5,810.1758,2864.5,800.1758,2860.5,804.1758" style="stroke:#181818;stroke-width:1.0;"/><line style="stroke:#181818;stroke-width:1.0;" x1="3084.75" x2="3162" y1="786.3398" y2="786.3398"/><line style="stroke:#181818;stroke-width:1.0;" x1="3162" x2="3162" y1="786.3398" y2="810.1758"/><polygon fill="#181818" points="3158,800.1758,3162,810.1758,3166,800.1758,3162,804.1758" style="stroke:#181818;stroke-width:1.0;"/><line style="stroke:#181818;stroke-width:1.0;" x1="84" x2="84" y1="528.4375" y2="604.4414"/><polygon fill="#181818" points="80,594.4414,84,604.4414,88,594.4414,84,598.4414" style="stroke:#181818;stroke-width:1.0;"/><line style="stroke:#181818;stroke-width:1.0;" x1="546.5" x2="546.5" y1="530.2734" y2="576.0898"/><polygon fill="#181818" points="542.5,566.0898,546.5,576.0898,550.5,566.0898,546.5,570.0898" style="stroke:#181818;stroke-width:1.0;"/><line style="stroke:#181818;stroke-width:1.0;" x1="1270.8125" x2="1270.8125" y1="530.2734" y2="576.0898"/><polygon fill="#181818" points="1266.8125,566.0898,1270.8125,576.0898,1274.8125,566.0898,1270.8125,570.0898" style="stroke:#181818;stroke-width:1.0;"/><line style="stroke:#181818;stroke-width:1.0;" x1="148" x2="455.5" y1="516.4375" y2="516.4375"/><polygon fill="#181818" points="445.5,512.4375,455.5,516.4375,445.5,520.4375,449.5,516.4375" style="stroke:#181818;stroke-width:1.0;"/><line style="stroke:#181818;stroke-width:1.0;" x1="637.5" x2="1178.8125" y1="516.4375" y2="516.4375"/><polygon fill="#181818" points="1168.8125,512.4375,1178.8125,516.4375,1168.8125,520.4375,1172.8125,516.4375" style="stroke:#181818;stroke-width:1.0;"/><line style="stroke:#181818;stroke-width:1.0;" x1="1637.75" x2="1637.75" y1="474.0439" y2="482.8486"/><line style="stroke:#181818;stroke-width:1.0;" x1="1637.75" x2="84" y1="482.8486" y2="482.8486"/><line style="stroke:#181818;stroke-width:1.0;" x1="84" x2="84" y1="482.8486" y2="504.4375"/><polygon fill="#181818" points="80,494.4375,84,504.4375,88,494.4375,84,498.4375" style="stroke:#181818;stroke-width:1.0;"/><line style="stroke:#181818;stroke-width:1.0;" x1="1362.8125" x2="3011.25" y1="516.4375" y2="516.4375"/><line style="stroke:#181818;stroke-width:1.0;" x1="3011.25" x2="3011.25" y1="516.4375" y2="772.5039"/><polygon fill="#181818" points="3007.25,762.5039,3011.25,772.5039,3015.25,762.5039,3011.25,766.5039" style="stroke:#181818;stroke-width:1.0;"/><!--SRC=[lLVDRkCs4BxhAIOvBAo3LIVf5gsTP96rbQo1_C5Mb1JTec0isYPMfWoHIf17wANefUYnb_OH-WHzats2FaA7f7veIKxIGsi4iCCP3cU-xviH9PcCALndAOKWuHH6LDAPP0c7BambaHGko6p9q78Q9u-E8oH9fUFqPqiw-wIsgLqdes77XHc9OneD79xWhfGjbj816Ef5e0yqVO8LOHpY95a3apGbwXXqkKWuaqaguEnwV0K7Nm66WpNZ3kKHg61ut8IIIAy_a3YZqCbTtTffU_lTUoQLOnzwtIzxtxp5nLicbx2t5xq78YNbcJdN2ZvCEAOdGIRmaCIIB6WjRBuAHz0XqIpKANm1AhpNS-6lN-70EmZHRqBuWkB9NYz4-FHYTGoRGoTWAmhp98M8tcSBI3AvpkIxZzpNyEprUYlXWbnI3frlgN0nPFywPLpc_epFam4kRYG7yDtrpSJl1bUNVXSh_nxJU3owmm-49k-ZE-_kBjIknyV7S38Cng4FXuU7W3bz_l6FVUzhO-smAAQkMZtCryhqyGURQwnMQu9YGQpaCgLYcSHroeCF4t_wuUfyz4DuTHwSdFc8MnvkbgKfvJ9-CZ93OI2a1RgOYVPpQw0DbTH0Q37Ab7315845JXCc65-07o7o7tdpW3TlO4SgZQAg7wZhA4mLL30DJYQ1Fsh1imlL1anGfXcrrgUg0pIHHx1YSSn4nytDQqe-AP4UGI4Jon2M8ieBpcsQu3xiwlRJxOLPTvM6Sn8DVRis6wg82PLPoc5EOa5L4K8cQyUX-9zMcefcIa1Oh7eGZmP81PP1IX3fQqpMu7IpZXJeAdlJUA85BNLQsHN71GPkNnjX6oQm5PD_KUGf3XUB_CqgTxQNgR3nUOGhbHpyoz5hnA0piGoZpCmnImnrdTHuBdOeTbT2ezr_aMrLRNaKKi4Yd1flrRp0jlaTeiAa_i4nOisHCTVkHgBvD65chTmsqCPQuG2xuveVT7JEhfSxN6H2mZq5JAHhJlLWGWML4bdnThLNMOK-NrjXpb8X5GlM62WfRc6zu1sZuGfqmaP59ay5EuvA4tDRKM7JTIUtAIxWaOXMEZO9CPISga9CB1Ad-8nwAcE-AmYuJ93yOCa4uD-ytE3cP_OlIFe9Y6qQvAP6xaf6RTYL4whcWXfl6rJrG9M42w8jjqAsf-F9D03TAk79-NW4dMX3oAKexCyjOKeA-f4dw2pX1dZFoyLHnxIL-uhzWdzyDbgOMe5BKF7QCSjYDRmMP8qIbOyKkL0kuXbq9OBrtlWgOCHcKzTXtLA1qiKP7bfqQIEewj7zZHxL4b5xP9BW_OWlAfvoVIyiuw0qjfI00hS3wOwjirErgC5GwnU_UV9eYYpPQLPNzZ1U09gAtPBIArJxMjrkKsu-x9iARYsWAJ5RP9ioAxcqIFdxjv_-XE3sIlV354P-u0_nBh43ol0268PGaSrcL0Yu9vpJj6_PF__oyt_wPntrR1cRxLnDkZw0bjIcVLerOR_DVbQrOTF-lvNS8eOfQbay2KbNwdKd4zuwVwcfANLGRu1d7c8DgGMJ6x-cj38Xl5RRl_ABjb4W3WPr0jvjTbwyt1JNX2qp5oTHIyQcjjexXucZEZ3HRoUc2TiQzBWsoFB1R7QMmzWeNffLMA7izIlMrXxPpGFWexZzyU4q9zappvDNt3XU-TpHSteg4OuYDVV5xHMtpaQOCRvgcPSQzzbBJwK8_VKF]--></g></svg>