<svg xmlns="http://www.w3.org/2000/svg" xmlns:xlink="http://www.w3.org/1999/xlink" contentStyleType="text/css" height="287px" preserveAspectRatio="none" style="width:1536px;height:287px;background:#FFFFFF;" version="1.1" viewBox="0 0 1536 287" width="1536px" zoomAndPan="magnify"><title>SCS Interface Control Document - Byte Structure</title><defs/><g><text fill="#000000" font-family="sans-serif" font-size="14" font-weight="bold" lengthAdjust="spacing" textLength="325.9375" x="598.0313" y="24.5332">SCS Interface Control Document - Byte Structure</text><!--cluster CONTROL Byte--><g id="cluster_CONTROL Byte"><path d="M8.5,119.1094 L112.9482,119.1094 A3.75,3.75 0 0 1 115.4482,121.6094 L122.4482,142.7188 L223.5,142.7188 A2.5,2.5 0 0 1 226,145.2188 L226,199.6094 A2.5,2.5 0 0 1 223.5,202.1094 L8.5,202.1094 A2.5,2.5 0 0 1 6,199.6094 L6,121.6094 A2.5,2.5 0 0 1 8.5,119.1094 " fill="#E0FFFF" style="stroke:#000000;stroke-width:1.5;"/><line style="stroke:#000000;stroke-width:1.5;" x1="6" x2="122.4482" y1="142.7188" y2="142.7188"/><text fill="#000000" font-family="sans-serif" font-size="14" font-weight="bold" lengthAdjust="spacing" textLength="103.4482" x="10" y="135.6426">CONTROL Byte</text></g><!--cluster DATA Byte--><g id="cluster_DATA Byte"><path d="M398.5,119.1094 L472.6172,119.1094 A3.75,3.75 0 0 1 475.1172,121.6094 L482.1172,142.7188 L629.5,142.7188 A2.5,2.5 0 0 1 632,145.2188 L632,199.6094 A2.5,2.5 0 0 1 629.5,202.1094 L398.5,202.1094 A2.5,2.5 0 0 1 396,199.6094 L396,121.6094 A2.5,2.5 0 0 1 398.5,119.1094 " fill="#90EE90" style="stroke:#000000;stroke-width:1.5;"/><line style="stroke:#000000;stroke-width:1.5;" x1="396" x2="482.1172" y1="142.7188" y2="142.7188"/><text fill="#000000" font-family="sans-serif" font-size="14" font-weight="bold" lengthAdjust="spacing" textLength="73.1172" x="400" y="135.6426">DATA Byte</text></g><!--cluster Speed Command Example--><g id="cluster_Speed Command Example"><rect fill="#F0F8FF" height="170" rx="2.5" ry="2.5" style="stroke:#000000;stroke-width:1.0;" width="240" x="802" y="78.6094"/><text fill="#000000" font-family="Arial" font-size="10" font-weight="bold" lengthAdjust="spacing" textLength="125.5908" x="859.2046" y="89.9893">Speed Command Example</text></g><!--cluster Rotation Command Example--><g id="cluster_Rotation Command Example"><rect fill="#F0FFF0" height="187" rx="2.5" ry="2.5" style="stroke:#000000;stroke-width:1.0;" width="234" x="1066" y="70.1094"/><text fill="#000000" font-family="Arial" font-size="10" font-weight="bold" lengthAdjust="spacing" textLength="136.1279" x="1114.936" y="81.4893">Rotation Command Example</text></g><!--cluster Data Consumption--><g id="cluster_Data Consumption"><rect fill="#E6E6FA" height="236" rx="2.5" ry="2.5" style="stroke:#000000;stroke-width:1.0;" width="206" x="1324" y="45.6094"/><text fill="#000000" font-family="Arial" font-size="10" font-weight="bold" lengthAdjust="spacing" textLength="88.8867" x="1382.5566" y="56.9893">Data Consumption</text></g><!--entity sys--><g id="elem_sys"><rect fill="#00FFFF" height="31.499" rx="2.5" ry="2.5" style="stroke:#000000;stroke-width:0.5;" width="40.0098" x="99" y="155.1094"/><text fill="#000000" font-family="Arial" font-size="10" lengthAdjust="spacing" textLength="20.0098" x="109" y="174.4893">SYS</text></g><!--entity sub--><g id="elem_sub"><rect fill="#00FFFF" height="31.499" rx="2.5" ry="2.5" style="stroke:#000000;stroke-width:0.5;" width="40.5615" x="22.5" y="155.1094"/><text fill="#000000" font-family="Arial" font-size="10" lengthAdjust="spacing" textLength="20.5615" x="32.5" y="174.4893">SUB</text></g><!--entity ist--><g id="elem_ist"><rect fill="#00BFFF" height="31.499" rx="2.5" ry="2.5" style="stroke:#000000;stroke-width:0.5;" width="35.5566" x="174" y="155.1094"/><text fill="#000000" font-family="Arial" font-size="10" font-weight="bold" lengthAdjust="spacing" textLength="15.5566" x="184" y="174.4893">IST</text></g><!--entity dat1--><g id="elem_dat1"><rect fill="#32CD32" height="31.499" rx="2.5" ry="2.5" style="stroke:#000000;stroke-width:0.5;" width="45.5615" x="493" y="155.1094"/><text fill="#000000" font-family="Arial" font-size="10" lengthAdjust="spacing" textLength="25.5615" x="503" y="174.4893">DAT1</text></g><!--entity dat0--><g id="elem_dat0"><rect fill="#32CD32" height="31.499" rx="2.5" ry="2.5" style="stroke:#000000;stroke-width:0.5;" width="45.5615" x="412" y="155.1094"/><text fill="#000000" font-family="Arial" font-size="10" lengthAdjust="spacing" textLength="25.5615" x="422" y="174.4893">DAT0</text></g><!--entity dec--><g id="elem_dec"><rect fill="#008000" height="31.499" rx="2.5" ry="2.5" style="stroke:#000000;stroke-width:0.5;" width="41.1133" x="574.5" y="155.1094"/><text fill="#000000" font-family="Arial" font-size="10" font-weight="bold" lengthAdjust="spacing" textLength="21.1133" x="584.5" y="174.4893">DEC</text></g><g id="elem_speed_note"><path d="M818,108.6094 L818,233.0703 L1026.0464,233.0703 L1026.0464,118.6094 L1016.0464,108.6094 L818,108.6094 " fill="#FFFFE0" style="stroke:#000000;stroke-width:0.5;"/><path d="M1016.0464,108.6094 L1016.0464,118.6094 L1026.0464,118.6094 L1016.0464,108.6094 " fill="#FFFFE0" style="stroke:#000000;stroke-width:1.0;"/><text fill="#000000" font-family="sans-serif" font-size="13" font-weight="bold" lengthAdjust="spacing" textLength="165.4072" x="824" y="127.1045">Forward Speed Command:</text><text fill="#000000" font-family="sans-serif" font-size="13" lengthAdjust="spacing" textLength="180.978" x="824" y="143.4561">CONTROL: &lt;SYS:SUB:IST=3&gt;</text><text fill="#000000" font-family="sans-serif" font-size="13" lengthAdjust="spacing" textLength="173.0308" x="824" y="159.8076">DATA: &lt;DAT1:DAT0:DEC=0&gt;</text><text fill="#000000" font-family="sans-serif" font-size="13" lengthAdjust="spacing" textLength="3.6118" x="824" y="176.1592">&#160;</text><text fill="#000000" font-family="sans-serif" font-size="13" font-weight="bold" lengthAdjust="spacing" textLength="145.8755" x="824" y="192.5107">Little-Endian Encoding:</text><text fill="#000000" font-family="sans-serif" font-size="13" lengthAdjust="spacing" textLength="187.0464" x="824" y="208.8623">&#8226; DAT1 = v&#7487; (right wheel) [mm/s]</text><text fill="#000000" font-family="sans-serif" font-size="13" lengthAdjust="spacing" textLength="177.8042" x="824" y="225.2139">&#8226; DAT0 = v&#7480; (left wheel) [mm/s]</text></g><g id="elem_rot_note"><path d="M1082,100.1094 L1082,240.9219 L1283.978,240.9219 L1283.978,110.1094 L1273.978,100.1094 L1082,100.1094 " fill="#FFFFE0" style="stroke:#000000;stroke-width:0.5;"/><path d="M1273.978,100.1094 L1273.978,110.1094 L1283.978,110.1094 L1273.978,100.1094 " fill="#FFFFE0" style="stroke:#000000;stroke-width:1.0;"/><text fill="#000000" font-family="sans-serif" font-size="13" font-weight="bold" lengthAdjust="spacing" textLength="101.9624" x="1088" y="118.6045">Right Turn (90&#176;):</text><text fill="#000000" font-family="sans-serif" font-size="13" lengthAdjust="spacing" textLength="180.978" x="1088" y="134.9561">CONTROL: &lt;SYS:SUB:IST=3&gt;</text><text fill="#000000" font-family="sans-serif" font-size="13" lengthAdjust="spacing" textLength="134.7671" x="1088" y="151.3076">DATA: &lt;angle:DEC=3&gt;</text><text fill="#000000" font-family="sans-serif" font-size="13" lengthAdjust="spacing" textLength="3.6118" x="1088" y="167.6592">&#160;</text><text fill="#000000" font-family="sans-serif" font-size="13" font-weight="bold" lengthAdjust="spacing" textLength="103.27" x="1088" y="184.0107">Angle Encoding:</text><text fill="#000000" font-family="sans-serif" font-size="13" lengthAdjust="spacing" textLength="153.4419" x="1088" y="200.3623">&#8226; Absolute turn angle [deg]</text><text fill="#000000" font-family="sans-serif" font-size="13" lengthAdjust="spacing" textLength="88.7339" x="1088" y="216.7139">&#8226; Right: DEC=3</text><text fill="#000000" font-family="sans-serif" font-size="13" lengthAdjust="spacing" textLength="80.0693" x="1088" y="233.0654">&#8226; Left: DEC=2</text></g><g id="elem_consume_note"><path d="M1340,75.6094 L1340,265.4766 L1514.3086,265.4766 L1514.3086,85.6094 L1504.3086,75.6094 L1340,75.6094 " fill="#FFFFE0" style="stroke:#000000;stroke-width:0.5;"/><path d="M1504.3086,75.6094 L1504.3086,85.6094 L1514.3086,85.6094 L1504.3086,75.6094 " fill="#FFFFE0" style="stroke:#000000;stroke-width:1.0;"/><text fill="#000000" font-family="sans-serif" font-size="13" font-weight="bold" lengthAdjust="spacing" textLength="134.3481" x="1346" y="94.1045">SNC Consumes from:</text><text fill="#000000" font-family="sans-serif" font-size="13" lengthAdjust="spacing" textLength="3.6118" x="1346" y="110.4561">&#160;</text><text fill="#000000" font-family="sans-serif" font-size="13" font-weight="bold" lengthAdjust="spacing" textLength="41.8882" x="1346" y="126.8076">MDPS:</text><text fill="#000000" font-family="sans-serif" font-size="13" lengthAdjust="spacing" textLength="138.4995" x="1346" y="143.1592">&#8226; SPEED (v&#7487;, v&#7480;) [mm/s]</text><text fill="#000000" font-family="sans-serif" font-size="13" lengthAdjust="spacing" textLength="131.6885" x="1346" y="159.5107">&#8226; DIST (distance) [mm]</text><text fill="#000000" font-family="sans-serif" font-size="13" lengthAdjust="spacing" textLength="124.4902" x="1346" y="175.8623">&#8226; ROT (rotation) [deg]</text><text fill="#000000" font-family="sans-serif" font-size="13" lengthAdjust="spacing" textLength="3.6118" x="1346" y="192.2139">&#160;</text><text fill="#000000" font-family="sans-serif" font-size="13" font-weight="bold" lengthAdjust="spacing" textLength="21.6709" x="1346" y="208.5654">SS:</text><text fill="#000000" font-family="sans-serif" font-size="13" lengthAdjust="spacing" textLength="149.0112" x="1346" y="224.917">&#8226; COLOURS (W/R/G/B/K)</text><text fill="#000000" font-family="sans-serif" font-size="13" lengthAdjust="spacing" textLength="153.3086" x="1346" y="241.2686">&#8226; &#952;&#7522; (incidence angle) [deg]</text><text fill="#000000" font-family="sans-serif" font-size="13" lengthAdjust="spacing" textLength="146.8848" x="1346" y="257.6201">&#8226; EoM (End-of-Maze flag)</text></g><g id="elem_GMN6"><path d="M245,141.1094 L245,166.6094 L210.13,170.6094 L245,174.6094 L245,200.1641 A0,0 0 0 0 245,200.1641 L377.2617,200.1641 A0,0 0 0 0 377.2617,200.1641 L377.2617,151.1094 L367.2617,141.1094 L245,141.1094 A0,0 0 0 0 245,141.1094 " fill="#FFFFE0" style="stroke:#000000;stroke-width:0.5;"/><path d="M367.2617,141.1094 L367.2617,151.1094 L377.2617,151.1094 L367.2617,141.1094 " fill="#FFFFE0" style="stroke:#000000;stroke-width:0.5;"/><text fill="#000000" font-family="sans-serif" font-size="13" font-weight="bold" lengthAdjust="spacing" textLength="42.269" x="251" y="159.6045">IST = 3</text><text fill="#000000" font-family="sans-serif" font-size="13" lengthAdjust="spacing" textLength="111.2617" x="251" y="175.9561">Indicates NAVCON</text><text fill="#000000" font-family="sans-serif" font-size="13" lengthAdjust="spacing" textLength="57.0781" x="251" y="192.3076">command</text></g><g id="elem_GMN13"><path d="M651,116.6094 L651,166.6094 L615.97,170.6094 L651,174.6094 L651,224.7188 A0,0 0 0 0 651,224.7188 L783.249,224.7188 A0,0 0 0 0 783.249,224.7188 L783.249,126.6094 L773.249,116.6094 L651,116.6094 A0,0 0 0 0 651,116.6094 " fill="#FFFFE0" style="stroke:#000000;stroke-width:0.5;"/><path d="M773.249,116.6094 L773.249,126.6094 L783.249,126.6094 L773.249,116.6094 " fill="#FFFFE0" style="stroke:#000000;stroke-width:0.5;"/><text fill="#000000" font-family="sans-serif" font-size="13" font-weight="bold" lengthAdjust="spacing" textLength="111.249" x="657" y="135.1045">DEC Field Values:</text><text fill="#000000" font-family="sans-serif" font-size="13" lengthAdjust="spacing" textLength="107.8975" x="657" y="151.4561">&#8226; 0: Speed forward</text><text fill="#000000" font-family="sans-serif" font-size="13" lengthAdjust="spacing" textLength="107.8975" x="657" y="167.8076">&#8226; 1: Speed reverse</text><text fill="#000000" font-family="sans-serif" font-size="13" lengthAdjust="spacing" textLength="82.6021" x="657" y="184.1592">&#8226; 2: Rotate left</text><text fill="#000000" font-family="sans-serif" font-size="13" lengthAdjust="spacing" textLength="90.5493" x="657" y="200.5107">&#8226; 3: Rotate right</text><text fill="#000000" font-family="sans-serif" font-size="13" lengthAdjust="spacing" textLength="90.543" x="657" y="216.8623">&#8226; 4-7: Reserved</text></g><!--SRC=[dPN1Rjf048RlVefHk81L18HALQqc4XZIHYKGOP8eYgfgOm_4YhsBrciehIBrMV84FRHIRfNw07s7z4awktPSS4WEzSqpltVc_sPOakkGpvbaCKZq5UEp2E6B1VHqcNyzaoBbWIiY8U7iAbIOPOGCK6RHRaGo4pqGN7dXPuHMitWViXYX8qCMMJUMbHIrk51FbHc4iojrZb4abayKevDKgAXFp_NWa2kKK-OZk5HFYWXwmazZv0hgq5rH6K_9r5UfHCkQq-TiXh3ZZeQJyMXW13jGCJNT5UDvJ_zGx7ZdtWwm199L0XKjUIGuwMQ2z7AxmBOFlObj6r6OAAZq4EVUzQeRfQYz61PITm1YgXNc0FCLx47Rjitx8Gz2dobCODWvfVPDq1Tnp7XW8GyCqZM7lSwais7lhKJSuezqBTDQm5HBIsCqoYswveEk-OpEjdjzDtSRe0-LJFN89-LodwI7Wn2Z04uP8KcStF6VhxVGTC2R8mOm5NB9P50aMWy9YGkK2HQ9NGV6GX4eY72gYd2x29iEYlZB-YlAO89oWUiSrmTiwhWPQkX_Ol4yqbGxKUYZ7c8ErVZJYw3r7yqna3-sVP3r3nk7FJZLJxwH3hoXZNDegHoQ_rvxln3eWL9MpylHmt28srvptrehCWWL_IpgVLeLMkK-zqKGyjbw5MrPdq2BjRZ__XEgsJoMLuXH3IxYk95yA8kRcVWEgfhe5cr1xMQ3c-4T2hu5tJl1SHNWiaHE2bNcDZRzJLB9eVgw-UjRxN-OcOOCh_O6huvfz2bEdSj4H2brfdJrpDH5WBDDGAP11ypX6ua1mShYkyzHwZ75zDMLfF5Sqz8_LxOWCSeI7T-8i4p86xhvztGtJAM8jO-r_57ls2jRyuxx_HvKzGgyCBFTFdjz0rK3kf4Ozz58Ijv7b9Vvc6ivdFNM7XLsHuFHoTY3wbbZt7ZRw3RUrpRol-_kVzn2DUH-620LpR3Njd3lYoEeqgRNnRH-nEXVPngnMQrC-Yy0]--></g></svg>