<svg xmlns="http://www.w3.org/2000/svg" xmlns:xlink="http://www.w3.org/1999/xlink" contentStyleType="text/css" height="1119px" preserveAspectRatio="none" style="width:390px;height:1119px;background:#FFFFFF;" version="1.1" viewBox="0 0 390 1119" width="390px" zoomAndPan="magnify"><defs/><g><!--cluster Pure Tone Detection Signal Chain (2800 Hz)--><g id="cluster_Pure Tone Detection Signal Chain (2800 Hz)"><path d="M8.5,6 L299.665,6 A3.75,3.75 0 0 1 302.165,8.5 L309.165,29.6094 L380.5,29.6094 A2.5,2.5 0 0 1 383,32.1094 L383,954.5 A2.5,2.5 0 0 1 380.5,957 L8.5,957 A2.5,2.5 0 0 1 6,954.5 L6,8.5 A2.5,2.5 0 0 1 8.5,6 " fill="none" style="stroke:#000000;stroke-width:1.5;"/><line style="stroke:#000000;stroke-width:1.5;" x1="6" x2="309.165" y1="29.6094" y2="29.6094"/><text fill="#000000" font-family="sans-serif" font-size="14" font-weight="bold" lengthAdjust="spacing" textLength="290.165" x="10" y="22.5332">Pure Tone Detection Signal Chain (2800 Hz)</text></g><!--entity MIC--><g id="elem_MIC"><rect fill="#ADD8E6" height="52.998" rx="2.5" ry="2.5" style="stroke:#000000;stroke-width:0.5;" width="92.251" x="31" y="45"/><rect fill="#ADD8E6" height="10" style="stroke:#000000;stroke-width:0.5;" width="15" x="103.251" y="50"/><rect fill="#ADD8E6" height="2" style="stroke:#000000;stroke-width:0.5;" width="4" x="101.251" y="52"/><rect fill="#ADD8E6" height="2" style="stroke:#000000;stroke-width:0.5;" width="4" x="101.251" y="56"/><text fill="#000000" font-family="Arial" font-size="10" lengthAdjust="spacing" textLength="33.9014" x="46" y="74.3799">Electret</text><text fill="#000000" font-family="Arial" font-size="10" lengthAdjust="spacing" textLength="52.251" x="46" y="85.8789">Microphone</text></g><g id="elem_GMN4"><path d="M158,42 L158,67.5 L123.08,71.5 L158,75.5 L158,101.0547 A0,0 0 0 0 158,101.0547 L325.5928,101.0547 A0,0 0 0 0 325.5928,101.0547 L325.5928,52 L315.5928,42 L158,42 A0,0 0 0 0 158,42 " fill="#FEFFDD" style="stroke:#181818;stroke-width:0.5;"/><path d="M315.5928,42 L315.5928,52 L325.5928,52 L315.5928,42 " fill="#FEFFDD" style="stroke:#181818;stroke-width:0.5;"/><text fill="#000000" font-family="sans-serif" font-size="13" lengthAdjust="spacing" textLength="73.6836" x="164" y="60.4951">MIC E1 PCB</text><text fill="#000000" font-family="sans-serif" font-size="13" lengthAdjust="spacing" textLength="146.5928" x="164" y="76.8467">Sensitivity: -60&#177;3 dBV/Pa</text><text fill="#000000" font-family="sans-serif" font-size="13" lengthAdjust="spacing" textLength="114.8291" x="164" y="93.1982">60 dB SPL &#8594; 20 &#181;V</text></g><!--entity PREAMP--><g id="elem_PREAMP"><rect fill="#ADD8E6" height="41.499" rx="2.5" ry="2.5" style="stroke:#000000;stroke-width:0.5;" width="93.3496" x="30.5" y="191"/><rect fill="#ADD8E6" height="10" style="stroke:#000000;stroke-width:0.5;" width="15" x="103.8496" y="196"/><rect fill="#ADD8E6" height="2" style="stroke:#000000;stroke-width:0.5;" width="4" x="101.8496" y="198"/><rect fill="#ADD8E6" height="2" style="stroke:#000000;stroke-width:0.5;" width="4" x="101.8496" y="202"/><text fill="#000000" font-family="Arial" font-size="10" lengthAdjust="spacing" textLength="53.3496" x="45.5" y="220.3799">Preamplifier</text></g><g id="elem_GMN8"><path d="M158.5,174 L158.5,207.5 L123.51,211.5 L158.5,215.5 L158.5,249.4063 A0,0 0 0 0 158.5,249.4063 L319.3325,249.4063 A0,0 0 0 0 319.3325,249.4063 L319.3325,184 L309.3325,174 L158.5,174 A0,0 0 0 0 158.5,174 " fill="#FEFFDD" style="stroke:#181818;stroke-width:0.5;"/><path d="M309.3325,174 L309.3325,184 L319.3325,184 L309.3325,174 " fill="#FEFFDD" style="stroke:#181818;stroke-width:0.5;"/><text fill="#000000" font-family="sans-serif" font-size="13" lengthAdjust="spacing" textLength="138.7344" x="164.5" y="192.4951">Non-inverting MCP6024</text><text fill="#000000" font-family="sans-serif" font-size="13" lengthAdjust="spacing" textLength="139.8325" x="164.5" y="208.8467">Gain: 40 dB (A_v = 101)</text><text fill="#000000" font-family="sans-serif" font-size="13" lengthAdjust="spacing" textLength="68.6245" x="164.5" y="225.1982">BW: 99 kHz</text><text fill="#000000" font-family="sans-serif" font-size="13" lengthAdjust="spacing" textLength="93.8564" x="164.5" y="241.5498">20 &#181;V &#8594; 2.0 mV</text></g><!--entity BPF--><g id="elem_BPF"><rect fill="#ADD8E6" height="52.998" rx="2.5" ry="2.5" style="stroke:#000000;stroke-width:0.5;" width="109.4775" x="22.5" y="341.5"/><rect fill="#ADD8E6" height="10" style="stroke:#000000;stroke-width:0.5;" width="15" x="111.9775" y="346.5"/><rect fill="#ADD8E6" height="2" style="stroke:#000000;stroke-width:0.5;" width="4" x="109.9775" y="348.5"/><rect fill="#ADD8E6" height="2" style="stroke:#000000;stroke-width:0.5;" width="4" x="109.9775" y="352.5"/><text fill="#000000" font-family="Arial" font-size="10" lengthAdjust="spacing" textLength="42.793" x="37.5" y="370.8799">4th-Order</text><text fill="#000000" font-family="Arial" font-size="10" lengthAdjust="spacing" textLength="69.4775" x="37.5" y="382.3789">Bandpass Filter</text></g><g id="elem_GMN12"><path d="M167,322 L167,364 L131.69,368 L167,372 L167,413.7578 A0,0 0 0 0 167,413.7578 L352.5947,413.7578 A0,0 0 0 0 352.5947,413.7578 L352.5947,332 L342.5947,322 L167,322 A0,0 0 0 0 167,322 " fill="#FEFFDD" style="stroke:#181818;stroke-width:0.5;"/><path d="M342.5947,322 L342.5947,332 L352.5947,332 L342.5947,322 " fill="#FEFFDD" style="stroke:#181818;stroke-width:0.5;"/><text fill="#000000" font-family="sans-serif" font-size="13" lengthAdjust="spacing" textLength="131.5044" x="173" y="340.4951">Cascaded MFB stages</text><text fill="#000000" font-family="sans-serif" font-size="13" lengthAdjust="spacing" textLength="128.4575" x="173" y="356.8467">f&#8320; = 2800 Hz (Q &#8776; 2.6)</text><text fill="#000000" font-family="sans-serif" font-size="13" lengthAdjust="spacing" textLength="118.8599" x="173" y="373.1982">-3 dB BW = 1080 Hz</text><text fill="#000000" font-family="sans-serif" font-size="13" lengthAdjust="spacing" textLength="164.5947" x="173" y="389.5498">Rejection: &gt;70 dB @ 400 Hz</text><text fill="#000000" font-family="sans-serif" font-size="13" lengthAdjust="spacing" textLength="95.2148" x="212.73" y="405.9014">&gt;65 dB @ 1 kHz</text></g><!--entity ENV--><g id="elem_ENV"><rect fill="#ADD8E6" height="52.998" rx="2.5" ry="2.5" style="stroke:#000000;stroke-width:0.5;" width="81.6992" x="22" y="517.5"/><rect fill="#ADD8E6" height="10" style="stroke:#000000;stroke-width:0.5;" width="15" x="83.6992" y="522.5"/><rect fill="#ADD8E6" height="2" style="stroke:#000000;stroke-width:0.5;" width="4" x="81.6992" y="524.5"/><rect fill="#ADD8E6" height="2" style="stroke:#000000;stroke-width:0.5;" width="4" x="81.6992" y="528.5"/><text fill="#000000" font-family="Arial" font-size="10" lengthAdjust="spacing" textLength="41.6992" x="37" y="546.8799">Envelope</text><text fill="#000000" font-family="Arial" font-size="10" lengthAdjust="spacing" textLength="37.793" x="37" y="558.3789">Detector</text></g><g id="elem_GMN16"><path d="M139.5,498 L139.5,540 L104.19,544 L139.5,548 L139.5,589.7578 A0,0 0 0 0 139.5,589.7578 L366.0435,589.7578 A0,0 0 0 0 366.0435,589.7578 L366.0435,508 L356.0435,498 L139.5,498 A0,0 0 0 0 139.5,498 " fill="#FEFFDD" style="stroke:#181818;stroke-width:0.5;"/><path d="M356.0435,498 L356.0435,508 L366.0435,508 L356.0435,498 " fill="#FEFFDD" style="stroke:#181818;stroke-width:0.5;"/><text fill="#000000" font-family="sans-serif" font-size="13" lengthAdjust="spacing" textLength="128.6289" x="145.5" y="516.4951">BAT48 Schottky diode</text><text fill="#000000" font-family="sans-serif" font-size="13" lengthAdjust="spacing" textLength="205.5435" x="145.5" y="532.8467">RC smoothing: R=100k&#937;, C=330nF</text><text fill="#000000" font-family="sans-serif" font-size="13" lengthAdjust="spacing" textLength="55.3516" x="145.5" y="549.1982">&#964; = 33 ms</text><text fill="#000000" font-family="sans-serif" font-size="13" lengthAdjust="spacing" textLength="96.8018" x="145.5" y="565.5498">Rise time: 68 ms</text><text fill="#000000" font-family="sans-serif" font-size="13" lengthAdjust="spacing" textLength="114.5435" x="145.5" y="581.9014">Ripple: &lt;0.8 mV_pp</text></g><!--entity COMP--><g id="elem_COMP"><rect fill="#ADD8E6" height="41.499" rx="2.5" ry="2.5" style="stroke:#000000;stroke-width:0.5;" width="92.7979" x="22.5" y="691"/><rect fill="#ADD8E6" height="10" style="stroke:#000000;stroke-width:0.5;" width="15" x="95.2979" y="696"/><rect fill="#ADD8E6" height="2" style="stroke:#000000;stroke-width:0.5;" width="4" x="93.2979" y="698"/><rect fill="#ADD8E6" height="2" style="stroke:#000000;stroke-width:0.5;" width="4" x="93.2979" y="702"/><text fill="#000000" font-family="Arial" font-size="10" lengthAdjust="spacing" textLength="52.7979" x="37.5" y="720.3799">Comparator</text></g><g id="elem_GMN20"><path d="M150.5,674 L150.5,707.5 L115.66,711.5 L150.5,715.5 L150.5,749.4063 A0,0 0 0 0 150.5,749.4063 L349.6025,749.4063 A0,0 0 0 0 349.6025,749.4063 L349.6025,684 L339.6025,674 L150.5,674 A0,0 0 0 0 150.5,674 " fill="#FEFFDD" style="stroke:#181818;stroke-width:0.5;"/><path d="M339.6025,674 L339.6025,684 L349.6025,684 L339.6025,674 " fill="#FEFFDD" style="stroke:#181818;stroke-width:0.5;"/><text fill="#000000" font-family="sans-serif" font-size="13" lengthAdjust="spacing" textLength="95.3862" x="156.5" y="692.4951">Threshold: 1.5 V</text><text fill="#000000" font-family="sans-serif" font-size="13" lengthAdjust="spacing" textLength="166.8354" x="156.5" y="708.8467">Resistive divider: 35k&#937;/15k&#937;</text><text fill="#000000" font-family="sans-serif" font-size="13" lengthAdjust="spacing" textLength="178.1025" x="156.5" y="725.1982">Hysteresis: ~100 mV (optional)</text><text fill="#000000" font-family="sans-serif" font-size="13" lengthAdjust="spacing" textLength="106.9517" x="156.5" y="741.5498">Output: 0/5 V logic</text></g><!--entity GPIO--><g id="elem_GPIO"><rect fill="#ADD8E6" height="52.998" rx="2.5" ry="2.5" style="stroke:#000000;stroke-width:0.5;" width="71.1328" x="33.5" y="860.5"/><rect fill="#ADD8E6" height="10" style="stroke:#000000;stroke-width:0.5;" width="15" x="84.6328" y="865.5"/><rect fill="#ADD8E6" height="2" style="stroke:#000000;stroke-width:0.5;" width="4" x="82.6328" y="867.5"/><rect fill="#ADD8E6" height="2" style="stroke:#000000;stroke-width:0.5;" width="4" x="82.6328" y="871.5"/><text fill="#000000" font-family="Arial" font-size="10" lengthAdjust="spacing" textLength="31.1328" x="48.5" y="889.8799">ESP32</text><text fill="#000000" font-family="Arial" font-size="10" lengthAdjust="spacing" textLength="25.0049" x="48.5" y="901.3789">GPIO</text></g><g id="elem_GMN24"><path d="M140,833 L140,941.1094 L279.5171,941.1094 L279.5171,843 L269.5171,833 L140,833 " fill="#FEFFDD" style="stroke:#181818;stroke-width:0.5;"/><path d="M269.5171,833 L269.5171,843 L279.5171,843 L269.5171,833 " fill="#FEFFDD" style="stroke:#181818;stroke-width:1.0;"/><text fill="#000000" font-family="sans-serif" font-size="13" lengthAdjust="spacing" textLength="67.9263" x="146" y="851.4951">Digital input</text><text fill="#000000" font-family="sans-serif" font-size="13" lengthAdjust="spacing" textLength="102.6162" x="146" y="867.8467">Internal pull-down</text><text fill="#000000" font-family="sans-serif" font-size="13" lengthAdjust="spacing" textLength="88.1499" x="146" y="884.1982">Interrupt-driven</text><text fill="#000000" font-family="sans-serif" font-size="13" lengthAdjust="spacing" textLength="118.5171" x="146" y="900.5498">Dual-tone validation:</text><text fill="#000000" font-family="sans-serif" font-size="13" lengthAdjust="spacing" textLength="107.6436" x="146" y="916.9014">Two hits (0.5-1.0s)</text><text fill="#000000" font-family="sans-serif" font-size="13" lengthAdjust="spacing" textLength="97.5444" x="146" y="933.2529">within 2s window</text></g><g id="elem_GMN32"><path d="M53.5,1004 L53.5,1112.1094 L366.6382,1112.1094 L366.6382,1014 L356.6382,1004 L53.5,1004 " fill="#FEFFDD" style="stroke:#181818;stroke-width:0.5;"/><path d="M356.6382,1004 L356.6382,1014 L366.6382,1014 L356.6382,1004 " fill="#FEFFDD" style="stroke:#181818;stroke-width:1.0;"/><text fill="#000000" font-family="sans-serif" font-size="13" font-weight="bold" lengthAdjust="spacing" textLength="133.6689" x="59.5" y="1022.4951">System Performance:</text><text fill="#000000" font-family="sans-serif" font-size="13" lengthAdjust="spacing" textLength="231.0737" x="59.5" y="1038.8467">&#8226; Detection latency: &lt;50 ms (avg 78 ms)</text><text fill="#000000" font-family="sans-serif" font-size="13" lengthAdjust="spacing" textLength="271.394" x="59.5" y="1055.1982">&#8226; Range: &#8805;15 cm (exceeds 10 cm requirement)</text><text fill="#000000" font-family="sans-serif" font-size="13" lengthAdjust="spacing" textLength="264.6655" x="59.5" y="1071.5498">&#8226; False alarm rate: 0% (10 min ambient noise)</text><text fill="#000000" font-family="sans-serif" font-size="13" lengthAdjust="spacing" textLength="292.1382" x="59.5" y="1087.9014">&#8226; Dual-hit validation: 100% success (50 test cases)</text><text fill="#000000" font-family="sans-serif" font-size="13" lengthAdjust="spacing" textLength="138.0615" x="59.5" y="1104.2529">&#8226; Power: &lt;50 mA @ 5 V</text></g><!--link GPIO to GMN24--><g id="link_GPIO_GMN24"><path d="M104.53,887 C116.34,887 128.15,887 139.96,887 " fill="none" id="GPIO-GMN24" style="stroke:#000000;stroke-width:1.0;stroke-dasharray:7.0,7.0;"/></g><!--link MIC to PREAMP--><g id="link_MIC_PREAMP"><path d="M77,98.13 C77,124.95 77,160.45 77,184.81 " fill="none" id="MIC-to-PREAMP" style="stroke:#000000;stroke-width:1.0;"/><polygon fill="#000000" points="77,190.81,81,181.81,77,185.81,73,181.81,77,190.81" style="stroke:#000000;stroke-width:1.0;"/><text fill="#000000" font-family="sans-serif" font-size="9" lengthAdjust="spacing" textLength="38.7026" x="78" y="141.3428">20 &#181;V AC</text></g><!--link PREAMP to BPF--><g id="link_PREAMP_BPF"><path d="M77,232.07 C77,259.84 77,304.71 77,335.44 " fill="none" id="PREAMP-to-BPF" style="stroke:#000000;stroke-width:1.0;"/><polygon fill="#000000" points="77,341.44,81,332.44,77,336.44,73,332.44,77,341.44" style="stroke:#000000;stroke-width:1.0;"/><text fill="#000000" font-family="sans-serif" font-size="9" lengthAdjust="spacing" textLength="43.5146" x="78" y="289.3428">2.0 mV AC</text></g><!--link BPF to ENV--><g id="link_BPF_ENV"><path d="M74.93,394.67 C72.29,427.57 68.2128,478.2895 65.5528,511.2395 " fill="none" id="BPF-to-ENV" style="stroke:#000000;stroke-width:1.0;"/><polygon fill="#000000" points="65.07,517.22,69.7812,508.5711,65.4723,512.2362,61.8072,507.9273,65.07,517.22" style="stroke:#000000;stroke-width:1.0;"/><text fill="#000000" font-family="sans-serif" font-size="9" lengthAdjust="spacing" textLength="30.0103" x="73.7556" y="454.3428">Filtered</text><text fill="#000000" font-family="sans-serif" font-size="9" lengthAdjust="spacing" textLength="33.5215" x="72" y="465.6631">2800 Hz</text></g><!--link ENV to COMP--><g id="link_ENV_COMP"><path d="M63.94,570.86 C65.14,603.95 66.9719,654.574 68.0619,684.544 " fill="none" id="ENV-to-COMP" style="stroke:#000000;stroke-width:1.0;"/><polygon fill="#000000" points="68.28,690.54,71.9502,681.4006,68.0983,685.5433,63.9555,681.6913,68.28,690.54" style="stroke:#000000;stroke-width:1.0;"/><text fill="#000000" font-family="sans-serif" font-size="9" lengthAdjust="spacing" textLength="52.0313" x="68" y="630.3428">DC envelope</text><text fill="#000000" font-family="sans-serif" font-size="9" lengthAdjust="spacing" textLength="42.5171" x="72.7571" y="641.6631">(1.0-3.0 V)</text></g><!--link COMP to GPIO--><g id="link_COMP_GPIO"><path d="M69,732.07 C69,763.53 69,819.36 69,854.33 " fill="none" id="COMP-to-GPIO" style="stroke:#000000;stroke-width:1.0;"/><polygon fill="#000000" points="69,860.33,73,851.33,69,855.33,65,851.33,69,860.33" style="stroke:#000000;stroke-width:1.0;"/><text fill="#000000" font-family="sans-serif" font-size="9" lengthAdjust="spacing" textLength="25.0093" x="70" y="789.3428">Digital</text><text fill="#000000" font-family="sans-serif" font-size="9" lengthAdjust="spacing" textLength="21.0146" x="71.9973" y="800.6631">0/5 V</text></g><!--link GMN24 to GMN32--><g id="link_GMN24_GMN32"><path d="M210,941.01 C210,961.05 210,983.84 210,1003.89 " fill="none" id="GMN24-GMN32" style="stroke:#000000;stroke-width:1.0;stroke-dasharray:7.0,7.0;"/></g><!--SRC=[RLNTRk965BxtKnojL8b4DR4Xi8crYGeER28jYGiHlIZLQjQUm9JnZ3ipXYPLgrLLLTtRFaAbNlIo5ts1VO3s7NYIdh719YlE1RBFTyRpVUSFlMGY8uga4Ciqau8A0pyuWDOdyNAkP2wIK7Afu0sRBqoVvxH4fKgeAf4-nz32EvJ2JDWJ1T-htcz9Ig6d6E7EZuwZg_jwIidr_WS-WQfldJjEXZYPKtWHvOh2FTA4AsfeR9WKC65pGJY42y84D5fddWVNJqSljZA-7d2CKzJCn8Z5IcOBFFqD40sZcx284D9GK5OTo8VAQmsVOU135FOhruGApGnRCVCOWDlrFlxTXgG_FOb85TBrq0EJw0riVlqTMXvy_6TQW5GanMLEIInIbAGPPm-Cge9GD1xqHj41Jdk0jLifN2PML1acvZ0AewxNEgtGrvY604uB4etUsnLSO3NyemhlVnN0-JaihvygLycnfDlq83r8zzGit3jRz9de4v5aH6iOCcwsvFlHy03pdTTQI7HC4fh0QDW7RR2Uki8UDZ-_HwBRua7ZIzXy-0t9T6lUhaqqiY_qdDcm2XhJRyjU2E3oPI7y2qp0iv0zk-nsoX2_Ii8dKWUON2upEXDbbybIuk1sUa3YpblajdT_UWQJU26DMJv2mcH2QvOXw5HAiy2g1J2-y3rl-UzVdqDuqMvxeixJVx-Wn7ORqZezOwOf69RI0Bfdpu4iu-XzvJNHFtsRPOVqX3ZQE5Wx7U7TmIwhtDRk5uhgXUH907wp0zEzN6kcSG0egbinR8S0sXtKSUBRtohi-b5ZPzZO07v2fKWE6ZApHIAyBkfTRhBS1E2Tu1t0vPp51mioYTgjcNWTtTmL2kp30GMLszeLcpE3Um6NIcugxur0MdPTP3ddRYBNuZcayiouYK9zDN2L4-uQktHMXBE459rMPsejOS6CXeRNxBX-qzErl3MprOQMnYU1bptNXklGRXZNlTnEE0IxKUo5pjPbKPmY2nMZQI7xRltOUkWlXv0cCx4T7yVwBMuhYW5N8Twvw-W6CdJR-AdfaLFWDj0cpWQMAPk9eXoEKsJt7VQoJ0lcnySJMzOK8geUf4g9Y6bmV5nWc_T_xEraJWmLCQx8LnqaZRaXgpcyjArxL4MFYPXZwsu-_Ebt84wXGR-FAKqqZhTzLVIxd2cQuZzIVMP8E4u2uKHX0Dw1dVCPDF10YcacwJjc_x-4n76fpnJbmmhjLm_lm8CwZsEAQwo190tL1cAYwHx3IAvjVnSQUhWmR5AgwlqF]--></g></svg>